<svg width="510" height="56" viewBox="0 0 510 56" fill="none" xmlns="http://www.w3.org/2000/svg">
<rect width="510" height="56" fill="#F6F6F6"/>
<path d="M45.6665 11.3333H33.9998C33.1158 11.3333 32.2679 11.6844 31.6428 12.3096C31.0177 12.9347 30.6665 13.7825 30.6665 14.6666V41.3333C30.6665 42.2173 31.0177 43.0652 31.6428 43.6903C32.2679 44.3154 33.1158 44.6666 33.9998 44.6666H53.9998C54.8839 44.6666 55.7317 44.3154 56.3569 43.6903C56.982 43.0652 57.3332 42.2173 57.3332 41.3333V22.9999L45.6665 11.3333Z" fill="#D8E9FF" stroke="#355E8F" stroke-width="1.5" stroke-linecap="round" stroke-linejoin="round"/>
<path d="M45.6665 11.3333V22.9999H57.3332" stroke="#355E8F" stroke-width="1.5" stroke-linecap="round" stroke-linejoin="round"/>
<path d="M37.7717 35.62C37.1317 35.62 36.5984 35.38 36.1717 34.9C35.7451 34.4133 35.5317 33.7533 35.5317 32.92C35.5317 32.0866 35.7484 31.4266 36.1817 30.94C36.6151 30.4533 37.1584 30.21 37.8117 30.21C38.4584 30.21 38.9284 30.42 39.2217 30.84V28.23H40.6817V35.5H39.2817V34.89C38.9684 35.3766 38.4651 35.62 37.7717 35.62ZM38.9417 31.86C38.7351 31.6 38.4617 31.47 38.1217 31.47C37.7817 31.47 37.5084 31.6033 37.3017 31.87C37.0951 32.13 36.9917 32.48 36.9917 32.92C36.9917 33.3533 37.0951 33.7033 37.3017 33.97C37.5084 34.23 37.7817 34.36 38.1217 34.36C38.4617 34.36 38.7351 34.23 38.9417 33.97C39.1484 33.71 39.2517 33.3666 39.2517 32.94V32.9C39.2517 32.46 39.1484 32.1133 38.9417 31.86Z" fill="#355E8F"/>
<path d="M44.2746 30.21C45.0412 30.21 45.6645 30.46 46.1446 30.96C46.6312 31.4533 46.8746 32.1066 46.8746 32.92C46.8746 33.7333 46.6312 34.3866 46.1446 34.88C45.6645 35.3733 45.0412 35.62 44.2746 35.62C43.5012 35.62 42.8712 35.3733 42.3846 34.88C41.9046 34.3866 41.6646 33.7333 41.6646 32.92C41.6646 32.1066 41.9046 31.4533 42.3846 30.96C42.8712 30.46 43.5012 30.21 44.2746 30.21ZM44.2746 34.36C44.6212 34.36 44.8979 34.2266 45.1046 33.96C45.3112 33.6933 45.4146 33.3466 45.4146 32.92C45.4146 32.4866 45.3112 32.1366 45.1046 31.87C44.9046 31.6033 44.6279 31.47 44.2746 31.47C43.9212 31.47 43.6412 31.6033 43.4346 31.87C43.2279 32.1366 43.1246 32.4866 43.1246 32.92C43.1246 33.3466 43.2279 33.6933 43.4346 33.96C43.6412 34.2266 43.9212 34.36 44.2746 34.36Z" fill="#355E8F"/>
<path d="M50.1528 34.36C50.6661 34.36 50.9861 34.12 51.1128 33.64H52.5028C52.4561 34.2133 52.2194 34.6866 51.7928 35.06C51.3661 35.4333 50.8161 35.62 50.1428 35.62C49.3628 35.62 48.7394 35.37 48.2728 34.87C47.8061 34.3633 47.5728 33.7133 47.5728 32.92C47.5728 32.1333 47.8061 31.4866 48.2728 30.98C48.7394 30.4666 49.3628 30.21 50.1428 30.21C50.8228 30.21 51.3694 30.4 51.7828 30.78C52.1961 31.16 52.4328 31.6266 52.4928 32.18H51.0928C50.9461 31.7066 50.6294 31.47 50.1428 31.47C49.8028 31.47 49.5328 31.6033 49.3328 31.87C49.1328 32.13 49.0328 32.48 49.0328 32.92C49.0328 33.36 49.1328 33.71 49.3328 33.97C49.5394 34.23 49.8128 34.36 50.1528 34.36Z" fill="#355E8F"/>
<path d="M82.8494 11.8182V22H81.6165V12.9119H76.4858V22H75.2528V11.8182H82.8494ZM85.4574 24.8636V14.3636H86.5909V15.5767H86.7301C86.8163 15.4441 86.9356 15.2751 87.0881 15.0696C87.2438 14.8608 87.4659 14.6752 87.7543 14.5128C88.0459 14.3471 88.4403 14.2642 88.9375 14.2642C89.5805 14.2642 90.1472 14.425 90.6378 14.7464C91.1283 15.0679 91.5111 15.5237 91.7862 16.1136C92.0613 16.7036 92.1989 17.3996 92.1989 18.2017C92.1989 19.0104 92.0613 19.7114 91.7862 20.3047C91.5111 20.8946 91.13 21.352 90.6427 21.6768C90.1555 21.9983 89.5937 22.1591 88.9574 22.1591C88.4668 22.1591 88.0741 22.0779 87.7791 21.9155C87.4841 21.7498 87.2571 21.5625 87.098 21.3537C86.9389 21.1416 86.8163 20.9659 86.7301 20.8267H86.6307V24.8636H85.4574ZM86.6108 18.1818C86.6108 18.7585 86.6953 19.2673 86.8643 19.7081C87.0334 20.1456 87.2803 20.4886 87.6051 20.7372C87.9299 20.9825 88.3276 21.1051 88.7983 21.1051C89.2888 21.1051 89.6981 20.9759 90.0263 20.7173C90.3577 20.4555 90.6063 20.1042 90.772 19.6634C90.941 19.2192 91.0256 18.7254 91.0256 18.1818C91.0256 17.6449 90.9427 17.161 90.777 16.7301C90.6146 16.2959 90.3677 15.9529 90.0362 15.701C89.7081 15.4458 89.2954 15.3182 88.7983 15.3182C88.321 15.3182 87.92 15.4392 87.5952 15.6811C87.2704 15.9197 87.0251 16.2545 86.8594 16.6854C86.6936 17.1129 86.6108 17.6117 86.6108 18.1818ZM97.4703 22.1591C96.7345 22.1591 96.0998 21.9967 95.5662 21.6719C95.0359 21.3438 94.6266 20.8864 94.3382 20.2997C94.0532 19.7098 93.9107 19.0237 93.9107 18.2415C93.9107 17.4593 94.0532 16.7699 94.3382 16.1733C94.6266 15.5734 95.0276 15.1061 95.5414 14.7713C96.0584 14.4332 96.6616 14.2642 97.351 14.2642C97.7487 14.2642 98.1415 14.3305 98.5293 14.4631C98.9171 14.5956 99.27 14.8111 99.5882 15.1094C99.9064 15.4044 100.16 15.7955 100.349 16.2827C100.538 16.7699 100.632 17.3698 100.632 18.0824V18.5795H94.7459V17.5653H99.4391C99.4391 17.1345 99.3529 16.75 99.1806 16.4119C99.0115 16.0739 98.7696 15.8071 98.4547 15.6115C98.1432 15.416 97.7753 15.3182 97.351 15.3182C96.8837 15.3182 96.4793 15.4342 96.1379 15.6662C95.7999 15.8949 95.5397 16.1932 95.3574 16.5611C95.1751 16.929 95.084 17.3234 95.084 17.7443V18.4205C95.084 18.9972 95.1834 19.486 95.3823 19.8871C95.5844 20.2848 95.8645 20.5881 96.2225 20.7969C96.5804 21.0024 96.9964 21.1051 97.4703 21.1051C97.7786 21.1051 98.057 21.062 98.3056 20.9759C98.5575 20.8864 98.7745 20.7538 98.9568 20.5781C99.1391 20.3991 99.28 20.1771 99.3794 19.9119L100.513 20.2301C100.394 20.6146 100.193 20.9527 99.9114 21.2443C99.6297 21.5327 99.2816 21.758 98.8674 21.9205C98.4531 22.0795 97.9874 22.1591 97.4703 22.1591ZM101.882 24.1875V20.9062H102.518C102.674 20.7438 102.808 20.5682 102.921 20.3793C103.033 20.1903 103.131 19.9666 103.214 19.7081C103.3 19.4463 103.373 19.1281 103.433 18.7536C103.493 18.3757 103.546 17.92 103.592 17.3864L103.85 14.3636H108.703V20.9062H109.876V24.1875H108.703V22H103.055V24.1875H101.882ZM103.85 20.9062H107.529V15.4574H104.944L104.745 17.3864C104.663 18.1851 104.56 18.8828 104.437 19.4794C104.314 20.076 104.119 20.5516 103.85 20.9062ZM111.037 22V20.9062H111.316C111.544 20.9062 111.735 20.8615 111.887 20.772C112.04 20.6792 112.162 20.5185 112.255 20.2898C112.351 20.0578 112.424 19.7363 112.474 19.3253C112.527 18.911 112.565 18.384 112.588 17.7443L112.728 14.3636H117.819V22H116.645V15.4574H113.841L113.722 18.1818C113.695 18.8082 113.639 19.3601 113.553 19.8374C113.47 20.3113 113.342 20.709 113.17 21.0305C113.001 21.352 112.776 21.594 112.494 21.7564C112.212 21.9188 111.859 22 111.435 22H111.037ZM123.353 22.1591C122.664 22.1591 122.059 21.995 121.539 21.6669C121.022 21.3388 120.617 20.8797 120.326 20.2898C120.037 19.6998 119.893 19.0104 119.893 18.2216C119.893 17.4261 120.037 16.7318 120.326 16.1385C120.617 15.5452 121.022 15.0845 121.539 14.7564C122.059 14.4283 122.664 14.2642 123.353 14.2642C124.043 14.2642 124.646 14.4283 125.163 14.7564C125.684 15.0845 126.088 15.5452 126.376 16.1385C126.668 16.7318 126.814 17.4261 126.814 18.2216C126.814 19.0104 126.668 19.6998 126.376 20.2898C126.088 20.8797 125.684 21.3388 125.163 21.6669C124.646 21.995 124.043 22.1591 123.353 22.1591ZM123.353 21.1051C123.877 21.1051 124.308 20.9709 124.646 20.7024C124.984 20.4339 125.234 20.081 125.397 19.6435C125.559 19.206 125.64 18.732 125.64 18.2216C125.64 17.7112 125.559 17.2356 125.397 16.7947C125.234 16.3539 124.984 15.9976 124.646 15.7259C124.308 15.4541 123.877 15.3182 123.353 15.3182C122.83 15.3182 122.399 15.4541 122.061 15.7259C121.723 15.9976 121.473 16.3539 121.31 16.7947C121.148 17.2356 121.067 17.7112 121.067 18.2216C121.067 18.732 121.148 19.206 121.31 19.6435C121.473 20.081 121.723 20.4339 122.061 20.7024C122.399 20.9709 122.83 21.1051 123.353 21.1051ZM128.093 22L131.195 18.1222L128.133 14.3636H129.525L132.07 17.625H132.707V14.3636H133.88V17.625H134.496L137.042 14.3636H138.434L135.391 18.1222L138.474 22H137.062L134.477 18.7188H133.88V22H132.707V18.7188H132.11L129.505 22H128.093ZM143.318 22.1591C142.582 22.1591 141.947 21.9967 141.413 21.6719C140.883 21.3438 140.474 20.8864 140.185 20.2997C139.9 19.7098 139.758 19.0237 139.758 18.2415C139.758 17.4593 139.9 16.7699 140.185 16.1733C140.474 15.5734 140.875 15.1061 141.389 14.7713C141.906 14.4332 142.509 14.2642 143.198 14.2642C143.596 14.2642 143.989 14.3305 144.377 14.4631C144.764 14.5956 145.117 14.8111 145.435 15.1094C145.754 15.4044 146.007 15.7955 146.196 16.2827C146.385 16.7699 146.48 17.3698 146.48 18.0824V18.5795H140.593V17.5653H145.286C145.286 17.1345 145.2 16.75 145.028 16.4119C144.859 16.0739 144.617 15.8071 144.302 15.6115C143.99 15.416 143.623 15.3182 143.198 15.3182C142.731 15.3182 142.327 15.4342 141.985 15.6662C141.647 15.8949 141.387 16.1932 141.205 16.5611C141.022 16.929 140.931 17.3234 140.931 17.7443V18.4205C140.931 18.9972 141.031 19.486 141.23 19.8871C141.432 20.2848 141.712 20.5881 142.07 20.7969C142.428 21.0024 142.844 21.1051 143.318 21.1051C143.626 21.1051 143.904 21.062 144.153 20.9759C144.405 20.8864 144.622 20.7538 144.804 20.5781C144.986 20.3991 145.127 20.1771 145.227 19.9119L146.36 20.2301C146.241 20.6146 146.04 20.9527 145.759 21.2443C145.477 21.5327 145.129 21.758 144.715 21.9205C144.3 22.0795 143.835 22.1591 143.318 22.1591ZM153.655 17.6449V18.7386H149.439V17.6449H153.655ZM149.718 14.3636V22H148.544V14.3636H149.718ZM154.55 14.3636V22H153.377V14.3636H154.55ZM158.146 20.2699L161.825 14.3636H163.177V22H162.004V16.0938L158.345 22H156.973V14.3636H158.146V20.2699ZM170.2 22V15.4375H168.172C167.714 15.4375 167.355 15.5436 167.093 15.7557C166.831 15.9678 166.7 16.2595 166.7 16.6307C166.7 16.9953 166.818 17.282 167.053 17.4908C167.292 17.6996 167.618 17.804 168.032 17.804H170.498V18.8977H168.032C167.515 18.8977 167.07 18.8066 166.695 18.6243C166.321 18.442 166.032 18.1818 165.83 17.8438C165.628 17.5024 165.527 17.098 165.527 16.6307C165.527 16.16 165.633 15.7557 165.845 15.4176C166.057 15.0795 166.36 14.8194 166.755 14.6371C167.152 14.4548 167.625 14.3636 168.172 14.3636H171.314V22H170.2ZM165.109 22L167.277 18.2017H168.549L166.382 22H165.109ZM177.965 22V14.3636H183.971V22H182.798V15.4574H179.138V22H177.965ZM189.496 22.1591C188.806 22.1591 188.202 21.995 187.681 21.6669C187.164 21.3388 186.76 20.8797 186.468 20.2898C186.18 19.6998 186.036 19.0104 186.036 18.2216C186.036 17.4261 186.18 16.7318 186.468 16.1385C186.76 15.5452 187.164 15.0845 187.681 14.7564C188.202 14.4283 188.806 14.2642 189.496 14.2642C190.185 14.2642 190.788 14.4283 191.305 14.7564C191.826 15.0845 192.23 15.5452 192.519 16.1385C192.81 16.7318 192.956 17.4261 192.956 18.2216C192.956 19.0104 192.81 19.6998 192.519 20.2898C192.23 20.8797 191.826 21.3388 191.305 21.6669C190.788 21.995 190.185 22.1591 189.496 22.1591ZM189.496 21.1051C190.019 21.1051 190.45 20.9709 190.788 20.7024C191.127 20.4339 191.377 20.081 191.539 19.6435C191.702 19.206 191.783 18.732 191.783 18.2216C191.783 17.7112 191.702 17.2356 191.539 16.7947C191.377 16.3539 191.127 15.9976 190.788 15.7259C190.45 15.4541 190.019 15.3182 189.496 15.3182C188.972 15.3182 188.541 15.4541 188.203 15.7259C187.865 15.9976 187.615 16.3539 187.452 16.7947C187.29 17.2356 187.209 17.7112 187.209 18.2216C187.209 18.732 187.29 19.206 187.452 19.6435C187.615 20.081 187.865 20.4339 188.203 20.7024C188.541 20.9709 188.972 21.1051 189.496 21.1051ZM199.245 22V14.3636H202.367C203.189 14.3636 203.842 14.5492 204.326 14.9205C204.809 15.2917 205.051 15.7822 205.051 16.392C205.051 16.8561 204.914 17.2157 204.639 17.4709C204.364 17.7228 204.011 17.8935 203.58 17.983C203.862 18.0227 204.135 18.1222 204.4 18.2812C204.669 18.4403 204.891 18.6591 205.066 18.9375C205.242 19.2126 205.33 19.5507 205.33 19.9517C205.33 20.3428 205.23 20.6925 205.031 21.0007C204.833 21.3089 204.548 21.5526 204.176 21.7315C203.805 21.9105 203.361 22 202.844 22H199.245ZM200.358 20.9261H202.844C203.248 20.9261 203.565 20.83 203.794 20.6378C204.022 20.4455 204.137 20.1837 204.137 19.8523C204.137 19.4579 204.022 19.148 203.794 18.9226C203.565 18.6939 203.248 18.5795 202.844 18.5795H200.358V20.9261ZM200.358 17.5653H202.367C202.682 17.5653 202.952 17.5223 203.177 17.4361C203.402 17.3466 203.575 17.2206 203.694 17.0582C203.817 16.8925 203.878 16.697 203.878 16.4716C203.878 16.1501 203.744 15.8982 203.475 15.7159C203.207 15.5303 202.837 15.4375 202.367 15.4375H200.358V17.5653ZM212.497 17.6449V18.7386H208.281V17.6449H212.497ZM208.559 14.3636V22H207.386V14.3636H208.559ZM213.392 14.3636V22H212.218V14.3636H213.392ZM219.016 22.1591C218.28 22.1591 217.646 21.9967 217.112 21.6719C216.582 21.3438 216.172 20.8864 215.884 20.2997C215.599 19.7098 215.456 19.0237 215.456 18.2415C215.456 17.4593 215.599 16.7699 215.884 16.1733C216.172 15.5734 216.573 15.1061 217.087 14.7713C217.604 14.4332 218.207 14.2642 218.897 14.2642C219.294 14.2642 219.687 14.3305 220.075 14.4631C220.463 14.5956 220.816 14.8111 221.134 15.1094C221.452 15.4044 221.706 15.7955 221.895 16.2827C222.084 16.7699 222.178 17.3698 222.178 18.0824V18.5795H216.292V17.5653H220.985C220.985 17.1345 220.899 16.75 220.726 16.4119C220.557 16.0739 220.315 15.8071 220 15.6115C219.689 15.416 219.321 15.3182 218.897 15.3182C218.429 15.3182 218.025 15.4342 217.684 15.6662C217.346 15.8949 217.085 16.1932 216.903 16.5611C216.721 16.929 216.63 17.3234 216.63 17.7443V18.4205C216.63 18.9972 216.729 19.486 216.928 19.8871C217.13 20.2848 217.41 20.5881 217.768 20.7969C218.126 21.0024 218.542 21.1051 219.016 21.1051C219.324 21.1051 219.603 21.062 219.851 20.9759C220.103 20.8864 220.32 20.7538 220.503 20.5781C220.685 20.3991 220.826 20.1771 220.925 19.9119L222.059 20.2301C221.939 20.6146 221.739 20.9527 221.457 21.2443C221.175 21.5327 220.827 21.758 220.413 21.9205C219.999 22.0795 219.533 22.1591 219.016 22.1591ZM227.345 22.1591C226.629 22.1591 226.013 21.9901 225.496 21.652C224.979 21.3139 224.581 20.8482 224.302 20.255C224.024 19.6617 223.885 18.9839 223.885 18.2216C223.885 17.446 224.027 16.7616 224.312 16.1683C224.601 15.5717 225.002 15.1061 225.515 14.7713C226.033 14.4332 226.636 14.2642 227.325 14.2642C227.862 14.2642 228.346 14.3636 228.777 14.5625C229.208 14.7614 229.561 15.0398 229.836 15.3977C230.111 15.7557 230.282 16.1733 230.348 16.6506H229.175C229.085 16.3026 228.886 15.9943 228.578 15.7259C228.273 15.4541 227.862 15.3182 227.345 15.3182C226.888 15.3182 226.487 15.4375 226.142 15.6761C225.801 15.9115 225.534 16.2446 225.341 16.6754C225.153 17.103 225.058 17.6051 225.058 18.1818C225.058 18.7718 225.151 19.2855 225.337 19.723C225.525 20.1605 225.791 20.5002 226.132 20.7422C226.477 20.9841 226.881 21.1051 227.345 21.1051C227.65 21.1051 227.927 21.0521 228.175 20.946C228.424 20.84 228.634 20.6875 228.807 20.4886C228.979 20.2898 229.102 20.0511 229.175 19.7727H230.348C230.282 20.2235 230.118 20.6295 229.856 20.9908C229.597 21.3487 229.254 21.6338 228.827 21.8459C228.402 22.0547 227.908 22.1591 227.345 22.1591ZM235.545 22.1591C234.809 22.1591 234.174 21.9967 233.641 21.6719C233.11 21.3438 232.701 20.8864 232.413 20.2997C232.128 19.7098 231.985 19.0237 231.985 18.2415C231.985 17.4593 232.128 16.7699 232.413 16.1733C232.701 15.5734 233.102 15.1061 233.616 14.7713C234.133 14.4332 234.736 14.2642 235.425 14.2642C235.823 14.2642 236.216 14.3305 236.604 14.4631C236.992 14.5956 237.345 14.8111 237.663 15.1094C237.981 15.4044 238.234 15.7955 238.423 16.2827C238.612 16.7699 238.707 17.3698 238.707 18.0824V18.5795H232.82V17.5653H237.514C237.514 17.1345 237.427 16.75 237.255 16.4119C237.086 16.0739 236.844 15.8071 236.529 15.6115C236.218 15.416 235.85 15.3182 235.425 15.3182C234.958 15.3182 234.554 15.4342 234.212 15.6662C233.874 15.8949 233.614 16.1932 233.432 16.5611C233.25 16.929 233.158 17.3234 233.158 17.7443V18.4205C233.158 18.9972 233.258 19.486 233.457 19.8871C233.659 20.2848 233.939 20.5881 234.297 20.7969C234.655 21.0024 235.071 21.1051 235.545 21.1051C235.853 21.1051 236.131 21.062 236.38 20.9759C236.632 20.8864 236.849 20.7538 237.031 20.5781C237.214 20.3991 237.354 20.1771 237.454 19.9119L238.587 20.2301C238.468 20.6146 238.268 20.9527 237.986 21.2443C237.704 21.5327 237.356 21.758 236.942 21.9205C236.528 22.0795 236.062 22.1591 235.545 22.1591ZM245.882 17.6449V18.7386H241.666V17.6449H245.882ZM241.945 14.3636V22H240.772V14.3636H241.945ZM246.777 14.3636V22H245.604V14.3636H246.777ZM250.373 20.2699L254.052 14.3636H255.405V22H254.231V16.0938L250.572 22H249.2V14.3636H250.373V20.2699ZM261.493 17.7045V18.7983H257.456V17.7045H261.493ZM258.45 14.3636V22H257.277V14.3636H258.45ZM263.839 22.1591C263.15 22.1591 262.545 21.995 262.025 21.6669C261.507 21.3388 261.103 20.8797 260.811 20.2898C260.523 19.6998 260.379 19.0104 260.379 18.2216C260.379 17.4261 260.523 16.7318 260.811 16.1385C261.103 15.5452 261.507 15.0845 262.025 14.7564C262.545 14.4283 263.15 14.2642 263.839 14.2642C264.529 14.2642 265.132 14.4283 265.649 14.7564C266.169 15.0845 266.574 15.5452 266.862 16.1385C267.154 16.7318 267.299 17.4261 267.299 18.2216C267.299 19.0104 267.154 19.6998 266.862 20.2898C266.574 20.8797 266.169 21.3388 265.649 21.6669C265.132 21.995 264.529 22.1591 263.839 22.1591ZM263.839 21.1051C264.363 21.1051 264.794 20.9709 265.132 20.7024C265.47 20.4339 265.72 20.081 265.882 19.6435C266.045 19.206 266.126 18.732 266.126 18.2216C266.126 17.7112 266.045 17.2356 265.882 16.7947C265.72 16.3539 265.47 15.9976 265.132 15.7259C264.794 15.4541 264.363 15.3182 263.839 15.3182C263.315 15.3182 262.885 15.4541 262.547 15.7259C262.208 15.9976 261.958 16.3539 261.796 16.7947C261.633 17.2356 261.552 17.7112 261.552 18.2216C261.552 18.732 261.633 19.206 261.796 19.6435C261.958 20.081 262.208 20.4339 262.547 20.7024C262.885 20.9709 263.315 21.1051 263.839 21.1051ZM270.344 22.0795C270.098 22.0795 269.888 21.9917 269.712 21.8161C269.537 21.6404 269.449 21.4299 269.449 21.1847C269.449 20.9394 269.537 20.7289 269.712 20.5533C269.888 20.3776 270.098 20.2898 270.344 20.2898C270.589 20.2898 270.799 20.3776 270.975 20.5533C271.151 20.7289 271.238 20.9394 271.238 21.1847C271.238 21.3471 271.197 21.4962 271.114 21.6321C271.035 21.768 270.927 21.8774 270.791 21.9602C270.658 22.0398 270.509 22.0795 270.344 22.0795ZM274.479 22.0795C274.234 22.0795 274.023 21.9917 273.848 21.8161C273.672 21.6404 273.584 21.4299 273.584 21.1847C273.584 20.9394 273.672 20.7289 273.848 20.5533C274.023 20.3776 274.234 20.2898 274.479 20.2898C274.724 20.2898 274.935 20.3776 275.11 20.5533C275.286 20.7289 275.374 20.9394 275.374 21.1847C275.374 21.3471 275.333 21.4962 275.25 21.6321C275.17 21.768 275.062 21.8774 274.926 21.9602C274.794 22.0398 274.645 22.0795 274.479 22.0795ZM277.282 20.0511H278.535C278.561 20.3958 278.717 20.6577 279.002 20.8366C279.291 21.0156 279.665 21.1051 280.126 21.1051C280.597 21.1051 280.999 21.009 281.334 20.8168C281.669 20.6212 281.836 20.3063 281.836 19.8722C281.836 19.617 281.773 19.3949 281.647 19.206C281.521 19.0137 281.344 18.8646 281.115 18.7585C280.887 18.6525 280.616 18.5994 280.305 18.5994H278.992V17.5455H280.305C280.772 17.5455 281.117 17.4394 281.339 17.2273C281.564 17.0152 281.677 16.75 281.677 16.4318C281.677 16.0904 281.556 15.817 281.314 15.6115C281.072 15.4027 280.729 15.2983 280.285 15.2983C279.838 15.2983 279.465 15.3994 279.166 15.6016C278.868 15.8004 278.711 16.0573 278.694 16.3722H277.461C277.474 15.9612 277.6 15.5982 277.839 15.2834C278.078 14.9652 278.402 14.7166 278.813 14.5376C279.224 14.3554 279.695 14.2642 280.225 14.2642C280.762 14.2642 281.228 14.3587 281.622 14.5476C282.02 14.7332 282.327 14.9867 282.542 15.3082C282.761 15.6264 282.87 15.9877 282.87 16.392C282.87 16.8229 282.749 17.1709 282.507 17.4361C282.265 17.7012 281.962 17.8902 281.597 18.0028V18.0824C281.886 18.1023 282.136 18.1951 282.348 18.3608C282.564 18.5232 282.731 18.737 282.85 19.0021C282.97 19.264 283.029 19.554 283.029 19.8722C283.029 20.3362 282.905 20.7405 282.656 21.0852C282.408 21.4266 282.066 21.6918 281.632 21.8807C281.198 22.0663 280.703 22.1591 280.146 22.1591C279.606 22.1591 279.122 22.0713 278.694 21.8956C278.267 21.7166 277.927 21.4697 277.675 21.1548C277.426 20.8366 277.295 20.4688 277.282 20.0511ZM288.159 22.1591C287.423 22.1591 286.789 21.9967 286.255 21.6719C285.725 21.3438 285.315 20.8864 285.027 20.2997C284.742 19.7098 284.599 19.0237 284.599 18.2415C284.599 17.4593 284.742 16.7699 285.027 16.1733C285.315 15.5734 285.716 15.1061 286.23 14.7713C286.747 14.4332 287.35 14.2642 288.04 14.2642C288.437 14.2642 288.83 14.3305 289.218 14.4631C289.606 14.5956 289.959 14.8111 290.277 15.1094C290.595 15.4044 290.849 15.7955 291.038 16.2827C291.227 16.7699 291.321 17.3698 291.321 18.0824V18.5795H285.435V17.5653H290.128C290.128 17.1345 290.042 16.75 289.869 16.4119C289.7 16.0739 289.458 15.8071 289.143 15.6115C288.832 15.416 288.464 15.3182 288.04 15.3182C287.572 15.3182 287.168 15.4342 286.827 15.6662C286.489 15.8949 286.228 16.1932 286.046 16.5611C285.864 16.929 285.773 17.3234 285.773 17.7443V18.4205C285.773 18.9972 285.872 19.486 286.071 19.8871C286.273 20.2848 286.553 20.5881 286.911 20.7969C287.269 21.0024 287.685 21.1051 288.159 21.1051C288.467 21.1051 288.746 21.062 288.994 20.9759C289.246 20.8864 289.463 20.7538 289.646 20.5781C289.828 20.3991 289.969 20.1771 290.068 19.9119L291.202 20.2301C291.082 20.6146 290.882 20.9527 290.6 21.2443C290.318 21.5327 289.97 21.758 289.556 21.9205C289.142 22.0795 288.676 22.1591 288.159 22.1591ZM297.562 20.4091L300.227 14.3636H301.34L298.039 22H297.085L293.843 14.3636H294.937L297.562 20.4091ZM294.559 14.3636V22H293.386V14.3636H294.559ZM300.565 22V14.3636H301.738V22H300.565ZM303.49 22V20.9062H303.768C303.997 20.9062 304.187 20.8615 304.34 20.772C304.492 20.6792 304.615 20.5185 304.708 20.2898C304.804 20.0578 304.877 19.7363 304.926 19.3253C304.979 18.911 305.018 18.384 305.041 17.7443L305.18 14.3636H310.271V22H309.098V15.4574H306.294L306.174 18.1818C306.148 18.8082 306.091 19.3601 306.005 19.8374C305.922 20.3113 305.795 20.709 305.622 21.0305C305.453 21.352 305.228 21.594 304.946 21.7564C304.665 21.9188 304.312 22 303.887 22H303.49ZM315.905 22.1591C315.17 22.1591 314.535 21.9967 314.001 21.6719C313.471 21.3438 313.062 20.8864 312.773 20.2997C312.488 19.7098 312.346 19.0237 312.346 18.2415C312.346 17.4593 312.488 16.7699 312.773 16.1733C313.062 15.5734 313.463 15.1061 313.976 14.7713C314.493 14.4332 315.097 14.2642 315.786 14.2642C316.184 14.2642 316.576 14.3305 316.964 14.4631C317.352 14.5956 317.705 14.8111 318.023 15.1094C318.341 15.4044 318.595 15.7955 318.784 16.2827C318.973 16.7699 319.067 17.3698 319.067 18.0824V18.5795H313.181V17.5653H317.874C317.874 17.1345 317.788 16.75 317.616 16.4119C317.447 16.0739 317.205 15.8071 316.89 15.6115C316.578 15.416 316.21 15.3182 315.786 15.3182C315.319 15.3182 314.914 15.4342 314.573 15.6662C314.235 15.8949 313.975 16.1932 313.792 16.5611C313.61 16.929 313.519 17.3234 313.519 17.7443V18.4205C313.519 18.9972 313.618 19.486 313.817 19.8871C314.019 20.2848 314.3 20.5881 314.657 20.7969C315.015 21.0024 315.431 21.1051 315.905 21.1051C316.214 21.1051 316.492 21.062 316.741 20.9759C316.992 20.8864 317.21 20.7538 317.392 20.5781C317.574 20.3991 317.715 20.1771 317.814 19.9119L318.948 20.2301C318.829 20.6146 318.628 20.9527 318.346 21.2443C318.065 21.5327 317.717 21.758 317.302 21.9205C316.888 22.0795 316.422 22.1591 315.905 22.1591ZM321.132 22V14.3636H327.138V22H325.964V15.4574H322.305V22H321.132ZM332.663 22.1591C331.973 22.1591 331.368 21.995 330.848 21.6669C330.331 21.3388 329.927 20.8797 329.635 20.2898C329.347 19.6998 329.203 19.0104 329.203 18.2216C329.203 17.4261 329.347 16.7318 329.635 16.1385C329.927 15.5452 330.331 15.0845 330.848 14.7564C331.368 14.4283 331.973 14.2642 332.663 14.2642C333.352 14.2642 333.955 14.4283 334.472 14.7564C334.993 15.0845 335.397 15.5452 335.685 16.1385C335.977 16.7318 336.123 17.4261 336.123 18.2216C336.123 19.0104 335.977 19.6998 335.685 20.2898C335.397 20.8797 334.993 21.3388 334.472 21.6669C333.955 21.995 333.352 22.1591 332.663 22.1591ZM332.663 21.1051C333.186 21.1051 333.617 20.9709 333.955 20.7024C334.293 20.4339 334.544 20.081 334.706 19.6435C334.868 19.206 334.95 18.732 334.95 18.2216C334.95 17.7112 334.868 17.2356 334.706 16.7947C334.544 16.3539 334.293 15.9976 333.955 15.7259C333.617 15.4541 333.186 15.3182 332.663 15.3182C332.139 15.3182 331.708 15.4541 331.37 15.7259C331.032 15.9976 330.782 16.3539 330.619 16.7947C330.457 17.2356 330.376 17.7112 330.376 18.2216C330.376 18.732 330.457 19.206 330.619 19.6435C330.782 20.081 331.032 20.4339 331.37 20.7024C331.708 20.9709 332.139 21.1051 332.663 21.1051ZM337.518 22V20.9062H337.796C338.025 20.9062 338.216 20.8615 338.368 20.772C338.52 20.6792 338.643 20.5185 338.736 20.2898C338.832 20.0578 338.905 19.7363 338.955 19.3253C339.008 18.911 339.046 18.384 339.069 17.7443L339.208 14.3636H344.299V22H343.126V15.4574H340.322L340.203 18.1818C340.176 18.8082 340.12 19.3601 340.034 19.8374C339.951 20.3113 339.823 20.709 339.651 21.0305C339.482 21.352 339.256 21.594 338.975 21.7564C338.693 21.9188 338.34 22 337.916 22H337.518ZM347.746 17.1278H349.934C350.828 17.1278 351.513 17.3549 351.987 17.8089C352.461 18.263 352.698 18.8381 352.698 19.5341C352.698 19.9915 352.592 20.4074 352.38 20.782C352.167 21.1532 351.856 21.4498 351.445 21.6719C351.034 21.8906 350.53 22 349.934 22H346.732V14.3636H347.905V20.9062H349.934C350.398 20.9062 350.779 20.7836 351.077 20.5384C351.375 20.2931 351.524 19.9782 351.524 19.5938C351.524 19.1894 351.375 18.8596 351.077 18.6044C350.779 18.3492 350.398 18.2216 349.934 18.2216H347.746V17.1278ZM354.287 20.0511H355.539C355.566 20.3958 355.722 20.6577 356.007 20.8366C356.295 21.0156 356.67 21.1051 357.13 21.1051C357.601 21.1051 358.004 21.009 358.338 20.8168C358.673 20.6212 358.84 20.3063 358.84 19.8722C358.84 19.617 358.778 19.3949 358.652 19.206C358.526 19.0137 358.348 18.8646 358.12 18.7585C357.891 18.6525 357.621 18.5994 357.309 18.5994H355.997V17.5455H357.309C357.777 17.5455 358.121 17.4394 358.343 17.2273C358.569 17.0152 358.681 16.75 358.681 16.4318C358.681 16.0904 358.56 15.817 358.318 15.6115C358.077 15.4027 357.733 15.2983 357.289 15.2983C356.842 15.2983 356.469 15.3994 356.171 15.6016C355.872 15.8004 355.715 16.0573 355.698 16.3722H354.465C354.479 15.9612 354.605 15.5982 354.843 15.2834C355.082 14.9652 355.407 14.7166 355.818 14.5376C356.229 14.3554 356.699 14.2642 357.23 14.2642C357.767 14.2642 358.232 14.3587 358.627 14.5476C359.024 14.7332 359.331 14.9867 359.546 15.3082C359.765 15.6264 359.875 15.9877 359.875 16.392C359.875 16.8229 359.754 17.1709 359.512 17.4361C359.27 17.7012 358.966 17.8902 358.602 18.0028V18.0824C358.89 18.1023 359.14 18.1951 359.353 18.3608C359.568 18.5232 359.735 18.737 359.855 19.0021C359.974 19.264 360.034 19.554 360.034 19.8722C360.034 20.3362 359.909 20.7405 359.661 21.0852C359.412 21.4266 359.071 21.6918 358.637 21.8807C358.202 22.0663 357.707 22.1591 357.15 22.1591C356.61 22.1591 356.126 22.0713 355.698 21.8956C355.271 21.7166 354.931 21.4697 354.679 21.1548C354.431 20.8366 354.3 20.4688 354.287 20.0511ZM365.064 22.1591C364.375 22.1591 363.77 21.995 363.249 21.6669C362.732 21.3388 362.328 20.8797 362.036 20.2898C361.748 19.6998 361.604 19.0104 361.604 18.2216C361.604 17.4261 361.748 16.7318 362.036 16.1385C362.328 15.5452 362.732 15.0845 363.249 14.7564C363.77 14.4283 364.375 14.2642 365.064 14.2642C365.753 14.2642 366.357 14.4283 366.874 14.7564C367.394 15.0845 367.798 15.5452 368.087 16.1385C368.378 16.7318 368.524 17.4261 368.524 18.2216C368.524 19.0104 368.378 19.6998 368.087 20.2898C367.798 20.8797 367.394 21.3388 366.874 21.6669C366.357 21.995 365.753 22.1591 365.064 22.1591ZM365.064 21.1051C365.588 21.1051 366.019 20.9709 366.357 20.7024C366.695 20.4339 366.945 20.081 367.107 19.6435C367.27 19.206 367.351 18.732 367.351 18.2216C367.351 17.7112 367.27 17.2356 367.107 16.7947C366.945 16.3539 366.695 15.9976 366.357 15.7259C366.019 15.4541 365.588 15.3182 365.064 15.3182C364.54 15.3182 364.109 15.4541 363.771 15.7259C363.433 15.9976 363.183 16.3539 363.021 16.7947C362.858 17.2356 362.777 17.7112 362.777 18.2216C362.777 18.732 362.858 19.206 363.021 19.6435C363.183 20.081 363.433 20.4339 363.771 20.7024C364.109 20.9709 364.54 21.1051 365.064 21.1051ZM370.595 22V14.3636H373.717C374.539 14.3636 375.192 14.5492 375.676 14.9205C376.16 15.2917 376.402 15.7822 376.402 16.392C376.402 16.8561 376.265 17.2157 375.989 17.4709C375.714 17.7228 375.361 17.8935 374.93 17.983C375.212 18.0227 375.486 18.1222 375.751 18.2812C376.019 18.4403 376.241 18.6591 376.417 18.9375C376.593 19.2126 376.68 19.5507 376.68 19.9517C376.68 20.3428 376.581 20.6925 376.382 21.0007C376.183 21.3089 375.898 21.5526 375.527 21.7315C375.156 21.9105 374.712 22 374.195 22H370.595ZM371.709 20.9261H374.195C374.599 20.9261 374.916 20.83 375.144 20.6378C375.373 20.4455 375.487 20.1837 375.487 19.8523C375.487 19.4579 375.373 19.148 375.144 18.9226C374.916 18.6939 374.599 18.5795 374.195 18.5795H371.709V20.9261ZM371.709 17.5653H373.717C374.032 17.5653 374.302 17.5223 374.528 17.4361C374.753 17.3466 374.926 17.2206 375.045 17.0582C375.167 16.8925 375.229 16.697 375.229 16.4716C375.229 16.1501 375.095 15.8982 374.826 15.7159C374.558 15.5303 374.188 15.4375 373.717 15.4375H371.709V17.5653ZM380.984 22.179C380.5 22.179 380.061 22.0878 379.666 21.9055C379.272 21.7199 378.959 21.4531 378.727 21.1051C378.495 20.7538 378.379 20.3295 378.379 19.8324C378.379 19.3949 378.465 19.0402 378.637 18.7685C378.81 18.4934 379.04 18.2779 379.328 18.1222C379.617 17.9664 379.935 17.8504 380.283 17.7741C380.634 17.6946 380.987 17.6316 381.342 17.5852C381.806 17.5256 382.182 17.4808 382.47 17.451C382.762 17.4179 382.974 17.3632 383.107 17.2869C383.243 17.2107 383.31 17.0781 383.31 16.8892V16.8494C383.31 16.3589 383.176 15.9777 382.908 15.706C382.643 15.4342 382.24 15.2983 381.7 15.2983C381.14 15.2983 380.7 15.4209 380.382 15.6662C380.064 15.9115 379.84 16.1733 379.711 16.4517L378.597 16.054C378.796 15.59 379.061 15.2287 379.393 14.9702C379.728 14.7083 380.092 14.526 380.487 14.4233C380.884 14.3172 381.275 14.2642 381.66 14.2642C381.905 14.2642 382.187 14.294 382.505 14.3537C382.827 14.41 383.136 14.5277 383.435 14.7067C383.736 14.8857 383.987 15.1558 384.185 15.517C384.384 15.8783 384.484 16.3622 384.484 16.9688V22H383.31V20.9659H383.251C383.171 21.1316 383.039 21.3089 382.853 21.4979C382.667 21.6868 382.421 21.8475 382.112 21.9801C381.804 22.1127 381.428 22.179 380.984 22.179ZM381.163 21.125C381.627 21.125 382.018 21.0339 382.336 20.8516C382.658 20.6693 382.899 20.4339 383.062 20.1456C383.228 19.8572 383.31 19.554 383.31 19.2358V18.1619C383.261 18.2216 383.151 18.2763 382.982 18.326C382.817 18.3724 382.624 18.4138 382.406 18.4503C382.19 18.4834 381.98 18.5133 381.774 18.5398C381.572 18.563 381.408 18.5829 381.282 18.5994C380.977 18.6392 380.692 18.7038 380.427 18.7933C380.165 18.8795 379.953 19.0104 379.791 19.1861C379.631 19.3584 379.552 19.5937 379.552 19.892C379.552 20.2997 379.703 20.608 380.004 20.8168C380.309 21.0223 380.695 21.125 381.163 21.125ZM392.016 17.6449V18.7386H387.8V17.6449H392.016ZM388.079 14.3636V22H386.905V14.3636H388.079ZM392.911 14.3636V22H391.738V14.3636H392.911ZM396.507 20.2699L400.186 14.3636H401.538V22H400.365V16.0938L396.706 22H395.334V14.3636H396.507V20.2699ZM408.561 22V15.4375H406.533C406.075 15.4375 405.716 15.5436 405.454 15.7557C405.192 15.9678 405.061 16.2595 405.061 16.6307C405.061 16.9953 405.179 17.282 405.414 17.4908C405.653 17.6996 405.979 17.804 406.393 17.804H408.859V18.8977H406.393C405.876 18.8977 405.431 18.8066 405.056 18.6243C404.681 18.442 404.393 18.1818 404.191 17.8438C403.989 17.5024 403.888 17.098 403.888 16.6307C403.888 16.16 403.994 15.7557 404.206 15.4176C404.418 15.0795 404.721 14.8194 405.116 14.6371C405.513 14.4548 405.986 14.3636 406.533 14.3636H409.675V22H408.561ZM403.47 22L405.638 18.2017H406.91L404.743 22H403.47ZM412.964 22.0795C412.718 22.0795 412.508 21.9917 412.332 21.8161C412.157 21.6404 412.069 21.4299 412.069 21.1847C412.069 20.9394 412.157 20.7289 412.332 20.5533C412.508 20.3776 412.718 20.2898 412.964 20.2898C413.209 20.2898 413.419 20.3776 413.595 20.5533C413.771 20.7289 413.859 20.9394 413.859 21.1847C413.859 21.3471 413.817 21.4962 413.734 21.6321C413.655 21.768 413.547 21.8774 413.411 21.9602C413.279 22.0398 413.129 22.0795 412.964 22.0795ZM419.128 22.1591C418.491 22.1591 417.929 21.9983 417.442 21.6768C416.955 21.352 416.574 20.8946 416.299 20.3047C416.024 19.7114 415.886 19.0104 415.886 18.2017C415.886 17.3996 416.024 16.7036 416.299 16.1136C416.574 15.5237 416.957 15.0679 417.447 14.7464C417.938 14.425 418.504 14.2642 419.147 14.2642C419.645 14.2642 420.037 14.3471 420.326 14.5128C420.617 14.6752 420.839 14.8608 420.992 15.0696C421.148 15.2751 421.269 15.4441 421.355 15.5767H421.454V11.8182H422.628V22H421.494V20.8267H421.355C421.269 20.9659 421.146 21.1416 420.987 21.3537C420.828 21.5625 420.601 21.7498 420.306 21.9155C420.011 22.0779 419.618 22.1591 419.128 22.1591ZM419.287 21.1051C419.757 21.1051 420.155 20.9825 420.48 20.7372C420.805 20.4886 421.052 20.1456 421.221 19.7081C421.39 19.2673 421.474 18.7585 421.474 18.1818C421.474 17.6117 421.391 17.1129 421.226 16.6854C421.06 16.2545 420.815 15.9197 420.49 15.6811C420.165 15.4392 419.764 15.3182 419.287 15.3182C418.789 15.3182 418.375 15.4458 418.044 15.701C417.716 15.9529 417.469 16.2959 417.303 16.7301C417.141 17.161 417.059 17.6449 417.059 18.1818C417.059 18.7254 417.142 19.2192 417.308 19.6634C417.477 20.1042 417.726 20.4555 418.054 20.7173C418.385 20.9759 418.796 21.1051 419.287 21.1051ZM428.322 22.1591C427.632 22.1591 427.027 21.995 426.507 21.6669C425.99 21.3388 425.586 20.8797 425.294 20.2898C425.006 19.6998 424.861 19.0104 424.861 18.2216C424.861 17.4261 425.006 16.7318 425.294 16.1385C425.586 15.5452 425.99 15.0845 426.507 14.7564C427.027 14.4283 427.632 14.2642 428.322 14.2642C429.011 14.2642 429.614 14.4283 430.131 14.7564C430.652 15.0845 431.056 15.5452 431.344 16.1385C431.636 16.7318 431.782 17.4261 431.782 18.2216C431.782 19.0104 431.636 19.6998 431.344 20.2898C431.056 20.8797 430.652 21.3388 430.131 21.6669C429.614 21.995 429.011 22.1591 428.322 22.1591ZM428.322 21.1051C428.845 21.1051 429.276 20.9709 429.614 20.7024C429.952 20.4339 430.203 20.081 430.365 19.6435C430.527 19.206 430.609 18.732 430.609 18.2216C430.609 17.7112 430.527 17.2356 430.365 16.7947C430.203 16.3539 429.952 15.9976 429.614 15.7259C429.276 15.4541 428.845 15.3182 428.322 15.3182C427.798 15.3182 427.367 15.4541 427.029 15.7259C426.691 15.9976 426.441 16.3539 426.278 16.7947C426.116 17.2356 426.035 17.7112 426.035 18.2216C426.035 18.732 426.116 19.206 426.278 19.6435C426.441 20.081 426.691 20.4339 427.029 20.7024C427.367 20.9709 427.798 21.1051 428.322 21.1051ZM436.955 22.1591C436.239 22.1591 435.623 21.9901 435.106 21.652C434.589 21.3139 434.191 20.8482 433.913 20.255C433.634 19.6617 433.495 18.9839 433.495 18.2216C433.495 17.446 433.637 16.7616 433.922 16.1683C434.211 15.5717 434.612 15.1061 435.126 14.7713C435.643 14.4332 436.246 14.2642 436.935 14.2642C437.472 14.2642 437.956 14.3636 438.387 14.5625C438.818 14.7614 439.171 15.0398 439.446 15.3977C439.721 15.7557 439.892 16.1733 439.958 16.6506H438.785C438.695 16.3026 438.496 15.9943 438.188 15.7259C437.883 15.4541 437.472 15.3182 436.955 15.3182C436.498 15.3182 436.097 15.4375 435.752 15.6761C435.411 15.9115 435.144 16.2446 434.952 16.6754C434.763 17.103 434.668 17.6051 434.668 18.1818C434.668 18.7718 434.761 19.2855 434.947 19.723C435.136 20.1605 435.401 20.5002 435.742 20.7422C436.087 20.9841 436.491 21.1051 436.955 21.1051C437.26 21.1051 437.537 21.0521 437.785 20.946C438.034 20.84 438.244 20.6875 438.417 20.4886C438.589 20.2898 438.712 20.0511 438.785 19.7727H439.958C439.892 20.2235 439.728 20.6295 439.466 20.9908C439.207 21.3487 438.864 21.6338 438.437 21.8459C438.012 22.0547 437.519 22.1591 436.955 22.1591Z" fill="#1B1400"/>
<path opacity="0.4" d="M74.78 35.712C74.892 34.976 75.216 34.412 75.752 34.02C76.288 33.62 76.924 33.42 77.66 33.42C78.484 33.42 79.144 33.64 79.64 34.08C80.136 34.52 80.384 35.08 80.384 35.76C80.384 36.232 80.256 36.62 80 36.924C79.744 37.228 79.452 37.444 79.124 37.572C79.5 37.66 79.852 37.876 80.18 38.22C80.516 38.564 80.684 39.028 80.684 39.612C80.684 40.324 80.408 40.924 79.856 41.412C79.304 41.892 78.608 42.132 77.768 42.132C76.944 42.132 76.248 41.924 75.68 41.508C75.112 41.092 74.78 40.512 74.684 39.768H75.764C75.852 40.184 76.072 40.52 76.424 40.776C76.784 41.024 77.232 41.148 77.768 41.148C78.304 41.148 78.74 41.004 79.076 40.716C79.42 40.428 79.592 40.052 79.592 39.588C79.592 39.116 79.412 38.756 79.052 38.508C78.7 38.26 78.248 38.136 77.696 38.136H76.652V37.164H77.624C78.136 37.164 78.54 37.032 78.836 36.768C79.14 36.504 79.292 36.172 79.292 35.772C79.292 35.364 79.148 35.036 78.86 34.788C78.572 34.532 78.172 34.404 77.66 34.404C77.18 34.404 76.78 34.52 76.46 34.752C76.148 34.984 75.944 35.304 75.848 35.712H74.78ZM82.6085 40.884C82.7525 40.74 82.9285 40.668 83.1365 40.668C83.3445 40.668 83.5205 40.74 83.6645 40.884C83.8085 41.02 83.8805 41.192 83.8805 41.4C83.8805 41.608 83.8085 41.784 83.6645 41.928C83.5205 42.064 83.3445 42.132 83.1365 42.132C82.9285 42.132 82.7525 42.064 82.6085 41.928C82.4645 41.784 82.3925 41.608 82.3925 41.4C82.3925 41.192 82.4645 41.02 82.6085 40.884ZM90.3777 35.904C90.3777 35.472 90.2257 35.116 89.9217 34.836C89.6177 34.548 89.2257 34.404 88.7457 34.404C88.2497 34.404 87.8417 34.532 87.5217 34.788C87.2097 35.044 87.0057 35.396 86.9097 35.844H85.8537C85.9497 35.116 86.2577 34.532 86.7777 34.092C87.3057 33.644 87.9697 33.42 88.7697 33.42C89.5777 33.42 90.2297 33.66 90.7257 34.14C91.2218 34.612 91.4698 35.2 91.4698 35.904C91.4698 36.208 91.4258 36.496 91.3377 36.768C91.2577 37.032 91.1257 37.288 90.9417 37.536C90.7577 37.784 90.5857 37.992 90.4257 38.16C90.2737 38.32 90.0617 38.524 89.7897 38.772L87.3537 41.016H91.6737V42H85.8777V41.076L89.0697 38.088C89.5417 37.648 89.8777 37.28 90.0777 36.984C90.2777 36.68 90.3777 36.32 90.3777 35.904ZM96.5707 33.552H97.8667L100.879 40.62L103.891 33.552H105.175V42H104.131V35.508L101.371 42H100.387L97.6147 35.508V42H96.5707V33.552ZM112.682 34.536H108.59V36.888H110.558C111.39 36.888 112.05 37.124 112.538 37.596C113.026 38.06 113.27 38.672 113.27 39.432C113.27 40.184 113.022 40.8 112.526 41.28C112.038 41.76 111.39 42 110.582 42H107.522V33.552H112.682V34.536ZM110.426 37.86H108.59V41.028H110.426C110.97 41.028 111.398 40.884 111.71 40.596C112.022 40.308 112.178 39.92 112.178 39.432C112.178 38.944 112.022 38.56 111.71 38.28C111.398 38 110.97 37.86 110.426 37.86Z" fill="#1B1400"/>
<circle cx="127" cy="38" r="1" fill="#1B1400" fill-opacity="0.4"/>
<path opacity="0.4" d="M145.304 35.904C145.304 35.472 145.152 35.116 144.848 34.836C144.544 34.548 144.152 34.404 143.672 34.404C143.176 34.404 142.768 34.532 142.448 34.788C142.136 35.044 141.932 35.396 141.836 35.844H140.78C140.876 35.116 141.184 34.532 141.704 34.092C142.232 33.644 142.896 33.42 143.696 33.42C144.504 33.42 145.156 33.66 145.652 34.14C146.148 34.612 146.396 35.2 146.396 35.904C146.396 36.208 146.352 36.496 146.264 36.768C146.184 37.032 146.052 37.288 145.868 37.536C145.684 37.784 145.512 37.992 145.352 38.16C145.2 38.32 144.988 38.524 144.716 38.772L142.28 41.016H146.6V42H140.804V41.076L143.996 38.088C144.468 37.648 144.804 37.28 145.004 36.984C145.204 36.68 145.304 36.32 145.304 35.904ZM148.344 35.712C148.456 34.976 148.78 34.412 149.316 34.02C149.852 33.62 150.488 33.42 151.224 33.42C152.048 33.42 152.708 33.64 153.204 34.08C153.7 34.52 153.948 35.08 153.948 35.76C153.948 36.232 153.82 36.62 153.564 36.924C153.308 37.228 153.016 37.444 152.688 37.572C153.064 37.66 153.416 37.876 153.744 38.22C154.08 38.564 154.248 39.028 154.248 39.612C154.248 40.324 153.972 40.924 153.42 41.412C152.868 41.892 152.172 42.132 151.332 42.132C150.508 42.132 149.812 41.924 149.244 41.508C148.676 41.092 148.344 40.512 148.248 39.768H149.328C149.416 40.184 149.636 40.52 149.988 40.776C150.348 41.024 150.796 41.148 151.332 41.148C151.868 41.148 152.304 41.004 152.64 40.716C152.984 40.428 153.156 40.052 153.156 39.588C153.156 39.116 152.976 38.756 152.616 38.508C152.264 38.26 151.812 38.136 151.26 38.136H150.216V37.164H151.188C151.7 37.164 152.104 37.032 152.4 36.768C152.704 36.504 152.856 36.172 152.856 35.772C152.856 35.364 152.712 35.036 152.424 34.788C152.136 34.532 151.736 34.404 151.224 34.404C150.744 34.404 150.344 34.52 150.024 34.752C149.712 34.984 149.508 35.304 149.412 35.712H148.344ZM156.173 40.884C156.317 40.74 156.493 40.668 156.701 40.668C156.909 40.668 157.085 40.74 157.229 40.884C157.373 41.02 157.445 41.192 157.445 41.4C157.445 41.608 157.373 41.784 157.229 41.928C157.085 42.064 156.909 42.132 156.701 42.132C156.493 42.132 156.317 42.064 156.173 41.928C156.029 41.784 155.957 41.608 155.957 41.4C155.957 41.192 156.029 41.02 156.173 40.884ZM159.788 34.632C160.356 33.824 161.136 33.42 162.128 33.42C163.12 33.42 163.9 33.824 164.468 34.632C165.036 35.432 165.32 36.48 165.32 37.776C165.32 39.072 165.036 40.124 164.468 40.932C163.9 41.732 163.12 42.132 162.128 42.132C161.136 42.132 160.356 41.732 159.788 40.932C159.22 40.124 158.936 39.072 158.936 37.776C158.936 36.48 159.22 35.432 159.788 34.632ZM160.58 40.2C160.948 40.832 161.464 41.148 162.128 41.148C162.792 41.148 163.308 40.832 163.676 40.2C164.044 39.568 164.228 38.76 164.228 37.776C164.228 36.792 164.044 35.984 163.676 35.352C163.308 34.72 162.792 34.404 162.128 34.404C161.464 34.404 160.948 34.72 160.58 35.352C160.212 35.984 160.028 36.792 160.028 37.776C160.028 38.76 160.212 39.568 160.58 40.2ZM167.004 39.696C167.004 39.128 167.172 38.66 167.508 38.292C167.852 37.924 168.212 37.692 168.588 37.596C168.244 37.452 167.936 37.228 167.664 36.924C167.4 36.612 167.268 36.204 167.268 35.7C167.268 35.044 167.524 34.5 168.036 34.068C168.548 33.636 169.22 33.42 170.052 33.42C170.876 33.42 171.544 33.636 172.056 34.068C172.568 34.5 172.824 35.044 172.824 35.7C172.824 36.204 172.688 36.612 172.416 36.924C172.152 37.228 171.848 37.452 171.504 37.596C171.88 37.692 172.236 37.924 172.572 38.292C172.916 38.66 173.088 39.128 173.088 39.696C173.088 40.424 172.804 41.012 172.236 41.46C171.676 41.908 170.948 42.132 170.052 42.132C169.156 42.132 168.424 41.908 167.856 41.46C167.288 41.012 167.004 40.424 167.004 39.696ZM171.744 35.784C171.744 35.36 171.588 35.02 171.276 34.764C170.964 34.508 170.556 34.38 170.052 34.38C169.54 34.38 169.128 34.508 168.816 34.764C168.504 35.02 168.348 35.36 168.348 35.784C168.348 36.2 168.512 36.54 168.84 36.804C169.168 37.06 169.572 37.188 170.052 37.188C170.532 37.188 170.932 37.06 171.252 36.804C171.58 36.54 171.744 36.2 171.744 35.784ZM171.996 39.648C171.996 39.176 171.812 38.8 171.444 38.52C171.076 38.232 170.612 38.088 170.052 38.088C169.484 38.088 169.016 38.232 168.648 38.52C168.28 38.8 168.096 39.176 168.096 39.648C168.096 40.104 168.272 40.472 168.624 40.752C168.984 41.032 169.46 41.172 170.052 41.172C170.636 41.172 171.104 41.032 171.456 40.752C171.816 40.472 171.996 40.104 171.996 39.648ZM175.104 40.884C175.248 40.74 175.424 40.668 175.632 40.668C175.84 40.668 176.016 40.74 176.16 40.884C176.304 41.02 176.376 41.192 176.376 41.4C176.376 41.608 176.304 41.784 176.16 41.928C176.016 42.064 175.84 42.132 175.632 42.132C175.424 42.132 175.248 42.064 175.104 41.928C174.96 41.784 174.888 41.608 174.888 41.4C174.888 41.192 174.96 41.02 175.104 40.884ZM182.873 35.904C182.873 35.472 182.721 35.116 182.417 34.836C182.113 34.548 181.721 34.404 181.241 34.404C180.745 34.404 180.337 34.532 180.017 34.788C179.705 35.044 179.501 35.396 179.405 35.844H178.349C178.445 35.116 178.753 34.532 179.273 34.092C179.801 33.644 180.465 33.42 181.265 33.42C182.073 33.42 182.725 33.66 183.221 34.14C183.717 34.612 183.965 35.2 183.965 35.904C183.965 36.208 183.921 36.496 183.833 36.768C183.753 37.032 183.621 37.288 183.437 37.536C183.253 37.784 183.081 37.992 182.921 38.16C182.769 38.32 182.557 38.524 182.285 38.772L179.849 41.016H184.169V42H178.373V41.076L181.565 38.088C182.037 37.648 182.373 37.28 182.573 36.984C182.773 36.68 182.873 36.32 182.873 35.904ZM186.705 34.632C187.273 33.824 188.053 33.42 189.045 33.42C190.037 33.42 190.817 33.824 191.385 34.632C191.953 35.432 192.237 36.48 192.237 37.776C192.237 39.072 191.953 40.124 191.385 40.932C190.817 41.732 190.037 42.132 189.045 42.132C188.053 42.132 187.273 41.732 186.705 40.932C186.137 40.124 185.853 39.072 185.853 37.776C185.853 36.48 186.137 35.432 186.705 34.632ZM187.497 40.2C187.865 40.832 188.381 41.148 189.045 41.148C189.709 41.148 190.225 40.832 190.593 40.2C190.961 39.568 191.145 38.76 191.145 37.776C191.145 36.792 190.961 35.984 190.593 35.352C190.225 34.72 189.709 34.404 189.045 34.404C188.381 34.404 187.865 34.72 187.497 35.352C187.129 35.984 186.945 36.792 186.945 37.776C186.945 38.76 187.129 39.568 187.497 40.2ZM198.505 35.904C198.505 35.472 198.353 35.116 198.049 34.836C197.745 34.548 197.353 34.404 196.873 34.404C196.377 34.404 195.969 34.532 195.649 34.788C195.337 35.044 195.133 35.396 195.037 35.844H193.981C194.077 35.116 194.385 34.532 194.905 34.092C195.433 33.644 196.097 33.42 196.897 33.42C197.705 33.42 198.357 33.66 198.853 34.14C199.349 34.612 199.597 35.2 199.597 35.904C199.597 36.208 199.553 36.496 199.465 36.768C199.385 37.032 199.253 37.288 199.069 37.536C198.885 37.784 198.713 37.992 198.553 38.16C198.401 38.32 198.189 38.524 197.917 38.772L195.481 41.016H199.801V42H194.005V41.076L197.197 38.088C197.669 37.648 198.005 37.28 198.205 36.984C198.405 36.68 198.505 36.32 198.505 35.904ZM206.069 35.904C206.069 35.472 205.917 35.116 205.613 34.836C205.309 34.548 204.917 34.404 204.437 34.404C203.941 34.404 203.533 34.532 203.213 34.788C202.901 35.044 202.697 35.396 202.601 35.844H201.545C201.641 35.116 201.949 34.532 202.469 34.092C202.997 33.644 203.661 33.42 204.461 33.42C205.269 33.42 205.921 33.66 206.417 34.14C206.913 34.612 207.161 35.2 207.161 35.904C207.161 36.208 207.117 36.496 207.029 36.768C206.949 37.032 206.817 37.288 206.633 37.536C206.449 37.784 206.277 37.992 206.117 38.16C205.965 38.32 205.753 38.524 205.481 38.772L203.045 41.016H207.365V42H201.569V41.076L204.761 38.088C205.233 37.648 205.569 37.28 205.769 36.984C205.969 36.68 206.069 36.32 206.069 35.904Z" fill="#1B1400"/>
<g opacity="0.4">
<path d="M481 23L471 33" stroke="#1B1400" stroke-width="1.5" stroke-linecap="round" stroke-linejoin="round"/>
<path d="M471 23L481 33" stroke="#1B1400" stroke-width="1.5" stroke-linecap="round" stroke-linejoin="round"/>
</g>
</svg>
