<svg width="408" height="468" viewBox="0 0 408 468" fill="none" xmlns="http://www.w3.org/2000/svg">
<g clip-path="url(#clip0_1_1101)">
<path d="M212.203 437.816L212.723 426.074C212.777 426.046 212.832 426.017 212.886 425.988C218.457 423.052 224.843 428.367 223.063 434.428C221.389 440.131 220.264 446.279 217.199 451.27C215.388 454.17 212.951 456.623 210.068 458.447C207.184 460.272 203.929 461.422 200.544 461.811L193.465 466.164C192.493 460.726 192.708 455.141 194.092 449.794C195.477 444.447 198 439.465 201.487 435.191C203.466 432.813 205.736 430.695 208.243 428.887C209.938 433.376 212.203 437.816 212.203 437.816Z" fill="#3ABB75"/>
<path d="M275.581 319.885C289.21 305.77 308.959 297.675 329.766 297.675L330.568 297.677C344.273 297.682 357.733 294.032 369.572 287.099L370.804 286.378L369.812 285.351C364.44 279.77 359.955 273.392 356.513 266.442C358.957 268.731 361.873 270.452 365.053 271.484C368.234 272.515 371.601 272.833 374.917 272.413C378.418 271.993 381.779 270.784 384.748 268.874C387.717 266.964 390.216 264.404 392.059 261.386C399.331 249.536 408 232.723 408 219.914C407.989 209.087 405.731 198.382 401.372 188.48C397.013 178.578 390.647 169.696 382.681 162.402C377.637 157.835 373.609 152.252 370.858 146.016C368.107 139.781 366.696 133.034 366.716 126.214L366.72 125.243C366.721 116.264 365.629 107.319 363.467 98.6067L363.247 97.7269L362.346 97.7586C356.533 97.9572 350.718 97.4679 345.02 96.3008C350.365 95.6424 355.594 94.2457 360.558 92.1503L361.528 91.7564L361.199 90.7585C338.515 76.6535 287.311 83.9578 257.59 15.6689C233.491 -39.7041 148.46 64.8236 148.46 125.243C148.46 131.408 154.536 139.555 149.988 143.63C100.823 187.679 134.746 215.965 145.441 244.427C147.979 251.18 142.477 258.593 142.477 265.899C142.477 267.139 142.508 268.419 142.57 269.702L142.665 271.677L144.304 270.581C147.547 268.448 150.553 265.971 153.271 263.195C150.452 269.711 149.123 276.779 149.383 283.879C149.642 290.979 151.484 297.93 154.772 304.22C159.924 313.986 164.909 320.978 169.587 325C184.573 337.879 203.893 344.523 223.595 343.572C243.297 342.621 261.893 334.148 275.581 319.885Z" fill="#3ABB75"/>
<path d="M193.27 466.585C192.935 466.584 192.611 466.462 192.358 466.242C192.105 466.021 191.94 465.716 191.893 465.383C191.833 464.966 186.039 422.994 191.243 367.211C196.049 315.695 211.485 241.493 257.722 180.552C257.833 180.406 257.971 180.283 258.13 180.19C258.288 180.098 258.462 180.037 258.644 180.013C258.825 179.988 259.01 179.999 259.187 180.046C259.364 180.093 259.53 180.175 259.675 180.286C259.821 180.398 259.943 180.537 260.035 180.696C260.127 180.855 260.187 181.03 260.211 181.212C260.236 181.394 260.224 181.58 260.177 181.757C260.13 181.935 260.049 182.102 259.938 182.248C214.099 242.662 198.789 316.319 194.016 367.472C188.842 422.93 194.591 464.575 194.65 464.989C194.678 465.187 194.663 465.39 194.607 465.582C194.55 465.774 194.453 465.952 194.322 466.103C194.191 466.254 194.03 466.376 193.848 466.459C193.666 466.542 193.469 466.585 193.27 466.585Z" fill="black"/>
<path d="M231.002 266.737C230.708 266.737 230.422 266.644 230.184 266.47C229.945 266.297 229.768 266.052 229.677 265.771C229.586 265.49 229.586 265.188 229.677 264.907C229.768 264.626 229.945 264.381 230.183 264.207C230.351 264.085 247.266 251.845 272.553 242.546C295.93 233.951 331.478 226.159 368.074 237.856C368.248 237.912 368.41 238.001 368.55 238.12C368.69 238.238 368.806 238.383 368.89 238.546C368.974 238.709 369.025 238.888 369.041 239.071C369.056 239.254 369.036 239.438 368.98 239.614C368.925 239.789 368.835 239.951 368.717 240.092C368.599 240.232 368.455 240.348 368.292 240.432C368.129 240.516 367.952 240.568 367.769 240.583C367.587 240.598 367.403 240.577 367.229 240.521C331.383 229.065 296.48 236.728 273.511 245.173C248.584 254.339 231.985 266.35 231.82 266.47C231.583 266.644 231.296 266.737 231.002 266.737Z" fill="black"/>
<path d="M167.004 156.958C166.982 156.77 167.054 156.582 167.209 156.422C167.365 156.262 167.595 156.137 167.867 156.066C168.14 155.995 168.44 155.981 168.726 156.026C169.012 156.071 169.268 156.173 169.457 156.317C169.591 156.419 182.966 166.677 194.023 182.426C204.243 196.985 214.542 219.367 205.56 243.316C205.474 243.546 205.248 243.745 204.934 243.869C204.619 243.992 204.24 244.031 203.881 243.975C203.522 243.92 203.212 243.775 203.019 243.573C202.826 243.371 202.766 243.128 202.853 242.898C211.65 219.44 201.525 197.464 191.483 183.16C180.584 167.635 167.459 157.569 167.328 157.469C167.138 157.325 167.025 157.146 167.004 156.958Z" fill="black"/>
<path d="M169.153 179.432C167.978 188.952 161.409 196.801 151.857 196.801C147.27 196.801 142.871 194.971 139.628 191.714C136.384 188.457 134.562 184.039 134.562 179.432C134.562 169.84 142.347 162.95 151.857 162.064C161.949 161.122 170.661 167.21 169.153 179.432Z" fill="#2F2E41"/>
<path d="M143.847 459.16L137.261 459.159L134.128 433.647L143.849 433.648L143.847 459.16Z" fill="#FFB6B6"/>
<path d="M144.079 466.06L123.826 466.059V465.802C123.826 463.702 124.656 461.688 126.135 460.204C127.613 458.719 129.618 457.885 131.709 457.885H131.709L135.409 455.066L142.311 457.885L144.079 457.885L144.079 466.06Z" fill="#2F2E41"/>
<path d="M169.79 459.16L163.204 459.159L160.07 433.647L169.791 433.648L169.79 459.16Z" fill="#FFB6B6"/>
<path d="M170.021 466.06L149.768 466.059V465.802C149.768 463.702 150.599 461.688 152.077 460.204C153.555 458.719 155.56 457.885 157.651 457.885H157.652L161.351 455.066L168.254 457.885L170.021 457.885L170.021 466.06Z" fill="#2F2E41"/>
<path d="M121.183 299.371L116.526 315.404L122.012 383.307C122.012 383.307 119.187 387.552 121.183 387.552C123.178 387.552 125.737 388.494 124.125 391.029C122.513 393.564 128.023 402.667 128.023 402.667L135.817 451.016L145.748 450.868C145.748 450.868 150.797 448.044 147.963 445.187C145.13 442.331 143.134 442.331 145.795 439.659C148.456 436.987 148.456 437.792 148.456 435.719C148.456 433.647 151.122 408.319 144.8 398.604L146.705 358.992L151.191 397.846L160.429 449.679L169.996 449.6C169.996 449.6 174.415 445.323 174.407 442.157C174.398 438.991 171.676 438.728 173.703 436.855C175.729 434.983 175.729 406.215 169.742 390.224C169.742 390.224 166.355 381.29 169.75 378.229C173.144 375.167 169.754 371.664 169.754 371.664C169.754 371.664 164.378 369.712 169.759 364.089C175.14 358.466 169.788 318.697 169.788 318.697C169.788 318.697 175.67 302.644 169.713 296.331C163.755 290.019 121.183 299.371 121.183 299.371Z" fill="#2F2E41"/>
<path d="M204.116 326.994L195.808 306.832L189.262 310.483L193.215 330.994C192.819 332.294 192.792 333.678 193.137 334.992C193.482 336.306 194.185 337.498 195.167 338.433C196.149 339.368 197.371 340.009 198.696 340.284C200.021 340.56 201.396 340.459 202.667 339.993C203.938 339.526 205.054 338.713 205.89 337.644C206.726 336.576 207.249 335.294 207.399 333.944C207.55 332.594 207.322 331.228 206.742 330C206.162 328.772 205.252 327.731 204.116 326.994Z" fill="#FFB6B6"/>
<path d="M64.7082 167.554L77.3491 185.302L82.9004 180.256L74.4227 161.178C74.5151 159.822 74.2291 158.467 73.5969 157.266C72.9647 156.064 72.0113 155.064 70.844 154.377C69.6766 153.69 68.3415 153.343 66.9887 153.376C65.636 153.409 64.3193 153.821 63.1867 154.564C62.054 155.308 61.1503 156.354 60.5771 157.585C60.0039 158.815 59.784 160.183 59.9421 161.532C60.1002 162.882 60.63 164.16 61.472 165.224C62.3139 166.288 63.4347 167.095 64.7082 167.554Z" fill="#FFB6B6"/>
<path d="M119.928 301.015C111.729 313.787 152.943 329.995 168.757 323.488C171.526 322.349 181.051 318.585 174.54 313.368C168.029 308.15 175.295 307.416 175.467 304.019C175.582 301.748 173.831 296.767 175.658 296.981C177.484 297.194 179.622 294.054 175.644 292.703C171.666 291.351 175.601 290.119 175.566 288.836C175.186 274.837 164.491 252.57 164.491 252.57L183.762 302.043C183.762 302.043 183.62 310.602 186.078 307.987C188.535 305.371 188.356 313.836 188.356 313.836C188.356 313.836 192.011 316.398 189.909 317.823C187.808 319.248 192.172 323.631 192.172 323.631L202.354 322.9C202.354 322.9 202.194 315.304 200.456 313.624C198.717 311.945 199.571 309.301 199.571 309.301C199.571 309.301 195.045 305.277 198.079 302.01C201.982 297.808 187.753 226.836 182.842 227.539C182.148 224.146 180.533 221.011 178.175 218.482C175.818 215.953 172.81 214.128 169.485 213.208L158.488 210.168L156.535 202.387H141.05L138.353 207.499L126.58 212.835C124.363 209.693 122.706 206.382 113.625 205.308C113.625 205.308 89.1576 182.951 90.3522 181.206C91.5469 179.46 87.754 175.373 87.754 175.373C87.754 175.373 84.5148 174.308 86.3426 173.74C88.1704 173.171 84.7155 171.857 84.7155 171.857C84.7155 171.857 81.5158 171.013 83.0249 169.901C84.534 168.789 77.9885 168.059 77.9885 168.059L69.4959 175.017L71.2124 177.94C71.2124 177.94 70.1658 181.92 71.5317 180.467C72.8975 179.014 73.1547 183.231 73.1547 183.231C73.1547 183.231 73.8522 187.849 77.9885 189.24C82.1248 190.631 85.2612 203.847 85.2612 203.847C95.0162 216.585 106.528 226.522 120.171 233.063C114.854 239.192 119.928 301.015 119.928 301.015Z" fill="#FFCC33"/>
<path d="M149.946 197.833C141.476 197.833 134.609 190.937 134.609 182.431C134.609 173.925 141.476 167.029 149.946 167.029C158.416 167.029 165.282 173.925 165.282 182.431C165.282 190.937 158.416 197.833 149.946 197.833Z" fill="#FFB6B6"/>
<path d="M165.827 184.109C165.341 187.456 162.501 192.126 163.166 192.126C163.832 192.126 168.561 178.328 163.832 177.429C160.401 176.776 159.634 177.349 156.428 175.952L156.88 176.38C154.758 177.93 151.805 176.975 149.383 175.966C146.955 174.964 144.009 174.008 141.88 175.552C140.543 176.52 139.978 178.204 139.146 179.633C138.315 181.07 136.778 182.426 135.195 181.985C133.924 181.631 133.193 180.201 133.199 178.878C133.206 177.556 134.921 176.297 134.343 175.111C132.632 171.594 134.171 169.197 137.902 167.542C139.259 167.335 140.616 167.123 141.973 166.907C141.262 165.918 140.4 165.048 139.419 164.329C139.833 163.261 140.55 162.339 141.481 161.677C142.565 161.029 143.909 161.075 145.166 161.142C147.973 161.289 150.778 161.436 153.581 161.583C155.656 161.69 157.805 161.817 159.661 162.772C161.976 163.968 163.492 166.299 164.596 168.671C167.071 174.002 166.679 178.291 165.827 184.109Z" fill="#2F2E41"/>
<path d="M284.179 398.459C283.901 396.539 285.902 394.658 288.65 394.257C291.397 393.855 293.849 395.086 294.127 397.005C294.405 398.924 292.404 400.805 289.657 401.207C286.909 401.608 284.457 400.378 284.179 398.459Z" fill="#E6E6E6"/>
<path d="M251.47 395.253C251.192 393.334 253.193 391.453 255.941 391.051C258.688 390.65 261.14 391.881 261.418 393.8C261.696 395.719 259.695 397.6 256.948 398.002C254.2 398.403 251.748 397.173 251.47 395.253Z" fill="#3F3D56"/>
<path d="M293.135 371.865C292.857 369.946 294.858 368.065 297.606 367.663C300.353 367.262 302.805 368.492 303.083 370.412C303.362 372.331 301.36 374.212 298.613 374.614C295.865 375.015 293.413 373.785 293.135 371.865Z" fill="#6C63FF"/>
<path d="M307.348 360.972C307.335 359.21 308.314 357.774 309.534 357.765C310.755 357.756 311.755 359.177 311.768 360.939C311.781 362.701 310.803 364.136 309.582 364.146C308.362 364.155 307.361 362.734 307.348 360.972Z" fill="#E6E6E6"/>
<path d="M312.167 340.683C312.154 338.921 313.133 337.485 314.353 337.476C315.574 337.467 316.574 338.888 316.587 340.65C316.601 342.411 315.622 343.847 314.401 343.857C313.181 343.866 312.181 342.445 312.167 340.683Z" fill="#3F3D56"/>
<path d="M274.687 376.391C274.674 374.629 275.652 373.193 276.873 373.183C278.093 373.174 279.094 374.595 279.107 376.357C279.12 378.119 278.141 379.555 276.921 379.564C275.7 379.573 274.7 378.153 274.687 376.391Z" fill="#E6E6E6"/>
<path d="M290.494 384.316C290.48 382.554 291.459 381.119 292.68 381.109C293.9 381.1 294.9 382.521 294.913 384.283C294.927 386.045 293.948 387.481 292.728 387.49C291.507 387.499 290.507 386.078 290.494 384.316Z" fill="#6C63FF"/>
<path d="M268.491 398.965C268.477 397.203 269.456 395.767 270.677 395.758C271.897 395.748 272.897 397.169 272.911 398.931C272.924 400.693 271.945 402.129 270.725 402.138C269.504 402.148 268.504 400.727 268.491 398.965Z" fill="#3F3D56"/>
<path d="M32.7345 295.581C32.4564 293.662 34.458 291.781 37.2053 291.379C39.9525 290.978 42.405 292.208 42.683 294.127C42.9611 296.047 40.9594 297.928 38.2122 298.329C35.465 298.731 33.0125 297.5 32.7345 295.581Z" fill="#E6E6E6"/>
<path d="M0.025483 292.376C-0.252577 290.456 1.7491 288.575 4.49633 288.174C7.24355 287.772 9.69601 289.003 9.97407 290.922C10.2521 292.841 8.25049 294.722 5.50327 295.124C2.75604 295.525 0.303543 294.295 0.025483 292.376Z" fill="#3F3D56"/>
<path d="M41.6915 268.988C41.4135 267.069 43.4151 265.187 46.1623 264.786C48.9095 264.384 51.362 265.615 51.6401 267.534C51.9181 269.453 49.9165 271.335 47.1693 271.736C44.422 272.138 41.9696 270.907 41.6915 268.988Z" fill="#6C63FF"/>
<path d="M55.9038 258.095C55.8905 256.333 56.8692 254.897 58.0897 254.888C59.3102 254.878 60.3104 256.299 60.3236 258.061C60.3369 259.823 59.3582 261.259 58.1377 261.268C56.9172 261.278 55.917 259.857 55.9038 258.095Z" fill="#E6E6E6"/>
<path d="M60.7241 237.806C60.7108 236.044 61.6895 234.608 62.91 234.599C64.1305 234.589 65.1307 236.01 65.1439 237.772C65.1572 239.534 64.1786 240.97 62.9581 240.979C61.7375 240.988 60.7374 239.568 60.7241 237.806Z" fill="#3F3D56"/>
<path d="M23.2427 273.513C23.2294 271.751 24.2081 270.315 25.4286 270.306C26.6491 270.297 27.6492 271.718 27.6625 273.48C27.6758 275.242 26.6971 276.677 25.4766 276.687C24.2561 276.696 23.256 275.275 23.2427 273.513Z" fill="#E6E6E6"/>
<path d="M39.0493 281.439C39.036 279.677 40.0147 278.241 41.2352 278.232C42.4557 278.223 43.4559 279.643 43.4691 281.405C43.4824 283.167 42.5038 284.603 41.2833 284.612C40.0628 284.622 39.0626 283.201 39.0493 281.439Z" fill="#6C63FF"/>
<path d="M17.0464 296.087C17.0331 294.325 18.0118 292.89 19.2323 292.88C20.4528 292.871 21.4529 294.292 21.4662 296.054C21.4795 297.816 20.5008 299.252 19.2803 299.261C18.0598 299.27 17.0596 297.849 17.0464 296.087Z" fill="#3F3D56"/>
<path d="M154.465 105.191C154.187 103.272 156.189 101.39 158.936 100.989C161.683 100.588 164.135 101.818 164.414 103.737C164.692 105.657 162.69 107.538 159.943 107.939C157.195 108.341 154.743 107.11 154.465 105.191Z" fill="white"/>
<path d="M121.757 101.985C121.479 100.066 123.481 98.1848 126.228 97.7834C128.975 97.382 131.427 98.6124 131.706 100.532C131.984 102.451 129.982 104.332 127.235 104.734C124.487 105.135 122.035 103.905 121.757 101.985Z" fill="#3F3D56"/>
<path d="M163.422 78.5976C163.144 76.6784 165.146 74.7971 167.893 74.3957C170.64 73.9943 173.092 75.2247 173.371 77.144C173.649 79.0632 171.647 80.9446 168.9 81.346C166.153 81.7474 163.7 80.5169 163.422 78.5976Z" fill="#6C63FF"/>
<path d="M177.634 67.7046C177.621 65.9426 178.6 64.5067 179.82 64.4975C181.041 64.4882 182.041 65.909 182.054 67.671C182.067 69.433 181.089 70.8688 179.868 70.8781C178.648 70.8874 177.648 69.4665 177.634 67.7046Z" fill="#E6E6E6"/>
<path d="M182.455 47.415C182.441 45.653 183.42 44.2172 184.64 44.2079C185.861 44.1986 186.861 45.6195 186.874 47.3815C186.888 49.1434 185.909 50.5793 184.689 50.5886C183.468 50.5978 182.468 49.177 182.455 47.415Z" fill="#3F3D56"/>
<path d="M144.974 83.123C144.961 81.3611 145.94 79.9252 147.16 79.9159C148.381 79.9066 149.381 81.3275 149.394 83.0895C149.407 84.8514 148.429 86.2873 147.208 86.2966C145.988 86.3058 144.987 84.885 144.974 83.123Z" fill="#E6E6E6"/>
<path d="M160.781 91.0488C160.767 89.2868 161.746 87.851 162.967 87.8417C164.187 87.8325 165.187 89.2533 165.201 91.0152C165.214 92.7772 164.235 94.2131 163.015 94.2223C161.794 94.2316 160.794 92.8108 160.781 91.0488Z" fill="#6C63FF"/>
<path d="M138.778 105.697C138.765 103.935 139.743 102.499 140.964 102.49C142.184 102.481 143.184 103.902 143.198 105.664C143.211 107.426 142.232 108.862 141.012 108.871C139.791 108.88 138.791 107.459 138.778 105.697Z" fill="#3F3D56"/>
</g>
<defs>
<clipPath id="clip0_1_1101">
<rect width="408" height="468" fill="white" transform="matrix(-1 0 0 1 408 0)"/>
</clipPath>
</defs>
</svg>
