<svg width="56" height="56" viewBox="0 0 56 56" fill="none" xmlns="http://www.w3.org/2000/svg">
<circle cx="28" cy="28" r="28" fill="#1877F2"/>
<path d="M27.9986 14.0027C20.4331 13.8535 14.1727 19.8531 14 27.4181C14.0197 31.2689 15.7249 34.9181 18.6662 37.4037V41.4167C18.6662 41.7388 18.9274 42 19.2495 42C19.3588 42 19.4659 41.9693 19.5586 41.9114L22.8098 39.8804C24.4662 40.514 26.2252 40.837 27.9986 40.8335C35.5642 40.9826 41.8245 34.9831 41.9973 27.4181C41.8245 19.8531 35.5642 13.8535 27.9986 14.0027Z" fill="white"/>
<path d="M37.2134 23.568C37.0399 23.3354 36.7217 23.2658 36.4668 23.4047L30.4008 26.7118L26.627 23.4758C26.3956 23.2774 26.0504 23.2906 25.8349 23.5062L18.8356 30.5055C18.6085 30.7339 18.6096 31.1033 18.8381 31.3304C19.0208 31.512 19.301 31.5522 19.5274 31.4294L25.5935 28.1222L29.3707 31.3594C29.6022 31.5578 29.9473 31.5446 30.1628 31.329L37.1621 24.3297C37.3661 24.1238 37.388 23.7994 37.2134 23.568Z" fill="#1877F2"/>
</svg>
