<svg width="56" height="56" viewBox="0 0 56 56" fill="none" xmlns="http://www.w3.org/2000/svg">
<circle cx="28" cy="28" r="28" fill="#F6F6F6"/>
<path d="M22.8054 39.3765C33.3715 39.3765 39.1507 30.6225 39.1507 23.0312C39.1507 22.7825 39.1507 22.535 39.1339 22.2886C40.2582 21.4754 41.2287 20.4685 42 19.315C40.9516 19.7798 39.8394 20.0845 38.7005 20.2189C39.8998 19.501 40.7973 18.3718 41.2261 17.0414C40.0984 17.7106 38.8647 18.1822 37.5782 18.4358C36.7121 17.5148 35.5666 16.905 34.3189 16.7006C33.0712 16.4963 31.791 16.7088 30.6763 17.3054C29.5616 17.9019 28.6746 18.8493 28.1525 20.0007C27.6305 21.1522 27.5025 22.4436 27.7883 23.6752C25.5044 23.5606 23.27 22.967 21.2304 21.933C19.1907 20.899 17.3912 19.4476 15.9488 17.6731C15.2142 18.9378 14.9892 20.4349 15.3196 21.8596C15.65 23.2843 16.5111 24.5295 17.7274 25.3417C16.8131 25.3149 15.9188 25.0683 15.12 24.6227V24.6955C15.1204 26.0218 15.5795 27.3072 16.4195 28.3336C17.2595 29.36 18.4287 30.0642 19.7288 30.3269C18.8831 30.5575 17.9957 30.5913 17.1349 30.4254C17.5021 31.5668 18.2168 32.5649 19.1791 33.2802C20.1414 33.9955 21.3031 34.3922 22.5019 34.4149C21.3108 35.3511 19.9469 36.0433 18.488 36.4519C17.0292 36.8604 15.5041 36.9774 14 36.796C16.6271 38.4818 19.6839 39.3761 22.8054 39.372" fill="#1DA1F2"/>
</svg>
