<svg width="56" height="56" viewBox="0 0 56 56" fill="none" xmlns="http://www.w3.org/2000/svg">
<circle cx="28" cy="28" r="28" fill="#F6F6F6"/>
<path d="M27.9924 13.875C20.1953 13.8769 13.8768 20.2022 13.8785 28.0021C13.879 30.5317 14.5585 33.0115 15.8416 35.184L13.9788 40.0196C13.6716 40.8162 14.0677 41.7117 14.8647 42.0195L14.8649 42.0195C15.0417 42.0877 15.23 42.1231 15.4206 42.1232M27.9924 13.875C30.6354 13.8725 33.226 14.6123 35.4694 16.0102C42.0875 20.1342 44.1108 28.8446 39.9893 35.4657C35.9543 41.9479 27.5251 44.025 20.9627 40.24L15.9465 42.0317C15.9457 42.032 15.9448 42.0323 15.944 42.0326C15.7757 42.0932 15.5986 42.1237 15.4206 42.1232M27.9924 13.875C27.9923 13.875 27.9921 13.875 27.992 13.875L27.993 14.875L27.9928 13.875C27.9926 13.875 27.9925 13.875 27.9924 13.875ZM15.4206 42.1232C15.4195 42.1232 15.4184 42.1232 15.4173 42.1232L15.4222 41.1232L15.4238 42.1232C15.4227 42.1232 15.4216 42.1232 15.4206 42.1232Z" fill="#25D366" stroke="#25D366" stroke-width="2"/>
<path d="M34.246 30.2426C34.246 30.2426 32.907 29.5864 32.0685 29.149C31.1197 28.6601 30.0048 29.5755 29.4801 30.0961C28.6635 29.7823 27.9176 29.3086 27.2862 28.7028C26.6806 28.0711 26.2072 27.3249 25.8936 26.5078C26.4139 25.9817 27.3266 24.8672 26.8402 23.918C26.4084 23.078 25.7471 21.7394 25.7471 21.7383C25.6544 21.554 25.4658 21.4377 25.2596 21.4375H24.1665C22.5746 21.7126 21.4172 23.1023 21.4338 24.7185C21.4338 26.4356 23.4877 29.7341 24.8727 31.1209C26.2577 32.5076 29.5545 34.5616 31.2717 34.5616C32.8871 34.5782 34.2761 33.4201 34.551 31.8274V30.7338C34.5512 30.5252 34.4329 30.3348 34.246 30.2426Z" fill="#F6F6F6"/>
</svg>
