<svg width="360" height="248" viewBox="0 0 360 248" fill="none" xmlns="http://www.w3.org/2000/svg">
<mask id="mask0_411_4154" style="mask-type:alpha" maskUnits="userSpaceOnUse" x="0" y="0" width="360" height="248">
<path d="M0 0H348C354.627 0 360 5.37258 360 12V236C360 242.627 354.627 248 348 248H0V0Z" fill="#D9D9D9"/>
</mask>
<g mask="url(#mask0_411_4154)">
<path d="M233 155.112C258.957 155.112 280 153.68 280 151.913C280 150.146 258.957 148.714 233 148.714C207.043 148.714 186 150.146 186 151.913C186 153.68 207.043 155.112 233 155.112Z" fill="#FFBB1F"/>
</g>
<path d="M247.573 219.312L243.253 219.312L241.198 202.604L247.574 202.605L247.573 219.312Z" fill="#FFB6B6"/>
<path d="M248.675 223.511L234.747 223.51V223.334C234.747 221.892 235.318 220.509 236.335 219.49C237.352 218.47 238.731 217.898 240.168 217.897H240.169L242.713 215.962L247.46 217.898L248.675 217.898L248.675 223.511Z" fill="#1B1400"/>
<path d="M227.505 219.312L223.186 219.312L221.131 202.604L227.506 202.605L227.505 219.312Z" fill="#FFB6B6"/>
<path d="M228.607 223.511L214.679 223.51V223.334C214.679 221.892 215.25 220.509 216.267 219.49C217.283 218.47 218.662 217.898 220.1 217.897H220.1L222.644 215.962L227.391 217.898L228.607 217.898L228.607 223.511Z" fill="#1B1400"/>
<path d="M225.636 127.971L253.732 128.675C259.068 131.581 259.149 137.872 257.401 145.341C257.401 145.341 257.991 149.78 256.811 150.963C255.63 152.147 255.04 152.147 255.63 154.219C256.22 156.29 253.102 159.674 253.481 160.054C253.859 160.434 254.745 162.505 254.745 162.505L251.794 179.374C251.794 179.374 249.728 208.672 249.137 209.264C248.547 209.856 247.957 209.264 248.547 210.743C249.137 212.223 249.728 211.631 249.137 212.223C248.615 212.788 248.122 213.381 247.662 213.999H240.527C240.527 213.999 239.989 211.039 239.989 210.743C239.989 210.447 239.399 208.672 239.399 208.376C239.399 208.08 239.92 207.557 239.92 207.557C240.101 206.955 240.222 206.338 240.284 205.712C240.284 205.121 242.055 182.333 242.055 182.333L238.513 152.739L229.955 181.741C229.955 181.741 229.955 207.192 229.365 207.784C228.774 208.376 228.774 208.08 229.069 209.264C229.365 210.447 230.545 210.151 229.66 211.039C228.774 211.927 228.479 210.447 228.774 211.927L229.069 213.407L220.216 213.534C220.216 213.534 219.035 211.039 219.626 210.151C220.216 209.264 220.181 209.506 219.46 208.053C218.74 206.6 218.445 206.304 218.74 206.008C219.035 205.712 219.035 204.138 219.035 204.138L220.511 175.822C220.511 175.822 220.806 145.932 220.806 145.045C220.828 144.588 220.744 144.132 220.561 143.713V142.508L221.692 138.238L225.636 127.971Z" fill="#1B1400"/>
<path d="M242.514 69.3851C247.335 69.3851 251.244 65.4658 251.244 60.631C251.244 55.7963 247.335 51.877 242.514 51.877C237.693 51.877 233.784 55.7963 233.784 60.631C233.784 65.4658 237.693 69.3851 242.514 69.3851Z" fill="#FFB6B6"/>
<path d="M238.149 75.1708C236.268 76.292 235.143 78.352 234.497 80.4483C233.301 84.3294 232.582 88.342 232.354 92.3976L231.672 104.539L223.224 130.392C230.545 136.605 258.067 131.804 258.067 131.804C258.067 131.804 258.911 131.522 258.067 130.675C257.222 129.828 256.399 130.578 257.244 129.731C258.089 128.884 257.507 129.828 257.225 128.98C256.943 128.133 257.225 128.698 257.507 128.416C257.788 128.133 255.326 125.592 255.326 125.592L257.579 110.752L260.395 80.8185C257.016 76.5827 250.22 74.0857 250.22 74.0857L248.464 70.916L239.684 71.6204L238.149 75.1708Z" fill="#F6F6F6"/>
<path d="M236.951 55.494C237.289 55.4966 237.625 55.5408 237.952 55.6257C238.597 55.7811 239.251 55.8912 239.911 55.9552C241.932 56.1458 243.831 57.0101 245.305 58.41C246.778 59.8098 247.742 61.6645 248.041 63.6778C248.548 63.2343 249.703 62.4185 250.649 63.1767C250.663 63.1887 250.671 63.1949 250.705 63.1791C251.333 62.8802 252.448 59.2012 252.482 55.9619C252.5 54.2426 252.23 52.0471 250.843 51.3518L250.77 51.3152L250.751 51.2356C250.659 50.8488 249.623 50.1886 247.825 49.6748C244.555 48.741 239.682 46.922 236.938 49.599C236.73 50.5015 236.055 52.4328 235.372 52.6517C234.616 52.894 233.964 53.1031 233.861 54.0328C233.775 55.3557 233.781 56.6831 233.88 58.0052C234.136 57.1962 234.638 56.4881 235.317 55.9806C235.799 55.6549 236.369 55.4851 236.951 55.494Z" fill="#2F2E41"/>
<path d="M220.703 103.864L234.963 94.7061L227.78 85.1318L220.688 93.8801L198.591 95.2392C198.01 94.663 197.274 94.2689 196.473 94.1049C195.672 93.9409 194.841 94.014 194.081 94.3154C193.322 94.6168 192.665 95.1334 192.193 95.8023C191.721 96.4711 191.453 97.2633 191.422 98.0823C191.391 98.9012 191.598 99.7115 192.018 100.414C192.439 101.117 193.054 101.682 193.789 102.041C194.524 102.399 195.347 102.535 196.158 102.432C196.969 102.33 197.732 101.993 198.355 101.463L220.703 103.864Z" fill="#FFB6B6"/>
<path d="M248.198 81.9231C249.025 86.9458 233.396 96.5371 233.396 96.5371C233.396 95.3582 224.067 104.258 223.646 103.28C222.45 100.502 221.608 93.9198 219.936 92.8663C218.98 92.2639 225.696 86.6042 225.696 86.6042C225.696 86.6042 229.211 83.0529 233.824 78.5733C235.105 77.2826 236.691 76.3379 238.433 75.827C240.176 75.3162 242.02 75.2558 243.792 75.6515C243.792 75.6515 247.37 76.9003 248.198 81.9231Z" fill="#F6F6F6"/>
<path d="M277.59 106.268L268.158 92.165L258.765 99.5685L267.637 106.494L269.46 128.619C268.898 129.214 268.52 129.96 268.374 130.766C268.227 131.572 268.318 132.404 268.634 133.159C268.951 133.915 269.48 134.562 270.157 135.021C270.833 135.48 271.629 135.732 272.446 135.746C273.263 135.76 274.067 135.535 274.758 135.099C275.45 134.662 276.001 134.034 276.342 133.289C276.684 132.545 276.802 131.717 276.683 130.906C276.563 130.095 276.211 129.337 275.669 128.723L277.59 106.268Z" fill="#FFB6B6"/>
<path d="M255.133 79.1658C260.123 78.2297 270.017 93.6961 270.017 93.6961C268.841 93.7213 277.912 102.885 276.946 103.328C274.201 104.587 267.657 105.57 266.642 107.268C266.062 108.24 260.277 101.627 260.277 101.627C260.277 101.627 256.662 98.1775 252.098 93.6473C250.784 92.3905 249.808 90.8208 249.262 89.0843C248.716 87.3478 248.617 85.501 248.974 83.7157C248.974 83.7157 250.143 80.1019 255.133 79.1658Z" fill="#F6F6F6"/>
<path d="M188.807 96.5771H69.3371C67.4705 96.5793 65.6811 97.3237 64.3612 98.6473C63.0414 99.9708 62.299 101.765 62.2969 103.637V178.226C62.299 180.097 63.0414 181.892 64.3612 183.215C65.6811 184.539 67.4705 185.283 69.3371 185.285H188.807C190.673 185.283 192.463 184.539 193.783 183.215C195.102 181.892 195.845 180.097 195.847 178.226V103.637C195.845 101.765 195.102 99.9708 193.783 98.6472C192.463 97.3237 190.673 96.5792 188.807 96.5771Z" fill="#FFCC33"/>
<path d="M188.807 96.5771H69.3371C67.4705 96.5793 65.6811 97.3237 64.3612 98.6473C63.0414 99.9708 62.299 101.765 62.2969 103.637V178.226C62.299 180.097 63.0414 181.892 64.3612 183.215C65.6811 184.539 67.4705 185.283 69.3371 185.285H188.807C190.673 185.283 192.463 184.539 193.783 183.215C195.102 181.892 195.845 180.097 195.847 178.226V103.637C195.845 101.765 195.102 99.9708 193.783 98.6472C192.463 97.3237 190.673 96.5792 188.807 96.5771ZM191.117 150.155C191.089 157.749 188.093 165.029 182.774 170.433C177.454 175.837 170.234 178.936 162.663 179.064C150.541 179.222 169.37 179.284 154.75 179.284C121.318 179.284 86.457 178.963 73.4501 178.756C71.7388 178.72 70.1091 178.015 68.9089 176.792C67.7088 175.568 67.0333 173.922 67.0267 172.205V103.643C67.0274 103.028 67.2708 102.438 67.7036 102.003C68.1365 101.568 68.7236 101.323 69.3366 101.32H188.802C189.415 101.321 190.002 101.565 190.436 101.999C190.87 102.433 191.115 103.022 191.117 103.636V150.155Z" fill="#1B1400"/>
<path d="M174.101 53.627H83.0772C82.2719 53.6281 81.4865 53.8785 80.8283 54.3439C80.1702 54.8093 79.6713 55.4671 79.3998 56.2274L65.3418 95.7777C65.132 96.3681 65.0666 97.0003 65.1511 97.6212C65.2355 98.2422 65.4674 98.8337 65.8272 99.3461C66.187 99.8586 66.6642 100.277 67.2187 100.566C67.7732 100.855 68.3889 101.006 69.0138 101.007L191.091 101.224H191.096C191.742 101.224 192.378 101.064 192.947 100.757C193.516 100.449 194 100.005 194.356 99.4646C194.711 98.9237 194.928 98.3028 194.985 97.6576C195.042 97.0123 194.939 96.3628 194.685 95.7673L194.472 95.8587L194.685 95.7673L177.689 55.9997C177.388 55.2952 176.888 54.6946 176.25 54.2728C175.612 53.8509 174.865 53.6264 174.101 53.627Z" fill="#1B1400"/>
<path d="M195.001 96.6262C195.001 97.1566 194.893 97.6813 194.685 98.1688L177.69 128.781C177.388 129.484 176.887 130.083 176.249 130.504C175.611 130.925 174.865 131.15 174.101 131.151H83.079C82.2733 131.15 81.4876 130.9 80.8289 130.435C80.1701 129.97 79.6706 129.312 79.3983 128.552L65.3431 98.1583C65.1708 97.674 65.0954 97.1605 65.1211 96.6471C65.1469 96.1336 65.2733 95.6302 65.4931 95.1658C65.7129 94.7013 66.0219 94.2849 66.4023 93.9402C66.7828 93.5956 67.2272 93.3295 67.7102 93.1572C68.1281 93.0059 68.5689 92.9285 69.0132 92.9283L83.9254 92.9001L90.0118 92.8896L170.101 92.7487L176.191 92.7381L191.092 92.71H191.096C192.132 92.7101 193.125 93.1228 193.857 93.8572C194.59 94.5916 195.001 95.5876 195.001 96.6262Z" fill="#1B1400"/>
<path d="M78.2936 152.527C80.0985 152.527 104.885 154.046 104.885 155.856C104.885 157.666 80.0985 159.082 78.2936 159.082C77.4268 159.082 76.5955 158.737 75.9826 158.122C75.3697 157.507 75.0254 156.674 75.0254 155.805C75.0254 154.935 75.3697 154.102 75.9826 153.487C76.5955 152.873 77.4268 152.527 78.2936 152.527Z" fill="#1B1400"/>
<path d="M168.432 29.5664H91.6829C89.6261 29.5688 87.6542 30.3892 86.1997 31.8477C84.7453 33.3061 83.9272 35.2836 83.9248 37.3462V131.151H174.1C174.841 131.153 175.566 130.941 176.19 130.541V37.3462C176.188 35.2836 175.37 33.3062 173.915 31.8477C172.461 30.3892 170.489 29.5688 168.432 29.5664Z" fill="white"/>
<path d="M156.456 123.318H103.655C103.199 123.318 102.761 123.5 102.439 123.824C102.116 124.147 101.935 124.586 101.935 125.044C101.935 125.502 102.116 125.941 102.439 126.264C102.761 126.588 103.199 126.77 103.655 126.77H156.456C156.912 126.77 157.35 126.588 157.673 126.264C157.995 125.941 158.177 125.502 158.177 125.044C158.177 124.586 157.995 124.147 157.673 123.824C157.35 123.5 156.912 123.318 156.456 123.318Z" fill="#E4E4E4"/>
<path d="M156.457 116.492H103.656C103.199 116.492 102.761 116.674 102.438 116.998C102.115 117.322 101.934 117.762 101.934 118.22C101.934 118.678 102.115 119.117 102.438 119.441C102.761 119.765 103.199 119.947 103.656 119.947H156.457C156.913 119.947 157.352 119.765 157.675 119.441C157.998 119.117 158.179 118.678 158.179 118.22C158.179 117.762 157.998 117.322 157.675 116.998C157.352 116.674 156.913 116.492 156.457 116.492Z" fill="#E4E4E4"/>
<path d="M126.544 109.671H103.655C103.199 109.671 102.761 109.853 102.439 110.176C102.116 110.5 101.935 110.939 101.935 111.397C101.935 111.854 102.116 112.293 102.439 112.617C102.761 112.94 103.199 113.122 103.655 113.122H126.544C127 113.122 127.438 112.94 127.76 112.617C128.083 112.293 128.264 111.854 128.264 111.397C128.264 110.939 128.083 110.5 127.76 110.176C127.438 109.853 127 109.671 126.544 109.671Z" fill="#E4E4E4"/>
<path d="M156.457 95.3789H103.656C103.199 95.3789 102.761 95.5609 102.438 95.8849C102.115 96.2088 101.934 96.6482 101.934 97.1064C101.934 97.5645 102.115 98.0039 102.438 98.3279C102.761 98.6518 103.199 98.8338 103.656 98.8338H156.457C156.913 98.8338 157.352 98.6518 157.675 98.3279C157.998 98.0039 158.179 97.5645 158.179 97.1064C158.179 96.6482 157.998 96.2088 157.675 95.8849C157.352 95.5609 156.913 95.3789 156.457 95.3789Z" fill="#E4E4E4"/>
<path d="M156.456 88.5576H103.655C103.199 88.5576 102.761 88.7394 102.439 89.0631C102.116 89.3867 101.935 89.8256 101.935 90.2833C101.935 90.741 102.116 91.1799 102.439 91.5036C102.761 91.8272 103.199 92.009 103.655 92.009H156.456C156.912 92.009 157.35 91.8272 157.673 91.5036C157.995 91.1799 158.177 90.741 158.177 90.2833C158.177 89.8256 157.995 89.3867 157.673 89.0631C157.35 88.7394 156.912 88.5576 156.456 88.5576Z" fill="#E4E4E4"/>
<path d="M126.544 81.7324H103.656C103.199 81.7324 102.761 81.9144 102.438 82.2384C102.115 82.5623 101.934 83.0017 101.934 83.4599C101.934 83.918 102.115 84.3574 102.438 84.6814C102.761 85.0054 103.199 85.1874 103.656 85.1874H126.544C127.001 85.1874 127.439 85.0054 127.762 84.6814C128.086 84.3574 128.267 83.918 128.267 83.4599C128.267 83.0017 128.086 82.5623 127.762 82.2384C127.439 81.9144 127.001 81.7324 126.544 81.7324Z" fill="#E4E4E4"/>
<path d="M156.457 67.4404H103.656C103.199 67.4404 102.761 67.6224 102.438 67.9464C102.115 68.2704 101.934 68.7097 101.934 69.1679C101.934 69.626 102.115 70.0654 102.438 70.3894C102.761 70.7134 103.199 70.8954 103.656 70.8954H156.457C156.913 70.8954 157.352 70.7134 157.675 70.3894C157.998 70.0654 158.179 69.626 158.179 69.1679C158.179 68.7097 157.998 68.2704 157.675 67.9464C157.352 67.6224 156.913 67.4404 156.457 67.4404Z" fill="#FFCC33"/>
<path d="M156.457 60.6182H103.656C103.199 60.6182 102.761 60.8002 102.438 61.1241C102.115 61.4481 101.934 61.8875 101.934 62.3456C101.934 62.8038 102.115 63.2432 102.438 63.5671C102.761 63.8911 103.199 64.0731 103.656 64.0731H156.457C156.913 64.0731 157.352 63.8911 157.675 63.5671C157.998 63.2432 158.179 62.8038 158.179 62.3456C158.179 61.8875 157.998 61.4481 157.675 61.1241C157.352 60.8002 156.913 60.6182 156.457 60.6182Z" fill="#FFCC33"/>
<path d="M126.544 53.793H103.656C103.199 53.793 102.761 53.975 102.438 54.2989C102.115 54.6229 101.934 55.0623 101.934 55.5204C101.934 55.9786 102.115 56.418 102.438 56.7419C102.761 57.0659 103.199 57.2479 103.656 57.2479H126.544C127.001 57.2479 127.439 57.0659 127.762 56.7419C128.086 56.418 128.267 55.9786 128.267 55.5204C128.267 55.0623 128.086 54.6229 127.762 54.2989C127.439 53.975 127.001 53.793 126.544 53.793Z" fill="#FFCC33"/>
<path d="M186.5 29.5C186.5 36.6797 180.68 42.5 173.5 42.5C166.32 42.5 160.5 36.6797 160.5 29.5C160.5 22.3203 166.32 16.5 173.5 16.5C180.68 16.5 186.5 22.3203 186.5 29.5Z" fill="#FFCC33" stroke="black"/>
<path d="M168 29L171.667 33L179 25" stroke="black" stroke-linecap="round" stroke-linejoin="round"/>
</svg>
