<svg width="1083" height="530" viewBox="0 0 1083 530" fill="none" xmlns="http://www.w3.org/2000/svg">
<path d="M343.571 114.133H295.789V304.316H343.571V114.133Z" fill="#F6F6F6"/>
<path d="M335.766 100.497H303.596V180.425H335.766V100.497Z" fill="#F6F6F6"/>
<path d="M328.598 91.8389H310.751V136.167H328.598V91.8389Z" fill="#F6F6F6"/>
<path d="M325.76 114.618H313.602V84.4111H317.978H322.33H325.76V114.618Z" fill="#F6F6F6"/>
<path d="M318.876 101.466H317.552V71.2593H318.037H318.498H318.876V101.466Z" fill="#F6F6F6"/>
<path d="M321.798 91.0228H320.474V60.8159H320.947H321.42H321.798V91.0228Z" fill="#F6F6F6"/>
<path d="M344.837 113.637H294.512V115.659H344.837V113.637Z" fill="#F6F6F6"/>
<path d="M336.924 99.5146H302.412V101.466H336.924V99.5146Z" fill="#F6F6F6"/>
<path d="M329.343 91.0229H309.449V92.5132H329.343V91.0229Z" fill="#F6F6F6"/>
<path d="M308.042 103.737H306.552V112.111H308.042V103.737Z" fill="#E3E3E3"/>
<path d="M312.182 103.737H310.691V112.111H312.182V103.737Z" fill="#E3E3E3"/>
<path d="M316.31 103.737H314.819V112.111H316.31V103.737Z" fill="#E3E3E3"/>
<path d="M320.449 103.737H318.959V112.111H320.449V103.737Z" fill="#E3E3E3"/>
<path d="M324.588 103.737H323.098V112.111H324.588V103.737Z" fill="#E3E3E3"/>
<path d="M328.728 103.737H327.237V112.111H328.728V103.737Z" fill="#E3E3E3"/>
<path d="M332.867 103.737H331.377V112.111H332.867V103.737Z" fill="#E3E3E3"/>
<path d="M303.595 121.714H299.976V131.649H303.595V121.714Z" fill="#E3E3E3"/>
<path d="M310.75 121.714H307.131V131.649H310.75V121.714Z" fill="#E3E3E3"/>
<path d="M317.906 121.714H314.287V131.649H317.906V121.714Z" fill="#E3E3E3"/>
<path d="M325.062 121.714H321.442V131.649H325.062V121.714Z" fill="#E3E3E3"/>
<path d="M332.205 121.714H328.598V131.649H332.205V121.714Z" fill="#E3E3E3"/>
<path d="M339.361 121.714H335.754V131.649H339.361V121.714Z" fill="#E3E3E3"/>
<path d="M303.595 137.196H299.976V147.131H303.595V137.196Z" fill="#E3E3E3"/>
<path d="M310.75 137.196H307.131V147.131H310.75V137.196Z" fill="#E3E3E3"/>
<path d="M317.906 137.196H314.287V147.131H317.906V137.196Z" fill="#E3E3E3"/>
<path d="M325.062 137.196H321.442V147.131H325.062V137.196Z" fill="#E3E3E3"/>
<path d="M332.205 137.196H328.598V147.131H332.205V137.196Z" fill="#E3E3E3"/>
<path d="M339.361 137.196H335.754V147.131H339.361V137.196Z" fill="#E3E3E3"/>
<path d="M303.595 152.69H299.976V162.625H303.595V152.69Z" fill="#E3E3E3"/>
<path d="M310.75 152.69H307.131V162.625H310.75V152.69Z" fill="#E3E3E3"/>
<path d="M317.906 152.69H314.287V162.625H317.906V152.69Z" fill="#E3E3E3"/>
<path d="M325.062 152.69H321.442V162.625H325.062V152.69Z" fill="#E3E3E3"/>
<path d="M332.205 152.69H328.598V162.625H332.205V152.69Z" fill="#E3E3E3"/>
<path d="M339.361 152.69H335.754V162.625H339.361V152.69Z" fill="#E3E3E3"/>
<path d="M303.595 168.172H299.976V178.107H303.595V168.172Z" fill="#E3E3E3"/>
<path d="M310.75 168.172H307.131V178.107H310.75V168.172Z" fill="#E3E3E3"/>
<path d="M317.906 168.172H314.287V178.107H317.906V168.172Z" fill="#E3E3E3"/>
<path d="M325.062 168.172H321.442V178.107H325.062V168.172Z" fill="#E3E3E3"/>
<path d="M332.205 168.172H328.598V178.107H332.205V168.172Z" fill="#E3E3E3"/>
<path d="M339.361 168.172H335.754V178.107H339.361V168.172Z" fill="#E3E3E3"/>
<path d="M303.595 183.654H299.976V193.589H303.595V183.654Z" fill="#E3E3E3"/>
<path d="M310.75 183.654H307.131V193.589H310.75V183.654Z" fill="#E3E3E3"/>
<path d="M317.906 183.654H314.287V193.589H317.906V183.654Z" fill="#E3E3E3"/>
<path d="M325.062 183.654H321.442V193.589H325.062V183.654Z" fill="#E3E3E3"/>
<path d="M332.205 183.654H328.598V193.589H332.205V183.654Z" fill="#E3E3E3"/>
<path d="M339.361 183.654H335.754V193.589H339.361V183.654Z" fill="#E3E3E3"/>
<path d="M303.595 199.147H299.976V209.082H303.595V199.147Z" fill="#B5C3C2"/>
<path d="M310.75 199.147H307.131V209.082H310.75V199.147Z" fill="#B5C3C2"/>
<path d="M317.906 199.147H314.287V209.082H317.906V199.147Z" fill="#B5C3C2"/>
<path d="M325.062 199.147H321.442V209.082H325.062V199.147Z" fill="#E3E3E3"/>
<path d="M332.205 199.147H328.598V209.082H332.205V199.147Z" fill="#E3E3E3"/>
<path d="M339.361 199.147H335.754V209.082H339.361V199.147Z" fill="#E3E3E3"/>
<path d="M303.595 214.629H299.976V224.564H303.595V214.629Z" fill="#B5C3C2"/>
<path opacity="0.29" d="M310.75 214.629H307.131V224.564H310.75V214.629Z" fill="#B5C3C2"/>
<path opacity="0.29" d="M317.906 214.629H314.287V224.564H317.906V214.629Z" fill="#B5C3C2"/>
<path d="M325.062 214.629H321.442V224.564H325.062V214.629Z" fill="#E3E3E3"/>
<path d="M332.205 214.629H328.598V224.564H332.205V214.629Z" fill="#E3E3E3"/>
<path d="M339.361 214.629H335.754V224.564H339.361V214.629Z" fill="#E3E3E3"/>
<path d="M303.595 230.124H299.976V240.058H303.595V230.124Z" fill="#B5C3C2"/>
<path d="M310.75 230.124H307.131V240.058H310.75V230.124Z" fill="#B5C3C2"/>
<path d="M317.906 230.124H314.287V240.058H317.906V230.124Z" fill="#B5C3C2"/>
<path d="M325.062 230.124H321.442V240.058H325.062V230.124Z" fill="#B5C3C2"/>
<path opacity="0.29" d="M332.205 230.124H328.598V240.058H332.205V230.124Z" fill="#B5C3C2"/>
<path d="M339.361 230.124H335.754V240.058H339.361V230.124Z" fill="#B5C3C2"/>
<path d="M303.595 245.605H299.976V255.54H303.595V245.605Z" fill="#B5C3C2"/>
<path opacity="0.29" d="M310.75 245.605H307.131V255.54H310.75V245.605Z" fill="#B5C3C2"/>
<path d="M317.906 245.605H314.287V255.54H317.906V245.605Z" fill="#B5C3C2"/>
<path d="M325.062 245.605H321.442V255.54H325.062V245.605Z" fill="#B5C3C2"/>
<path d="M332.205 245.605H328.598V255.54H332.205V245.605Z" fill="#B5C3C2"/>
<path d="M339.361 245.605H335.754V255.54H339.361V245.605Z" fill="#B5C3C2"/>
<path d="M303.595 261.099H299.976V271.034H303.595V261.099Z" fill="#B5C3C2"/>
<path d="M310.75 261.099H307.131V271.034H310.75V261.099Z" fill="#B5C3C2"/>
<path d="M317.906 261.099H314.287V271.034H317.906V261.099Z" fill="#B5C3C2"/>
<path opacity="0.29" d="M325.062 261.099H321.442V271.034H325.062V261.099Z" fill="#B5C3C2"/>
<path d="M332.205 261.099H328.598V271.034H332.205V261.099Z" fill="#B5C3C2"/>
<path opacity="0.29" d="M339.361 261.099H335.754V271.034H339.361V261.099Z" fill="#B5C3C2"/>
<path opacity="0.29" d="M303.595 276.581H299.976V286.516H303.595V276.581Z" fill="#B5C3C2"/>
<path d="M310.75 276.581H307.131V286.516H310.75V276.581Z" fill="#B5C3C2"/>
<path opacity="0.29" d="M317.906 276.581H314.287V286.516H317.906V276.581Z" fill="#B5C3C2"/>
<path d="M325.062 276.581H321.442V286.516H325.062V276.581Z" fill="#B5C3C2"/>
<path d="M332.205 276.581H328.598V286.516H332.205V276.581Z" fill="#B5C3C2"/>
<path d="M339.361 276.581H335.754V286.516H339.361V276.581Z" fill="#B5C3C2"/>
<path d="M233.828 121.36H157.021V281.572H233.828V121.36Z" fill="#F6F6F6"/>
<path d="M236.004 118.604H154.833V123.134H236.004V118.604Z" fill="#F6F6F6"/>
<path d="M231.249 112.809H159.6V134.334H231.249V112.809Z" fill="#F6F6F6"/>
<path d="M193.461 104.009H165.087V127.522H193.461V104.009Z" fill="#F6F6F6"/>
<path d="M181.503 110.633H165.087V98.2495H176.855L181.503 110.633Z" fill="#F6F6F6"/>
<path d="M173.295 87.9717H171.698V115.541H173.295V87.9717Z" fill="#F6F6F6"/>
<path d="M173.923 86.5522C173.923 87.3446 173.284 87.9833 172.492 87.9833C171.699 87.9833 171.061 87.3446 171.061 86.5522C171.061 85.7598 171.699 85.1211 172.492 85.1211C173.284 85.1211 173.923 85.7598 173.923 86.5522Z" fill="#F6F6F6"/>
<path d="M869.885 293.778H785.805L775.314 58.2139L869.885 77.8471V293.778Z" fill="#F6F6F6"/>
<path d="M503.062 159.242V80.4964H489.874V59.3966H485.167V28.4564H459.206V5.7244H456.9V28.4564H451.814V0H449.508V28.4564H433.103V80.4964H424.623V159.242H417.361V302.695H508.171V159.242H503.062Z" fill="#F6F6F6"/>
<path d="M1054.24 290.856H49.6631V314.748H1054.24V290.856Z" fill="#EDEDED"/>
<path d="M640.991 308.893H596.509L613.836 219.822H640.991V308.893Z" fill="#EDEDED"/>
<path d="M1068.38 312.358H13.625V350.028H1068.38V312.358Z" fill="#EDEDED"/>
<path d="M604.539 144.056V104.589H590.252V89.5561H582.611V76.9364H579.927V55.2925H579.241V76.9364H576.556V89.5561H568.915V104.589H554.734V144.056H551.79V215.718H529.814V297.409H551.79H573.765H607.378V144.056H604.539Z" fill="#EDEDED"/>
<path d="M686.621 189.402H617.49V190.656H620.613V307.556H683.498V190.656H686.621V189.402Z" fill="#EDEDED"/>
<path d="M371.376 218.521H310.075V315.906H371.376V218.521Z" fill="#EDEDED"/>
<path d="M300.838 268.408H195.422V315.895H300.838V268.408Z" fill="#EDEDED"/>
<path d="M275.067 162.317H251.921V278.934H275.067V162.317Z" fill="#EDEDED"/>
<path d="M258.237 131.2H257.03V194.618H258.237V131.2Z" fill="#EDEDED"/>
<path d="M262.152 136.014H260.945V199.432H262.152V136.014Z" fill="#EDEDED"/>
<path d="M267.852 155.103H253.707V170.727H267.852V155.103Z" fill="#EDEDED"/>
<path d="M336.983 235.954H296.711V315.906H336.983V235.954Z" fill="#EDEDED"/>
<path d="M456.9 151.342H381.3V315.895H456.9V151.342Z" fill="#EDEDED"/>
<path d="M449.471 145.688H388.727V173.092H449.471V145.688Z" fill="#EDEDED"/>
<path d="M462.766 154.784H375.445V156.712H462.766V154.784Z" fill="#EDEDED"/>
<path d="M403.227 232.796H367.604V315.894H403.227V232.796Z" fill="#EDEDED"/>
<path d="M153.34 229.638H112.465V315.895H153.34V229.638Z" fill="#EDEDED"/>
<path d="M207.143 206.197H125.688V315.895H207.143V206.197Z" fill="#EDEDED"/>
<path d="M209.236 201.986H120.934V206.197H209.236V201.986Z" fill="#EDEDED"/>
<path d="M165.084 190.561H129.295V212.808H165.084V190.561Z" fill="#EDEDED"/>
<path d="M182.79 190.561H176.782V204.091H182.79V190.561Z" fill="#EDEDED"/>
<path d="M195.422 190.561H188.811V204.091H195.422V190.561Z" fill="#EDEDED"/>
<path d="M132.915 282.53H90.2305V315.895H132.915V282.53Z" fill="#EDEDED"/>
<path d="M94.3222 268.408H74.1094V315.895H94.3222V268.408Z" fill="#EDEDED"/>
<path d="M84.1987 299.218H49.6631V315.895H84.1987V299.218Z" fill="#EDEDED"/>
<path d="M875.076 278.935H449.472V315.907H875.076V278.935Z" fill="#EDEDED"/>
<path d="M841.096 176.593C838.411 176.593 836.223 178.651 835.999 181.276L830.014 181.087C830.026 180.496 830.038 179.916 830.038 179.325C830.038 171.874 828.749 164.612 826.288 157.811L831.291 155.966C832.072 157.776 833.882 159.053 835.987 159.053C838.814 159.053 841.096 156.759 841.096 153.944C841.096 151.129 838.802 148.834 835.987 148.834C833.172 148.834 830.877 151.129 830.877 153.944C830.877 154.464 830.96 154.973 831.102 155.446L826.099 157.291C823.249 149.65 818.896 142.578 813.208 136.463L817.122 132.796C818.045 133.672 819.287 134.216 820.659 134.216C823.485 134.216 825.768 131.921 825.768 129.106C825.768 126.291 823.474 123.997 820.659 123.997C817.844 123.997 815.549 126.291 815.549 129.106C815.549 130.36 815.999 131.507 816.744 132.394L812.829 136.061C812.427 135.635 812.013 135.209 811.599 134.795C805.674 128.87 798.766 124.269 791.256 121.135L793.409 115.895C793.894 116.049 794.414 116.132 794.958 116.132C797.785 116.132 800.067 113.837 800.067 111.022C800.067 108.208 797.773 105.913 794.958 105.913C792.143 105.913 789.849 108.208 789.849 111.022C789.849 113.104 791.091 114.902 792.888 115.694L790.736 120.922C784.006 118.202 776.803 116.64 769.376 116.38L769.612 109.213C769.612 109.213 769.719 109.213 769.778 109.213C772.605 109.213 774.887 106.918 774.887 104.104C774.887 101.289 772.593 98.9941 769.778 98.9941C766.963 98.9941 764.668 101.289 764.668 104.104C764.668 106.682 766.573 108.811 769.056 109.166L768.82 116.368C768.228 116.357 767.649 116.345 767.057 116.345C759.902 116.345 752.936 117.527 746.36 119.81L744.302 113.956C746.159 113.187 747.472 111.365 747.472 109.225C747.472 106.398 745.177 104.115 742.362 104.115C739.547 104.115 737.253 106.41 737.253 109.225C737.253 112.04 739.547 114.334 742.362 114.334C742.847 114.334 743.32 114.263 743.77 114.133L745.828 119.988C737.868 122.826 730.511 127.285 724.172 133.175L720.434 129.189C721.274 128.278 721.783 127.06 721.783 125.736C721.783 122.909 719.488 120.626 716.673 120.626C713.858 120.626 711.564 122.921 711.564 125.736C711.564 128.55 713.858 130.845 716.673 130.845C717.962 130.845 719.133 130.372 720.032 129.579L723.758 133.565C723.332 133.967 722.906 134.381 722.492 134.795C717.217 140.07 712.995 146.114 709.932 152.678L705.177 150.49C705.355 149.982 705.449 149.426 705.449 148.858C705.449 146.031 703.155 143.749 700.34 143.749C697.525 143.749 695.23 146.043 695.23 148.858C695.23 151.673 697.525 153.967 700.34 153.967C702.398 153.967 704.16 152.761 704.976 151.01L709.695 153.187C706.301 160.602 704.385 168.669 704.089 177.03L697.998 176.829C697.927 174.074 695.668 171.862 692.889 171.862C690.109 171.862 687.779 174.156 687.779 176.971C687.779 179.786 690.074 182.081 692.889 182.081C695.704 182.081 697.762 180.023 697.986 177.397L704.077 177.598C704.065 178.19 704.054 178.769 704.054 179.36C704.054 186.812 705.343 194.074 707.803 200.874L702.8 202.719C702.019 200.91 700.21 199.632 698.104 199.632C695.278 199.632 692.995 201.927 692.995 204.742C692.995 207.557 695.29 209.851 698.104 209.851C700.919 209.851 703.214 207.557 703.214 204.742C703.214 204.221 703.131 203.713 702.989 203.24L707.992 201.395C710.842 209.047 715.195 216.108 720.884 222.222L716.969 225.889C716.046 225.014 714.805 224.47 713.433 224.47C710.606 224.47 708.323 226.764 708.323 229.579C708.323 232.394 710.618 234.688 713.433 234.688C716.248 234.688 718.542 232.394 718.542 229.579C718.542 228.325 718.093 227.178 717.347 226.291L721.262 222.625C721.664 223.05 722.078 223.476 722.492 223.89C726.49 227.888 730.925 231.27 735.692 234.014L704.858 290.856H699.323V292.476H696.614V295.705H837.524V292.476H834.816V290.856H829.281L798.447 234.014C802.551 231.649 806.419 228.798 809.967 225.51L814.97 230.845C813.893 231.779 813.219 233.163 813.219 234.7C813.219 237.527 815.514 239.81 818.329 239.81C821.144 239.81 823.438 237.515 823.438 234.7C823.438 231.885 821.144 229.591 818.329 229.591C817.241 229.591 816.247 229.934 815.419 230.502L810.381 225.132C810.807 224.73 811.232 224.316 811.646 223.902C816.921 218.627 821.144 212.583 824.207 206.019L829.778 208.586C829.671 208.988 829.624 209.402 829.624 209.839C829.624 212.666 831.918 214.949 834.733 214.949C837.548 214.949 839.843 212.654 839.843 209.839C839.843 207.024 837.548 204.73 834.733 204.73C832.545 204.73 830.676 206.114 829.943 208.042L824.443 205.499C827.838 198.083 829.754 190.017 830.05 181.655L836.046 181.844C836.117 184.6 838.376 186.823 841.155 186.823C843.935 186.823 846.265 184.529 846.265 181.714C846.265 178.899 843.97 176.605 841.155 176.605L841.096 176.593ZM828.335 179.325C828.335 179.893 828.335 180.46 828.311 181.028L810.665 180.46C810.665 180.082 810.676 179.703 810.676 179.325C810.676 174.121 809.766 169.13 808.086 164.505L824.68 158.391C827.081 165.014 828.335 172.075 828.335 179.325ZM809.813 180.437L770.452 179.159C770.44 178.899 770.393 178.651 770.334 178.414L807.294 164.801C808.938 169.343 809.837 174.227 809.837 179.325C809.837 179.692 809.837 180.058 809.825 180.437H809.813ZM724.219 178.225L763.58 179.502C763.592 179.763 763.639 180.011 763.699 180.248L726.738 193.861C725.094 189.319 724.195 184.434 724.195 179.337C724.195 178.97 724.195 178.603 724.207 178.225H724.219ZM769.707 177.196L798.423 150.277C802.149 154.298 805.118 159.041 807.081 164.269L770.121 177.87C770.002 177.622 769.861 177.397 769.695 177.184L769.707 177.196ZM769.317 176.782C769.092 176.581 768.843 176.404 768.571 176.274L783.533 139.846C789.044 142.164 793.976 145.594 798.033 149.875L769.317 176.794V176.782ZM768.051 176.049C767.85 175.978 767.625 175.942 767.412 175.907L768.69 136.546C773.74 136.735 778.554 137.811 783.012 139.609L768.051 176.037V176.049ZM766.845 175.895C766.608 175.907 766.372 175.942 766.147 176.001L753.054 138.864C757.43 137.35 762.126 136.522 767.022 136.522C767.389 136.522 767.755 136.522 768.134 136.534L766.856 175.895H766.845ZM765.615 176.191C765.354 176.309 765.106 176.463 764.881 176.628L737.962 147.912C742.137 144.056 747.069 141.016 752.51 139.041L765.603 176.179L765.615 176.191ZM764.467 177.019C764.302 177.208 764.148 177.409 764.03 177.634L728.276 161.135C730.559 156.297 733.716 151.945 737.56 148.302L764.479 177.03L764.467 177.019ZM763.781 178.142C763.687 178.391 763.628 178.651 763.592 178.923L724.231 177.646C724.456 171.957 725.78 166.552 728.016 161.631L763.77 178.13L763.781 178.142ZM763.9 180.768C763.994 180.969 764.101 181.158 764.231 181.324L763.994 181.75L735.597 208.361C731.871 204.34 728.903 199.597 726.939 194.369L763.9 180.768V180.768ZM763.131 183.346L745.307 216.202C741.865 214.168 738.731 211.661 735.987 208.787L763.131 183.346V183.346ZM765.07 182.152C765.189 182.234 765.319 182.305 765.449 182.376L750.487 218.804C749.045 218.201 747.649 217.515 746.289 216.758L765.07 182.14V182.152ZM765.969 182.589C766.182 182.66 766.395 182.696 766.608 182.731L765.331 222.092C760.28 221.903 755.467 220.827 751.008 219.029L765.969 182.601V182.589ZM767.01 222.116C766.644 222.116 766.277 222.116 765.898 222.104L767.176 182.743C767.412 182.731 767.649 182.696 767.874 182.637L780.966 219.774C776.59 221.288 771.895 222.116 766.998 222.116H767.01ZM768.418 182.447C768.607 182.365 768.784 182.258 768.95 182.152L787.732 216.77C785.745 217.87 783.663 218.816 781.51 219.597L768.418 182.447V182.447ZM771.575 184.6L796.058 210.726C793.823 212.796 791.363 214.629 788.713 216.191L771.575 184.6ZM770.499 182.625L769.79 181.324C769.861 181.217 769.932 181.111 769.991 181.004L805.744 197.504C803.462 202.341 800.304 206.693 796.46 210.336L770.487 182.625H770.499ZM770.239 180.484C770.334 180.236 770.393 179.975 770.428 179.703L809.789 180.981C809.565 186.67 808.24 192.075 806.005 196.995L770.251 180.496L770.239 180.484ZM750.156 219.585L743.438 235.942C741.392 235.091 739.394 234.121 737.442 233.044L745.875 217.492C747.259 218.26 748.69 218.958 750.156 219.573V219.585ZM750.677 219.798C755.218 221.643 760.15 222.731 765.295 222.932L764.716 240.578C757.489 240.318 750.487 238.804 743.947 236.155L750.665 219.798H750.677ZM765.863 222.956C766.241 222.956 766.62 222.968 766.998 222.968C771.989 222.968 776.779 222.128 781.238 220.578L787.117 237.255C780.73 239.467 773.953 240.614 766.987 240.614C766.419 240.614 765.851 240.614 765.283 240.59L765.851 222.944L765.863 222.956ZM781.782 220.389C783.982 219.597 786.111 218.627 788.134 217.503L796.567 233.056C793.704 234.629 790.736 235.978 787.661 237.066L781.782 220.389V220.389ZM824.467 157.847L807.873 163.961C805.863 158.627 802.835 153.79 799.038 149.686L811.942 137.598C817.477 143.547 821.7 150.419 824.479 157.858L824.467 157.847ZM810.357 135.954C810.759 136.356 811.161 136.77 811.552 137.184L798.648 149.272C794.509 144.908 789.47 141.407 783.852 139.041L790.57 122.684C797.879 125.724 804.597 130.206 810.357 135.966V135.954ZM790.038 122.459L783.32 138.817C778.778 136.983 773.846 135.883 768.701 135.682L769.269 118.036C776.496 118.296 783.497 119.81 790.038 122.459ZM766.998 118.001C767.566 118.001 768.134 118.001 768.701 118.024L768.122 135.671C767.743 135.671 767.365 135.659 766.987 135.659C761.995 135.659 757.205 136.498 752.735 138.048L746.857 121.371C753.243 119.16 760.02 118.012 766.987 118.012L766.998 118.001ZM746.336 121.549L752.214 138.225C746.655 140.236 741.617 143.335 737.359 147.273L725.272 134.37C731.434 128.633 738.589 124.305 746.324 121.537L746.336 121.549ZM723.64 135.954C724.042 135.552 724.456 135.15 724.87 134.76L736.957 147.663C733.042 151.377 729.813 155.824 727.483 160.756L711.422 153.34C714.402 146.966 718.518 141.087 723.64 135.954V135.954ZM711.174 153.861L727.235 161.277C724.952 166.291 723.592 171.815 723.368 177.61L705.721 177.03C706.017 168.905 707.886 161.064 711.174 153.849V153.861ZM705.674 179.313C705.674 178.745 705.674 178.178 705.698 177.61L723.344 178.178C723.344 178.556 723.332 178.935 723.332 179.313C723.332 184.517 724.243 189.508 725.922 194.133L709.329 200.247C706.928 193.624 705.674 186.563 705.674 179.313ZM709.518 200.78L726.111 194.665C728.122 199.999 731.15 204.836 734.946 208.94L722.043 221.028C716.508 215.079 712.285 208.207 709.506 200.768L709.518 200.78ZM723.628 222.672C723.226 222.27 722.823 221.856 722.433 221.442L735.337 209.354C738.14 212.299 741.345 214.866 744.869 216.936L736.425 232.489C731.8 229.827 727.495 226.528 723.628 222.66V222.672ZM827.897 290.844H706.064L736.602 234.558C738.601 235.658 740.659 236.652 742.764 237.527L740.612 242.766C740.127 242.613 739.606 242.53 739.062 242.53C736.236 242.53 733.953 244.824 733.953 247.639C733.953 250.454 736.247 252.749 739.062 252.749C741.877 252.749 744.172 250.454 744.172 247.639C744.172 245.558 742.93 243.76 741.132 242.968L743.285 237.74C750.014 240.46 757.217 242.021 764.645 242.282L764.467 247.639C761.7 247.698 759.476 249.969 759.476 252.749C759.476 255.528 761.771 257.858 764.586 257.858C767.4 257.858 769.695 255.564 769.695 252.749C769.695 250.076 767.649 247.888 765.035 247.651L765.212 242.282C765.804 242.293 766.383 242.305 766.975 242.305C774.13 242.305 781.096 241.122 787.661 238.84L789.494 244.056C787.755 244.872 786.549 246.634 786.549 248.692C786.549 251.519 788.843 253.801 791.658 253.801C794.473 253.801 796.768 251.507 796.768 248.692C796.768 245.877 794.473 243.583 791.658 243.583C791.079 243.583 790.535 243.677 790.014 243.855L788.181 238.662C791.339 237.539 794.39 236.155 797.335 234.535L827.873 290.821L827.897 290.844ZM797.536 232.5L789.092 216.948C791.8 215.351 794.319 213.47 796.614 211.353L808.701 224.257C805.26 227.45 801.522 230.218 797.536 232.512V232.5ZM810.333 222.672C809.931 223.074 809.517 223.476 809.103 223.866L797.016 210.963C800.931 207.249 804.16 202.802 806.49 197.87L822.551 205.286C819.571 211.661 815.455 217.539 810.333 222.672V222.672ZM822.799 204.765L806.738 197.35C809.021 192.335 810.381 186.812 810.605 181.016L828.252 181.584C827.956 189.709 826.087 197.551 822.799 204.765V204.765Z" fill="#EDEDED"/>
<path d="M919.168 219.597H853.444V315.895H919.168V219.597Z" fill="#EDEDED"/>
<path d="M975.265 257.042H909.541V315.35H975.265V257.042Z" fill="#EDEDED"/>
<path d="M691.541 248.479H654.676V297.42H691.541V248.479Z" fill="#95A9A7"/>
<path d="M932.782 128.03H886.301V315.906H932.782V128.03Z" fill="#EDEDED"/>
<path d="M1009.33 315.895H948.015V206.197H994.496L1009.33 315.895Z" fill="#EDEDED"/>
<path d="M922.373 88.7754H920.765V139.834H922.373V88.7754Z" fill="#EDEDED"/>
<path d="M927.778 99.7275H926.17V150.786H927.778V99.7275Z" fill="#EDEDED"/>
<path d="M917.465 106.777H915.856V157.835H917.465V106.777Z" fill="#EDEDED"/>
<path d="M972.356 197.326H950.416V214.606H972.356V197.326Z" fill="#EDEDED"/>
<path d="M969.967 191.164H952.829V200.874H969.967V191.164Z" fill="#EDEDED"/>
<path d="M985.283 202.388H981.072V209.366H985.283V202.388Z" fill="#EDEDED"/>
<path d="M992.781 196.025H986.772V209.367H992.781V196.025Z" fill="#EDEDED"/>
<path d="M710.215 170.407H654.485V350.04H710.215V170.407Z" fill="#E3E3E3"/>
<path d="M714.379 171.472H650.322V173.293H714.379V171.472Z" fill="#E3E3E3"/>
<path d="M712.653 196.699H652.062V198.509H712.653V196.699Z" fill="#E3E3E3"/>
<path d="M712.653 221.134H652.062V222.944H712.653V221.134Z" fill="#E3E3E3"/>
<path d="M712.653 245.569H652.062V247.379H712.653V245.569Z" fill="#E3E3E3"/>
<path d="M712.653 270.005H652.062V271.814H712.653V270.005Z" fill="#E3E3E3"/>
<path d="M712.653 294.452H652.062V296.261H712.653V294.452Z" fill="#E3E3E3"/>
<path d="M712.653 318.887H652.062V320.696H712.653V318.887Z" fill="#E3E3E3"/>
<path d="M716.496 166.504H648.205V171.472H716.496V166.504Z" fill="#E3E3E3"/>
<path opacity="0.4" d="M665.295 179.195H659.5V193.541H665.295V179.195Z" fill="white"/>
<path d="M678.247 179.195H672.451V193.541H678.247V179.195Z" fill="white" fill-opacity="0.6"/>
<path d="M691.198 179.195H685.402V193.541H691.198V179.195Z" fill="white" fill-opacity="0.6"/>
<path d="M704.148 179.195H698.353V193.541H704.148V179.195Z" fill="white" fill-opacity="0.6"/>
<path d="M665.295 202.648H659.5V216.995H665.295V202.648Z" fill="white" fill-opacity="0.6"/>
<path opacity="0.4" d="M678.247 202.648H672.451V216.995H678.247V202.648Z" fill="white"/>
<path d="M691.198 202.648H685.402V216.995H691.198V202.648Z" fill="white" fill-opacity="0.6"/>
<path d="M704.148 202.648H698.353V216.995H704.148V202.648Z" fill="white" fill-opacity="0.6"/>
<path d="M665.295 227.083H659.5V241.43H665.295V227.083Z" fill="white" fill-opacity="0.6"/>
<path d="M678.247 227.083H672.451V241.43H678.247V227.083Z" fill="white" fill-opacity="0.6"/>
<path d="M691.198 227.083H685.402V241.43H691.198V227.083Z" fill="white" fill-opacity="0.6"/>
<path opacity="0.4" d="M704.148 227.083H698.353V241.43H704.148V227.083Z" fill="white"/>
<path d="M665.295 251.53H659.5V265.877H665.295V251.53Z" fill="white" fill-opacity="0.6"/>
<path opacity="0.4" d="M678.247 251.53H672.451V265.877H678.247V251.53Z" fill="white"/>
<path opacity="0.4" d="M691.198 251.53H685.402V265.877H691.198V251.53Z" fill="white"/>
<path d="M704.148 251.53H698.353V265.877H704.148V251.53Z" fill="white" fill-opacity="0.6"/>
<path opacity="0.4" d="M665.295 275.966H659.5V290.312H665.295V275.966Z" fill="white"/>
<path d="M678.247 275.966H672.451V290.312H678.247V275.966Z" fill="white" fill-opacity="0.6"/>
<path d="M691.198 275.966H685.402V290.312H691.198V275.966Z" fill="white" fill-opacity="0.6"/>
<path d="M704.148 275.966H698.353V290.312H704.148V275.966Z" fill="white" fill-opacity="0.6"/>
<path d="M665.295 300.401H659.5V314.747H665.295V300.401Z" fill="white" fill-opacity="0.6"/>
<path d="M678.247 300.401H672.451V314.747H678.247V300.401Z" fill="white" fill-opacity="0.6"/>
<path opacity="0.4" d="M691.198 300.401H685.402V314.747H691.198V300.401Z" fill="white"/>
<path d="M704.148 300.401H698.353V314.747H704.148V300.401Z" fill="white" fill-opacity="0.6"/>
<path d="M665.295 324.836H659.5V339.182H665.295V324.836Z" fill="white" fill-opacity="0.6"/>
<path opacity="0.4" d="M678.247 324.836H672.451V339.182H678.247V324.836Z" fill="white"/>
<path d="M691.198 324.836H685.402V339.182H691.198V324.836Z" fill="white" fill-opacity="0.6"/>
<path opacity="0.4" d="M704.148 324.836H698.353V339.182H704.148V324.836Z" fill="white"/>
<path d="M676.957 159.656H657.998V168.988H676.957V159.656Z" fill="#E3E3E3"/>
<path d="M678.246 159.396H656.721V160.993H678.246V159.396Z" fill="#E3E3E3"/>
<path d="M574.617 350.04H500.377V179.36L574.617 161.206V350.04Z" fill="#E3E3E3"/>
<path d="M503.629 176.356H497.112V350.04H503.629V176.356Z" fill="#E3E3E3"/>
<path d="M522.198 171.46H515.669V350.028H522.198V171.46Z" fill="#E3E3E3"/>
<path d="M540.743 166.386H534.227V350.04H540.743V166.386Z" fill="#E3E3E3"/>
<path d="M559.312 162.235H552.795V350.028H559.312V162.235Z" fill="#E3E3E3"/>
<path d="M577.869 157.835H571.353V350.04H577.869V157.835Z" fill="#E3E3E3"/>
<path opacity="0.4" d="M513.978 190.928H505.32V204.115H513.978V190.928Z" fill="white"/>
<path opacity="0.4" d="M532.547 190.928H523.89V204.115H532.547V190.928Z" fill="white"/>
<path d="M551.104 190.928H542.446V204.115H551.104V190.928Z" fill="white" fill-opacity="0.6"/>
<path opacity="0.4" d="M569.661 190.928H561.003V204.115H569.661V190.928Z" fill="white"/>
<path d="M513.978 213.896H505.32V227.084H513.978V213.896Z" fill="white" fill-opacity="0.6"/>
<path d="M532.547 213.896H523.89V227.084H532.547V213.896Z" fill="white" fill-opacity="0.6"/>
<path opacity="0.4" d="M551.104 213.896H542.446V227.084H551.104V213.896Z" fill="white"/>
<path opacity="0.4" d="M569.661 213.896H561.003V227.084H569.661V213.896Z" fill="white"/>
<path opacity="0.4" d="M513.978 236.865H505.32V250.052H513.978V236.865Z" fill="white"/>
<path opacity="0.4" d="M532.547 236.865H523.89V250.052H532.547V236.865Z" fill="white"/>
<path opacity="0.4" d="M551.104 236.865H542.446V250.052H551.104V236.865Z" fill="white"/>
<path d="M569.661 236.865H561.003V250.052H569.661V236.865Z" fill="white" fill-opacity="0.6"/>
<path opacity="0.4" d="M513.978 259.833H505.32V273.021H513.978V259.833Z" fill="white"/>
<path d="M532.547 259.833H523.89V273.021H532.547V259.833Z" fill="white" fill-opacity="0.6"/>
<path opacity="0.4" d="M551.104 259.833H542.446V273.021H551.104V259.833Z" fill="white"/>
<path opacity="0.4" d="M569.661 259.833H561.003V273.021H569.661V259.833Z" fill="white"/>
<path opacity="0.4" d="M513.978 282.802H505.32V295.989H513.978V282.802Z" fill="white"/>
<path opacity="0.4" d="M532.547 282.802H523.89V295.989H532.547V282.802Z" fill="white"/>
<path d="M551.104 282.802H542.446V295.989H551.104V282.802Z" fill="white" fill-opacity="0.6"/>
<path opacity="0.4" d="M569.661 282.802H561.003V295.989H569.661V282.802Z" fill="white"/>
<path d="M513.978 305.771H505.32V318.958H513.978V305.771Z" fill="white" fill-opacity="0.6"/>
<path d="M532.547 305.771H523.89V318.958H532.547V305.771Z" fill="white" fill-opacity="0.6"/>
<path opacity="0.4" d="M551.104 305.771H542.446V318.958H551.104V305.771Z" fill="white"/>
<path opacity="0.4" d="M569.661 305.771H561.003V318.958H569.661V305.771Z" fill="white"/>
<path opacity="0.4" d="M513.978 328.739H505.32V341.927H513.978V328.739Z" fill="white"/>
<path d="M532.547 328.739H523.89V341.927H532.547V328.739Z" fill="white" fill-opacity="0.6"/>
<path opacity="0.4" d="M551.104 328.739H542.446V341.927H551.104V328.739Z" fill="white"/>
<path d="M569.661 328.739H561.003V341.927H569.661V328.739Z" fill="white" fill-opacity="0.6"/>
<path d="M288.609 187.533V189.307H286.835V194.358H317.906V350.04H266.93V202.483V194.358V189.307H265.085V187.533H288.609Z" fill="#E3E3E3"/>
<path d="M419.112 258.249H375.445V350.04H419.112V258.249Z" fill="#E3E3E3"/>
<path d="M220.638 237.208H185.145V350.04H220.638V237.208Z" fill="#E3E3E3"/>
<path d="M252.276 260.72H213.601V350.04H252.276V260.72Z" fill="#E3E3E3"/>
<path d="M213.613 232.678H197.918V246.184H213.613V232.678Z" fill="#E3E3E3"/>
<path d="M257.492 259.242H216.262V262.542H257.492V259.242Z" fill="#E3E3E3"/>
<path d="M291.483 299.029H248.124V350.04H291.483V299.029Z" fill="#E3E3E3"/>
<path d="M143.251 257.539H107.982V350.04H143.251V257.539Z" fill="#E3E3E3"/>
<path d="M123.772 303.63H77.374V350.028H123.772V303.63Z" fill="#E3E3E3"/>
<path d="M55.3044 296.048H26.2803V350.04H55.3044V296.048Z" fill="#E3E3E3"/>
<path d="M118.261 333.127H49.6631V350.04H118.261V333.127Z" fill="#E3E3E3"/>
<path d="M35.1625 327.663H0V350.04H35.1625V327.663Z" fill="#E3E3E3"/>
<path d="M197.906 315.895H143.252V350.028H197.906V315.895Z" fill="#E3E3E3"/>
<path d="M388.738 335.327H303.594V350.028H388.738V335.327Z" fill="#E3E3E3"/>
<path d="M539.69 335.327H454.546V350.028H539.69V335.327Z" fill="#E3E3E3"/>
<path d="M385.416 292.157H353.056L339.372 342.683H385.416V292.157Z" fill="#E3E3E3"/>
<path d="M401.276 218.627H400.377V274.676H401.276V218.627Z" fill="#E3E3E3"/>
<path d="M406.089 237.598H404.883V270.679H406.089V237.598Z" fill="#E3E3E3"/>
<path d="M414.806 243.464H398.438V259.833H414.806V243.464Z" fill="#E3E3E3"/>
<path d="M417.349 242.187H395.67V243.654H417.349V242.187Z" fill="#E3E3E3"/>
<path d="M464.066 302.695H411.163V350.04H464.066V302.695Z" fill="#E3E3E3"/>
<path d="M487.946 250.573H453.954V341.915H487.946V250.573Z" fill="#E3E3E3"/>
<path d="M640.99 267.746H586.691V350.028H640.99V267.746Z" fill="#E3E3E3"/>
<path d="M631.576 319.715H569.66V350.04H631.576V319.715Z" fill="#E3E3E3"/>
<path d="M678.246 339.183H637.986V350.04H678.246V339.183Z" fill="#E3E3E3"/>
<path d="M765.449 319.715H699.997V350.04H765.449V319.715Z" fill="#E3E3E3"/>
<path d="M726.064 350.04H807.519V240.342H726.064V350.04Z" fill="#E3E3E3"/>
<path d="M723.971 240.342H812.273V236.131H723.971V240.342Z" fill="#E3E3E3"/>
<path d="M768.122 246.941H803.911V224.694H768.122V246.941Z" fill="#E3E3E3"/>
<path d="M750.417 238.225H756.425V224.694H750.417V238.225Z" fill="#E3E3E3"/>
<path d="M737.785 238.225H744.396V224.694H737.785V238.225Z" fill="#E3E3E3"/>
<path d="M863.521 350.04H927.991V189.828H863.521V350.04Z" fill="#E3E3E3"/>
<path d="M861.676 191.602H929.812V187.072H861.676V191.602Z" fill="#E3E3E3"/>
<path d="M865.674 202.791H925.815V181.265H865.674V202.791Z" fill="#E3E3E3"/>
<path d="M897.394 195.978H921.214V172.465H897.394V195.978Z" fill="#E3E3E3"/>
<path d="M907.436 179.089H921.214V166.706H911.339L907.436 179.089Z" fill="#E3E3E3"/>
<path d="M914.32 184.009H915.656V156.439H914.32V184.009Z" fill="#E3E3E3"/>
<path d="M913.799 155.008C913.799 155.801 914.331 156.439 914.993 156.439C915.656 156.439 916.188 155.801 916.188 155.008C916.188 154.216 915.656 153.577 914.993 153.577C914.331 153.577 913.799 154.216 913.799 155.008Z" fill="#E3E3E3"/>
<path d="M948.015 283.89H919.156V350.028H948.015V283.89Z" fill="#E3E3E3"/>
<path d="M869.872 251.649H836.969V350.04H869.872V251.649Z" fill="#E3E3E3"/>
<path d="M853.444 350.04H807.093V297.409L846.206 314.747L853.444 350.04Z" fill="#E3E3E3"/>
<path d="M1009.33 321.454H938.541V350.028H1009.33V321.454Z" fill="#E3E3E3"/>
<path d="M1024.3 235.954H983.178V350.04H1024.3V235.954Z" fill="#E3E3E3"/>
<path d="M1082.81 328.739H1014.69V350.04H1082.81V328.739Z" fill="#E3E3E3"/>
<path d="M1026.18 233.861H981.072V237.598H1026.18V233.861Z" fill="#E3E3E3"/>
<path d="M1018.79 217.764H1017.89V240.756H1018.79V217.764Z" fill="#E3E3E3"/>
<path d="M1012.78 220.673H1011.88V239.112H1012.78V220.673Z" fill="#E3E3E3"/>
<path d="M1039.53 278.935H1021.19V331.199H1047.34L1039.53 278.935Z" fill="#E3E3E3"/>
<g opacity="0.52">
<path d="M191.495 242.92H188.811V245.605H191.495V242.92Z" fill="white"/>
<path d="M196.889 242.92H194.204V245.605H196.889V242.92Z" fill="white"/>
<path d="M191.495 249.236H188.811V251.921H191.495V249.236Z" fill="white"/>
<path d="M196.889 249.236H194.204V251.921H196.889V249.236Z" fill="white"/>
<path d="M191.495 255.339H188.811V258.024H191.495V255.339Z" fill="white"/>
<path d="M202.885 242.92H200.2V245.605H202.885V242.92Z" fill="white"/>
</g>
<path opacity="0.5" d="M387.248 162.235H385.415V172.371H387.248V162.235Z" fill="white"/>
<path opacity="0.5" d="M393.564 162.235H391.73V172.371H393.564V162.235Z" fill="white"/>
<path opacity="0.5" d="M399.88 162.235H398.047V172.371H399.88V162.235Z" fill="white"/>
<path opacity="0.5" d="M406.196 162.235H404.362V172.371H406.196V162.235Z" fill="white"/>
<path opacity="0.5" d="M412.512 162.235H410.679V172.371H412.512V162.235Z" fill="white"/>
<path opacity="0.5" d="M418.827 162.235H416.994V172.371H418.827V162.235Z" fill="white"/>
<path opacity="0.5" d="M425.132 162.235H423.299V172.371H425.132V162.235Z" fill="white"/>
<path opacity="0.5" d="M431.447 162.235H429.614V172.371H431.447V162.235Z" fill="white"/>
<path opacity="0.5" d="M437.763 162.235H435.93V172.371H437.763V162.235Z" fill="white"/>
<path opacity="0.5" d="M444.078 162.235H442.245V172.371H444.078V162.235Z" fill="white"/>
<path opacity="0.5" d="M450.395 162.235H448.562V172.371H450.395V162.235Z" fill="white"/>
<path opacity="0.5" d="M387.248 176.356H385.415V186.492H387.248V176.356Z" fill="white"/>
<path opacity="0.5" d="M393.564 176.356H391.73V186.492H393.564V176.356Z" fill="white"/>
<path opacity="0.5" d="M399.88 176.356H398.047V186.492H399.88V176.356Z" fill="white"/>
<path opacity="0.5" d="M406.196 176.356H404.362V186.492H406.196V176.356Z" fill="white"/>
<path opacity="0.5" d="M412.512 176.356H410.679V186.492H412.512V176.356Z" fill="white"/>
<path opacity="0.5" d="M418.827 176.356H416.994V186.492H418.827V176.356Z" fill="white"/>
<path opacity="0.5" d="M425.132 176.356H423.299V186.492H425.132V176.356Z" fill="white"/>
<path opacity="0.5" d="M431.447 176.356H429.614V186.492H431.447V176.356Z" fill="white"/>
<path opacity="0.5" d="M437.763 176.356H435.93V186.492H437.763V176.356Z" fill="white"/>
<path opacity="0.5" d="M444.078 176.356H442.245V186.492H444.078V176.356Z" fill="white"/>
<path opacity="0.5" d="M450.395 176.356H448.562V186.492H450.395V176.356Z" fill="white"/>
<path opacity="0.5" d="M387.248 190.479H385.415V200.614H387.248V190.479Z" fill="white"/>
<path opacity="0.5" d="M393.564 190.479H391.73V200.614H393.564V190.479Z" fill="white"/>
<path opacity="0.5" d="M399.88 190.479H398.047V200.614H399.88V190.479Z" fill="white"/>
<path opacity="0.5" d="M406.196 190.479H404.362V200.614H406.196V190.479Z" fill="white"/>
<path opacity="0.5" d="M412.512 190.479H410.679V200.614H412.512V190.479Z" fill="white"/>
<path opacity="0.5" d="M418.827 190.479H416.994V200.614H418.827V190.479Z" fill="white"/>
<path opacity="0.5" d="M425.132 190.479H423.299V200.614H425.132V190.479Z" fill="white"/>
<path opacity="0.5" d="M431.447 190.479H429.614V200.614H431.447V190.479Z" fill="white"/>
<path opacity="0.5" d="M437.763 190.479H435.93V200.614H437.763V190.479Z" fill="white"/>
<path opacity="0.5" d="M444.078 190.479H442.245V200.614H444.078V190.479Z" fill="white"/>
<path opacity="0.5" d="M450.395 190.479H448.562V200.614H450.395V190.479Z" fill="white"/>
<path opacity="0.5" d="M406.196 204.6H404.362V214.736H406.196V204.6Z" fill="white"/>
<path opacity="0.5" d="M412.512 204.6H410.679V214.736H412.512V204.6Z" fill="white"/>
<path opacity="0.5" d="M418.827 204.6H416.994V214.736H418.827V204.6Z" fill="white"/>
<path opacity="0.5" d="M425.132 204.6H423.299V214.736H425.132V204.6Z" fill="white"/>
<path opacity="0.5" d="M431.447 204.6H429.614V214.736H431.447V204.6Z" fill="white"/>
<path opacity="0.5" d="M437.763 204.6H435.93V214.736H437.763V204.6Z" fill="white"/>
<path opacity="0.5" d="M444.078 204.6H442.245V214.736H444.078V204.6Z" fill="white"/>
<path opacity="0.5" d="M450.395 204.6H448.562V214.736H450.395V204.6Z" fill="white"/>
<path opacity="0.5" d="M412.512 219.502H410.679V229.638H412.512V219.502Z" fill="white"/>
<path opacity="0.5" d="M418.827 219.502H416.994V229.638H418.827V219.502Z" fill="white"/>
<path opacity="0.5" d="M425.132 219.502H423.299V229.638H425.132V219.502Z" fill="white"/>
<path opacity="0.5" d="M431.447 219.502H429.614V229.638H431.447V219.502Z" fill="white"/>
<path opacity="0.5" d="M437.763 219.502H435.93V229.638H437.763V219.502Z" fill="white"/>
<path opacity="0.5" d="M444.078 219.502H442.245V229.638H444.078V219.502Z" fill="white"/>
<path opacity="0.5" d="M450.395 219.502H448.562V229.638H450.395V219.502Z" fill="white"/>
<path opacity="0.33" d="M567.497 229.414H563.168V240.389H567.497V229.414Z" fill="white"/>
<path d="M441.371 34.311H437.764V43.9148H441.371V34.311Z" fill="#EDEDED"/>
<path d="M450.265 34.311H446.657V43.9148H450.265V34.311Z" fill="#EDEDED"/>
<path d="M459.146 34.311H455.539V43.9148H459.146V34.311Z" fill="#EDEDED"/>
<path d="M468.028 34.311H464.421V43.9148H468.028V34.311Z" fill="#EDEDED"/>
<path d="M441.371 50.3135H437.764V59.9172H441.371V50.3135Z" fill="#EDEDED"/>
<path d="M450.265 50.3135H446.657V59.9172H450.265V50.3135Z" fill="#EDEDED"/>
<path d="M459.146 50.3135H455.539V59.9172H459.146V50.3135Z" fill="#EDEDED"/>
<path d="M468.028 50.3135H464.421V59.9172H468.028V50.3135Z" fill="#EDEDED"/>
<path d="M441.371 66.3159H437.764V75.9197H441.371V66.3159Z" fill="#EDEDED"/>
<path d="M450.265 66.3159H446.657V75.9197H450.265V66.3159Z" fill="#EDEDED"/>
<path d="M478.118 34.311H474.511V43.9148H478.118V34.311Z" fill="#EDEDED"/>
<path d="M200.212 131.649H197.918V140.461H200.212V131.649Z" fill="#E3E3E3"/>
<path d="M208.29 131.649H205.995V140.461H208.29V131.649Z" fill="#E3E3E3"/>
<path d="M217.74 131.649H215.445V140.461H217.74V131.649Z" fill="#E3E3E3"/>
<path d="M225.83 131.649H223.535V140.461H225.83V131.649Z" fill="#E3E3E3"/>
<path d="M182.258 131.649H179.964V140.461H182.258V131.649Z" fill="#E3E3E3"/>
<path d="M190.336 131.649H188.042V140.461H190.336V131.649Z" fill="#E3E3E3"/>
<path d="M200.212 146.942H197.918V155.753H200.212V146.942Z" fill="#E3E3E3"/>
<path d="M208.29 146.942H205.995V155.753H208.29V146.942Z" fill="#E3E3E3"/>
<path d="M217.74 146.942H215.445V155.753H217.74V146.942Z" fill="#E3E3E3"/>
<path d="M225.83 146.942H223.535V155.753H225.83V146.942Z" fill="#E3E3E3"/>
<path d="M182.258 146.942H179.964V155.753H182.258V146.942Z" fill="#E3E3E3"/>
<path d="M190.336 146.942H188.042V155.753H190.336V146.942Z" fill="#E3E3E3"/>
<path d="M200.212 162.235H197.918V171.046H200.212V162.235Z" fill="#E3E3E3"/>
<path d="M208.29 162.235H205.995V171.046H208.29V162.235Z" fill="#E3E3E3"/>
<path d="M217.74 162.235H215.445V171.046H217.74V162.235Z" fill="#E3E3E3"/>
<path d="M225.83 162.235H223.535V171.046H225.83V162.235Z" fill="#E3E3E3"/>
<path d="M182.258 162.235H179.964V171.046H182.258V162.235Z" fill="#E3E3E3"/>
<path d="M190.336 162.235H188.042V171.046H190.336V162.235Z" fill="#E3E3E3"/>
<path opacity="0.5" d="M628.904 199.148H625.355V212.808H628.904V199.148Z" fill="white"/>
<path opacity="0.5" d="M639.761 199.148H636.213V212.808H639.761V199.148Z" fill="white"/>
<path opacity="0.5" d="M649.98 199.148H646.432V212.808H649.98V199.148Z" fill="white"/>
<path opacity="0.33" d="M872.581 201.986H869.885V209.662H872.581V201.986Z" fill="white"/>
<path opacity="0.33" d="M881.025 201.986H878.328V209.662H881.025V201.986Z" fill="white"/>
<path opacity="0.33" d="M872.581 201.986H869.885V209.662H872.581V201.986Z" fill="white"/>
<path opacity="0.33" d="M881.025 201.986H878.328V209.662H881.025V201.986Z" fill="white"/>
<path opacity="0.33" d="M888.997 201.986H886.301V209.662H888.997V201.986Z" fill="white"/>
<path opacity="0.33" d="M897.442 201.986H894.745V209.662H897.442V201.986Z" fill="white"/>
<path opacity="0.33" d="M872.581 215.765H869.885V223.441H872.581V215.765Z" fill="white"/>
<path opacity="0.33" d="M881.025 215.765H878.328V223.441H881.025V215.765Z" fill="white"/>
<path opacity="0.33" d="M872.581 215.765H869.885V223.441H872.581V215.765Z" fill="white"/>
<path opacity="0.33" d="M881.025 215.765H878.328V223.441H881.025V215.765Z" fill="white"/>
<path opacity="0.33" d="M888.997 215.765H886.301V223.441H888.997V215.765Z" fill="white"/>
<path opacity="0.33" d="M897.442 215.765H894.745V223.441H897.442V215.765Z" fill="white"/>
<path opacity="0.33" d="M872.581 230.419H869.885V238.095H872.581V230.419Z" fill="white"/>
<path opacity="0.33" d="M881.025 230.419H878.328V238.095H881.025V230.419Z" fill="white"/>
<path opacity="0.33" d="M872.581 230.419H869.885V238.095H872.581V230.419Z" fill="white"/>
<path opacity="0.33" d="M881.025 230.419H878.328V238.095H881.025V230.419Z" fill="white"/>
<path opacity="0.33" d="M888.997 230.419H886.301V238.095H888.997V230.419Z" fill="white"/>
<path opacity="0.33" d="M897.442 230.419H894.745V238.095H897.442V230.419Z" fill="white"/>
<path opacity="0.33" d="M906.667 201.986H903.971V209.662H906.667V201.986Z" fill="white"/>
<path opacity="0.33" d="M906.667 215.765H903.971V223.441H906.667V215.765Z" fill="white"/>
<path opacity="0.33" d="M915.112 201.986H912.415V209.662H915.112V201.986Z" fill="white"/>
<path opacity="0.33" d="M989.777 242.506H986.82V249.378H989.777V242.506Z" fill="white"/>
<path opacity="0.33" d="M989.777 253.601H986.82V260.472H989.777V253.601Z" fill="white"/>
<path opacity="0.33" d="M997.371 242.506H994.414V249.378H997.371V242.506Z" fill="white"/>
<path d="M493 527H517" stroke="#F6F6F6" stroke-width="6" stroke-linecap="round"/>
<path d="M529 527H553" stroke="#F6F6F6" stroke-width="6" stroke-linecap="round"/>
<path d="M565 527H589" stroke="#F6F6F6" stroke-width="6" stroke-linecap="round"/>
<path d="M601 527H625" stroke="#F6F6F6" stroke-width="6" stroke-linecap="round"/>
<path d="M457 527H481" stroke="#FFCC33" stroke-width="6" stroke-linecap="round"/>
<path d="M544.302 372.542C553.565 372.542 561.075 365.069 561.075 355.851C561.075 346.632 553.565 339.159 544.302 339.159C535.038 339.159 527.528 346.632 527.528 355.851C527.528 365.069 535.038 372.542 544.302 372.542Z" fill="#FFCC33"/>
<path d="M577.119 211.43C581.953 211.43 585.871 207.531 585.871 202.721C585.871 197.911 581.953 194.012 577.119 194.012C572.286 194.012 568.368 197.911 568.368 202.721C568.368 207.531 572.286 211.43 577.119 211.43Z" fill="#F2F2F2"/>
<path d="M537.009 307.227C541.842 307.227 545.76 303.328 545.76 298.518C545.76 293.708 541.842 289.809 537.009 289.809C532.176 289.809 528.258 293.708 528.258 298.518C528.258 303.328 532.176 307.227 537.009 307.227Z" fill="#F2F2F2"/>
<path d="M599.727 325.37C604.56 325.37 608.478 321.471 608.478 316.661C608.478 311.851 604.56 307.952 599.727 307.952C594.894 307.952 590.976 311.851 590.976 316.661C590.976 321.471 594.894 325.37 599.727 325.37Z" fill="#F2F2F2"/>
<path d="M542.505 181.676C516.291 181.86 494.826 203.06 494.454 229.145C494.451 229.386 494.449 231.079 494.449 233.294C494.449 236.541 495.746 239.656 498.053 241.952C500.361 244.249 503.49 245.539 506.754 245.539H506.754C508.371 245.539 509.973 245.221 511.467 244.605C512.962 243.988 514.319 243.084 515.462 241.946C516.606 240.807 517.512 239.455 518.13 237.967C518.748 236.479 519.065 234.885 519.064 233.275C519.063 231.768 519.062 230.726 519.062 230.662C519.061 226.63 520.115 222.668 522.12 219.165C524.124 215.662 527.011 212.738 530.495 210.682C533.98 208.625 537.942 207.507 541.993 207.437C546.043 207.367 550.042 208.347 553.597 210.281C557.151 212.216 560.138 215.037 562.264 218.469C564.39 221.901 565.582 225.824 565.722 229.853C565.862 233.882 564.946 237.878 563.064 241.448C561.181 245.018 558.398 248.038 554.986 250.213L554.991 250.218C554.991 250.218 537.478 261.437 532.138 276.829L532.143 276.83C531.204 279.983 530.728 283.254 530.73 286.543C530.73 287.895 530.81 299.723 530.965 309.323C531.019 312.635 532.379 315.794 534.752 318.117C537.126 320.44 540.322 321.742 543.651 321.741H543.651C545.323 321.741 546.98 321.412 548.524 320.772C550.068 320.133 551.47 319.196 552.65 318.015C553.829 316.834 554.762 315.433 555.395 313.892C556.027 312.352 556.348 310.701 556.338 309.037C556.284 300.245 556.255 290.008 556.255 289.265C556.255 279.814 565.417 270.397 572.942 264.257C581.608 257.186 587.844 247.549 590.349 236.679C590.903 234.441 591.209 232.15 591.26 229.845C591.26 223.49 589.997 217.198 587.542 211.331C585.088 205.464 581.491 200.138 576.959 195.661C572.427 191.183 567.049 187.642 561.136 185.242C555.223 182.842 548.891 181.63 542.505 181.676V181.676Z" fill="#FFCC33"/>
<path d="M616.156 256.061C622.197 256.061 627.095 251.187 627.095 245.175C627.095 239.163 622.197 234.289 616.156 234.289C610.114 234.289 605.217 239.163 605.217 245.175C605.217 251.187 610.114 256.061 616.156 256.061Z" fill="#2F2E41"/>
<path d="M595.942 368.235H591.472L589.345 351.076H595.943L595.942 368.235Z" fill="#FFB8B8"/>
<path d="M588.278 366.963H596.899V372.365H582.85C582.85 371.656 582.99 370.953 583.263 370.298C583.536 369.643 583.935 369.047 584.44 368.546C584.944 368.044 585.542 367.646 586.201 367.375C586.859 367.103 587.565 366.963 588.278 366.963Z" fill="#2F2E41"/>
<path d="M630.582 368.235H626.112L623.985 351.076H630.583L630.582 368.235Z" fill="#FFB8B8"/>
<path d="M622.919 366.963H631.54V372.365H617.49C617.49 371.656 617.631 370.953 617.903 370.298C618.176 369.643 618.576 369.047 619.08 368.546C619.584 368.044 620.183 367.646 620.841 367.375C621.5 367.103 622.206 366.963 622.919 366.963V366.963Z" fill="#2F2E41"/>
<path d="M614.493 256.125C619.439 256.125 623.449 252.134 623.449 247.212C623.449 242.29 619.439 238.3 614.493 238.3C609.547 238.3 605.537 242.29 605.537 247.212C605.537 252.134 609.547 256.125 614.493 256.125Z" fill="#FFB8B8"/>
<path d="M619.831 284.876L623.839 275.714C624.812 273.564 625.091 271.167 624.637 268.854C624.183 266.54 623.019 264.423 621.304 262.796C620.952 262.449 620.578 262.126 620.185 261.827C618.208 260.288 615.771 259.449 613.26 259.443C611.573 259.449 609.906 259.818 608.374 260.524C608.243 260.582 608.115 260.644 607.984 260.706C607.733 260.825 607.485 260.956 607.244 261.09C605.674 261.987 604.338 263.239 603.344 264.744C602.349 266.249 601.724 267.966 601.519 269.756L599.751 284.502C599.306 285.66 583.437 327.462 588.987 359.376C589.046 359.717 589.213 360.03 589.463 360.27C589.714 360.509 590.035 360.663 590.38 360.708L596.006 361.47C596.417 361.526 596.834 361.425 597.173 361.187C597.511 360.949 597.747 360.593 597.833 360.189L607.273 315.408C607.332 315.129 607.483 314.879 607.702 314.696C607.92 314.513 608.194 314.408 608.48 314.399C608.766 314.389 609.046 314.475 609.277 314.643C609.508 314.811 609.675 315.051 609.753 315.324L623.091 362.417C623.186 362.759 623.391 363.061 623.675 363.276C623.959 363.491 624.306 363.607 624.663 363.607C624.769 363.606 624.875 363.597 624.98 363.578L631.853 362.261C632.253 362.187 632.61 361.966 632.855 361.643C633.1 361.321 633.215 360.918 633.177 360.515C632.167 349.307 626.799 293.16 619.831 284.876Z" fill="#272948"/>
<path d="M579.689 254.629C579.627 255.159 579.682 255.696 579.851 256.202C580.02 256.708 580.298 257.171 580.667 257.559C581.035 257.946 581.484 258.249 581.983 258.445C582.481 258.641 583.017 258.726 583.552 258.694L588.558 270.666L592.345 265.08L587.01 254.568C586.896 253.677 586.458 252.858 585.778 252.267C585.099 251.677 584.225 251.354 583.322 251.362C582.42 251.369 581.551 251.706 580.882 252.308C580.212 252.91 579.788 253.736 579.689 254.629L579.689 254.629Z" fill="#FFB8B8"/>
<path d="M613.996 296.931C614.529 296.867 615.041 296.689 615.496 296.407C615.951 296.126 616.339 295.748 616.632 295.301C616.925 294.855 617.116 294.35 617.191 293.821C617.267 293.293 617.225 292.755 617.069 292.245L627.602 284.611L621.261 282.248L612.231 289.859C611.387 290.177 610.689 290.792 610.27 291.588C609.851 292.383 609.74 293.304 609.957 294.175C610.175 295.047 610.706 295.809 611.451 296.317C612.195 296.824 613.101 297.043 613.996 296.931V296.931Z" fill="#FFB8B8"/>
<path d="M596.827 278.647C596.423 278.647 596.02 278.607 595.624 278.529C594.666 278.348 593.768 277.935 593.008 277.326C592.248 276.718 591.65 275.933 591.268 275.04L584.254 266.53C584.106 266.35 583.998 266.14 583.937 265.915C583.877 265.691 583.866 265.456 583.904 265.226C583.942 264.997 584.03 264.778 584.16 264.585C584.29 264.391 584.46 264.228 584.659 264.105L589.649 261.032C589.833 260.918 590.038 260.842 590.252 260.808C590.466 260.774 590.685 260.782 590.895 260.832C591.106 260.882 591.305 260.974 591.48 261.101C591.655 261.228 591.803 261.388 591.915 261.572L596.858 269.677L606.325 262.715C607.079 262.321 607.949 262.211 608.778 262.404C609.607 262.597 610.338 263.08 610.838 263.765C611.339 264.45 611.575 265.291 611.503 266.135C611.432 266.979 611.057 267.769 610.449 268.361L601 276.938C599.89 278.033 598.39 278.648 596.827 278.647Z" fill="#272948"/>
<path d="M622.406 291.447C622.393 291.447 622.381 291.447 622.368 291.446C622.138 291.441 621.911 291.387 621.703 291.289C621.495 291.191 621.31 291.05 621.16 290.876L616.724 285.726C616.573 285.551 616.461 285.345 616.396 285.124C616.33 284.902 616.313 284.669 616.344 284.44C616.376 284.211 616.456 283.992 616.58 283.796C616.703 283.6 616.867 283.433 617.06 283.305L625.367 277.794L617.841 268.79C617.403 268.064 617.243 267.205 617.389 266.371C617.535 265.536 617.977 264.782 618.636 264.246C619.295 263.709 620.125 263.427 620.976 263.45C621.827 263.472 622.641 263.799 623.27 264.37L632.416 273.264C633.136 273.919 633.685 274.737 634.017 275.649C634.349 276.562 634.454 277.541 634.322 278.502C634.191 279.463 633.826 280.379 633.261 281.169C632.695 281.959 631.946 282.601 631.076 283.04L623.6 290.934C623.447 291.096 623.262 291.225 623.056 291.313C622.851 291.401 622.63 291.446 622.406 291.447Z" fill="#272948"/>
<path d="M612.216 272.469C612.145 272.469 612.073 272.465 612.003 272.456C611.694 272.418 611.402 272.294 611.162 272.096C610.923 271.899 610.745 271.637 610.65 271.342L607.316 261.171C607.233 260.914 607.246 260.636 607.352 260.387C607.459 260.139 607.653 259.937 607.897 259.82L608.006 259.769C608.104 259.722 608.201 259.677 608.3 259.633C609.855 258.915 611.547 258.541 613.26 258.536C615.485 258.54 617.66 259.19 619.518 260.407C619.767 260.572 619.941 260.828 620.003 261.119C620.064 261.411 620.008 261.714 619.846 261.965L613.593 271.715C613.446 271.946 613.243 272.137 613.002 272.269C612.761 272.401 612.491 272.47 612.216 272.469V272.469Z" fill="#E6E6E6"/>
<path d="M624.781 240.315C626.758 240.315 628.36 238.72 628.36 236.753C628.36 234.786 626.758 233.191 624.781 233.191C622.804 233.191 621.201 234.786 621.201 236.753C621.201 238.72 622.804 240.315 624.781 240.315Z" fill="#2F2E41"/>
<path d="M612.51 232.837C609.995 232.837 607.584 233.831 605.806 235.601C604.028 237.37 603.029 239.77 603.029 242.272V246.263H607.963L610.322 242.272L611.03 246.263H626.001L621.99 242.272C621.99 239.77 620.992 237.37 619.214 235.601C617.436 233.831 615.024 232.837 612.51 232.837V232.837Z" fill="#2F2E41"/>
<path d="M626.62 234.313C627.016 233.081 627.835 232.028 628.935 231.338C630.034 230.648 631.342 230.366 632.63 230.541C634.911 230.92 636.714 232.745 637.789 234.783C638.864 236.821 639.36 239.102 640.082 241.289C640.805 243.475 641.829 245.673 643.653 247.089C645.477 248.504 648.276 248.888 650.067 247.432C649.862 248.949 649.184 250.364 648.127 251.477C647.07 252.589 645.688 253.342 644.177 253.631C642.666 253.919 641.102 253.727 639.707 253.082C638.312 252.437 637.155 251.372 636.402 250.038C635.456 248.364 635.212 246.403 634.932 244.504C634.652 242.604 634.288 240.639 633.159 239.082C632.031 237.525 629.918 236.509 628.126 237.218L626.62 234.313Z" fill="#2F2E41"/>
<path d="M510.228 239.747C506.965 239.747 503.835 238.457 501.528 236.16C499.22 233.864 497.924 230.75 497.924 227.502C497.924 225.287 497.925 223.594 497.929 223.353C498.032 215.767 499.952 208.314 503.529 201.614C497.652 209.62 494.421 219.246 494.282 229.159C494.279 229.4 494.277 231.093 494.277 233.308C494.278 236.555 495.574 239.67 497.881 241.966C500.189 244.263 503.318 245.553 506.582 245.553V245.553C509.263 245.552 511.871 244.68 514.009 243.07C516.147 241.459 517.699 239.198 518.428 236.63C516.175 238.641 513.254 239.751 510.228 239.747V239.747Z" fill="#1B1400"/>
<path d="M543.339 207.478C547.112 207.657 550.784 208.745 554.041 210.648C557.298 212.551 560.043 215.212 562.039 218.403C564.035 221.594 565.223 225.219 565.5 228.967C565.778 232.716 565.138 236.475 563.634 239.923C565.809 237.381 567.408 234.402 568.321 231.19C569.235 227.977 569.441 224.606 568.927 221.307C568.412 218.008 567.189 214.858 565.34 212.072C563.492 209.286 561.061 206.929 558.214 205.163C555.367 203.396 552.171 202.261 548.844 201.835C545.516 201.409 542.135 201.702 538.932 202.695C535.728 203.687 532.778 205.355 530.281 207.585C527.784 209.815 525.799 212.554 524.463 215.616C526.773 212.912 529.676 210.772 532.949 209.361C536.222 207.95 539.776 207.306 543.339 207.478V207.478Z" fill="#3F3D56"/>
<path d="M547.125 315.949C543.796 315.95 540.6 314.648 538.227 312.325C535.854 310.002 534.493 306.843 534.439 303.531C534.285 293.931 534.205 282.103 534.205 280.751C534.203 277.463 534.679 274.191 535.617 271.038L535.613 271.037C536.167 269.454 536.837 267.914 537.616 266.428C535.224 269.601 533.32 273.111 531.967 276.843L531.971 276.844C531.032 279.997 530.556 283.268 530.559 286.557C530.559 287.909 530.639 299.737 530.793 309.337C530.847 312.649 532.207 315.808 534.581 318.131C536.954 320.454 540.15 321.756 543.479 321.755V321.755C546.223 321.755 548.894 320.868 551.09 319.23C553.286 317.591 554.889 315.288 555.658 312.666C553.326 314.782 550.282 315.954 547.125 315.949V315.949Z" fill="#1B1400"/>
<path d="M433.142 368.4L437.612 368.4L439.739 351.241L433.141 351.241L433.142 368.4Z" fill="#FFB8B8"/>
<path d="M446.233 372.53L432.184 372.531L432.183 367.129L440.805 367.129C442.245 367.129 443.625 367.698 444.643 368.711C445.661 369.724 446.233 371.098 446.233 372.53V372.53L446.233 372.53Z" fill="#2F2E41"/>
<path d="M417.098 368.4L421.568 368.4L423.695 351.241L417.097 351.241L417.098 368.4Z" fill="#FFB8B8"/>
<path d="M430.189 372.53L416.14 372.531L416.139 367.129L424.761 367.129C426.201 367.129 427.581 367.698 428.599 368.711C429.617 369.724 430.189 371.098 430.189 372.53V372.53L430.189 372.53Z" fill="#2F2E41"/>
<path d="M421.004 363.123L416.637 362.894C416.412 362.882 416.191 362.826 415.988 362.729C415.785 362.632 415.603 362.495 415.453 362.328C415.303 362.16 415.189 361.964 415.115 361.752C415.042 361.54 415.012 361.316 415.026 361.092L420.245 303.59L444.279 310.044L446.594 309.415L439.353 360.32C439.291 360.702 439.1 361.053 438.811 361.313C438.522 361.573 438.153 361.728 437.764 361.751L433.057 361.969C432.821 361.982 432.586 361.946 432.365 361.864C432.144 361.782 431.943 361.655 431.774 361.492C431.605 361.328 431.472 361.131 431.383 360.914C431.295 360.697 431.252 360.463 431.259 360.229L432.111 329.677C432.115 329.536 432.066 329.398 431.973 329.291C431.88 329.184 431.75 329.116 431.609 329.1C431.468 329.083 431.326 329.12 431.211 329.203C431.096 329.285 431.016 329.408 430.987 329.546L422.762 361.773C422.684 362.156 422.476 362.499 422.172 362.746C421.868 362.992 421.488 363.126 421.096 363.125C421.065 363.125 421.035 363.124 421.004 363.123Z" fill="#2F2E41"/>
<path d="M433.944 256.541C438.89 256.541 442.9 252.551 442.9 247.629C442.9 242.707 438.89 238.716 433.944 238.716C428.998 238.716 424.988 242.707 424.988 247.629C424.988 252.551 428.998 256.541 433.944 256.541Z" fill="#FFB8B8"/>
<path d="M419.033 273.813L420.018 294.956L420.374 302.648C420.388 302.983 420.502 303.306 420.702 303.576C420.902 303.846 421.178 304.05 421.495 304.163L444.59 312.489C444.776 312.558 444.974 312.592 445.173 312.59C445.4 312.592 445.626 312.547 445.836 312.459C446.045 312.372 446.235 312.243 446.394 312.081C446.553 311.919 446.677 311.727 446.759 311.516C446.842 311.305 446.881 311.079 446.873 310.853L445.927 272.837C445.864 269.718 444.711 266.718 442.664 264.355C440.618 261.991 437.807 260.413 434.716 259.891C434.493 259.857 434.266 259.823 434.038 259.793C432.122 259.556 430.177 259.74 428.339 260.332C426.502 260.924 424.817 261.909 423.404 263.218C421.94 264.558 420.79 266.201 420.035 268.032C419.28 269.863 418.938 271.836 419.033 273.813L419.033 273.813Z" fill="#3ABB75"/>
<path d="M455.622 308.27C455.076 308.101 454.577 307.808 454.165 307.413C453.753 307.018 453.439 306.533 453.249 305.996C453.059 305.46 452.998 304.886 453.07 304.321C453.142 303.757 453.346 303.217 453.665 302.745L445.833 292.381L452.591 291.965L458.992 301.87C459.678 302.397 460.154 303.148 460.339 303.99C460.524 304.832 460.405 305.712 460.003 306.475C459.601 307.239 458.941 307.837 458.14 308.165C457.339 308.493 456.448 308.53 455.622 308.27H455.622Z" fill="#FFB8B8"/>
<path d="M450.115 300.869C449.908 300.786 449.719 300.662 449.56 300.505C449.401 300.348 449.275 300.161 449.189 299.956L437.39 271.981C437.158 271.433 437.037 270.845 437.034 270.251C437.031 269.657 437.146 269.068 437.371 268.518C437.597 267.968 437.929 267.467 438.35 267.045C438.77 266.623 439.269 266.287 439.82 266.057C440.371 265.827 440.961 265.707 441.558 265.705C442.155 265.702 442.747 265.816 443.3 266.041C443.853 266.266 444.355 266.598 444.779 267.016C445.203 267.435 445.54 267.932 445.771 268.48L457.57 296.455C457.744 296.87 457.746 297.337 457.575 297.753C457.404 298.169 457.074 298.501 456.658 298.675L451.42 300.863C451.214 300.95 450.992 300.995 450.768 300.996C450.544 300.997 450.322 300.954 450.115 300.869L450.115 300.869Z" fill="#3ABB75"/>
<path d="M431.064 299.882L442.397 278.289C442.616 277.873 442.991 277.561 443.44 277.421C443.89 277.281 444.377 277.323 444.795 277.54L461.244 286.089C461.661 286.307 461.975 286.68 462.116 287.127C462.257 287.575 462.214 288.059 461.996 288.475L450.664 310.069C450.445 310.484 450.07 310.796 449.62 310.936C449.171 311.077 448.684 311.034 448.266 310.817L431.817 302.268C431.4 302.051 431.086 301.678 430.945 301.23C430.804 300.783 430.847 300.298 431.064 299.882Z" fill="#2F2E41"/>
<path d="M438.665 290.017C438.463 289.484 438.139 289.006 437.719 288.62C437.299 288.234 436.794 287.951 436.244 287.794C435.694 287.637 435.115 287.609 434.553 287.714C433.991 287.819 433.462 288.054 433.007 288.399L422.148 281.23L422.13 287.969L432.444 293.743C433.013 294.392 433.794 294.822 434.65 294.955C435.506 295.089 436.381 294.919 437.124 294.475C437.866 294.03 438.427 293.34 438.709 292.525C438.991 291.71 438.975 290.822 438.665 290.017V290.017Z" fill="#FFB8B8"/>
<path d="M424.936 291.532L416.062 284.537C415.102 284.216 414.235 283.668 413.534 282.941C412.834 282.213 412.321 281.327 412.041 280.358C411.76 279.39 411.72 278.368 411.924 277.381C412.127 276.394 412.568 275.471 413.209 274.691L421.267 264.182C421.827 263.501 422.614 263.044 423.485 262.893C424.356 262.742 425.253 262.909 426.011 263.361C426.769 263.814 427.338 264.524 427.614 265.36C427.889 266.195 427.854 267.102 427.513 267.914L421.138 278.292L430.507 282.714C430.725 282.817 430.918 282.965 431.074 283.147C431.231 283.33 431.346 283.544 431.413 283.774C431.48 284.005 431.498 284.247 431.464 284.484C431.43 284.722 431.346 284.95 431.217 285.153L427.435 291.109C427.307 291.31 427.138 291.482 426.94 291.614C426.741 291.746 426.516 291.835 426.28 291.875C426.271 291.876 426.262 291.878 426.252 291.879C426.021 291.914 425.784 291.901 425.558 291.841C425.332 291.782 425.12 291.677 424.936 291.532V291.532Z" fill="#3ABB75"/>
<path d="M427.177 253.597C427.138 253.485 427.126 253.366 427.141 253.248C427.156 253.131 427.198 253.019 427.263 252.92C427.328 252.821 427.415 252.739 427.518 252.679C427.62 252.619 427.735 252.583 427.853 252.574C428.096 252.587 428.333 252.649 428.551 252.756C428.769 252.863 428.963 253.013 429.121 253.196C429.445 253.568 429.822 253.89 430.241 254.153C430.674 254.37 431.262 254.339 431.509 253.925C431.74 253.536 431.582 253.015 431.441 252.563C431.084 251.413 430.884 250.221 430.847 249.018C430.806 247.675 430.997 246.274 431.744 245.227C432.708 243.875 434.432 243.362 436.063 243.399C437.694 243.436 439.299 243.937 440.915 244.254C441.473 244.364 442.129 244.42 442.502 243.989C442.899 243.532 442.753 242.791 442.584 242.174C442.146 240.571 441.682 238.913 440.664 237.619C439.564 236.274 437.993 235.393 436.267 235.155C434.609 234.951 432.927 235.141 431.358 235.709C428.801 236.511 426.552 238.071 424.91 240.179C423.217 242.422 422.486 245.24 422.876 248.017C423.257 250.436 424.545 252.622 426.481 254.133L427.177 253.597Z" fill="#2F2E41"/>
<path d="M540.606 368.471C538.224 367.438 536.115 365.869 534.446 363.886C532.777 361.903 531.594 359.562 530.991 357.046C530.387 354.53 530.379 351.91 530.968 349.391C531.556 346.871 532.725 344.523 534.382 342.53C532.461 343.926 530.86 345.712 529.686 347.771C528.512 349.829 527.791 352.113 527.572 354.469C527.352 356.826 527.639 359.203 528.413 361.441C529.186 363.679 530.43 365.728 532.06 367.451C533.69 369.174 535.67 370.533 537.869 371.437C540.067 372.34 542.433 372.769 544.811 372.693C547.188 372.617 549.522 372.038 551.657 370.996C553.793 369.954 555.681 368.472 557.197 366.648C554.833 368.367 552.057 369.441 549.146 369.761C546.235 370.081 543.291 369.636 540.606 368.471V368.471Z" fill="#1B1400"/>
<path d="M311.852 434.72H314.012C313.916 435.36 313.708 435.992 313.388 436.616C313.068 437.24 312.636 437.832 312.092 438.392C311.548 438.952 310.836 439.408 309.956 439.76C309.076 440.096 308.108 440.264 307.052 440.264C304.812 440.264 302.98 439.456 301.556 437.84C300.148 436.208 299.444 434.112 299.444 431.552C299.444 429.008 300.148 426.92 301.556 425.288C302.964 423.656 304.796 422.84 307.052 422.84C308.972 422.84 310.532 423.36 311.732 424.4C312.948 425.44 313.692 426.76 313.964 428.36H311.804C311.5 427.304 310.956 426.456 310.172 425.816C309.404 425.16 308.364 424.832 307.052 424.832C305.404 424.832 304.084 425.456 303.092 426.704C302.116 427.952 301.628 429.568 301.628 431.552C301.628 433.52 302.116 435.136 303.092 436.4C304.068 437.648 305.38 438.272 307.028 438.272C308.388 438.272 309.484 437.912 310.316 437.192C311.148 436.456 311.66 435.632 311.852 434.72ZM318.285 429.416C319.357 428.232 320.765 427.64 322.509 427.64C324.253 427.64 325.653 428.232 326.709 429.416C327.781 430.584 328.317 432.096 328.317 433.952C328.317 435.808 327.781 437.328 326.709 438.512C325.653 439.68 324.253 440.264 322.509 440.264C320.765 440.264 319.357 439.68 318.285 438.512C317.229 437.328 316.701 435.808 316.701 433.952C316.701 432.096 317.229 430.584 318.285 429.416ZM319.797 437.168C320.469 437.984 321.373 438.392 322.509 438.392C323.645 438.392 324.541 437.984 325.197 437.168C325.869 436.352 326.205 435.28 326.205 433.952C326.205 432.624 325.869 431.552 325.197 430.736C324.541 429.92 323.645 429.512 322.509 429.512C321.373 429.512 320.469 429.92 319.797 430.736C319.141 431.552 318.813 432.624 318.813 433.952C318.813 435.28 319.141 436.352 319.797 437.168ZM332.546 429.416C333.618 428.232 335.026 427.64 336.77 427.64C338.515 427.64 339.915 428.232 340.97 429.416C342.043 430.584 342.579 432.096 342.579 433.952C342.579 435.808 342.043 437.328 340.97 438.512C339.915 439.68 338.515 440.264 336.77 440.264C335.026 440.264 333.618 439.68 332.546 438.512C331.49 437.328 330.962 435.808 330.962 433.952C330.962 432.096 331.49 430.584 332.546 429.416ZM334.058 437.168C334.73 437.984 335.634 438.392 336.77 438.392C337.906 438.392 338.803 437.984 339.459 437.168C340.131 436.352 340.467 435.28 340.467 433.952C340.467 432.624 340.131 431.552 339.459 430.736C338.803 429.92 337.906 429.512 336.77 429.512C335.634 429.512 334.73 429.92 334.058 430.736C333.402 431.552 333.074 432.624 333.074 433.952C333.074 435.28 333.402 436.352 334.058 437.168ZM351.68 427.904C353.296 427.904 354.624 428.448 355.664 429.536C356.704 430.624 357.224 432.128 357.224 434.048C357.224 435.824 356.696 437.304 355.64 438.488C354.6 439.672 353.216 440.264 351.488 440.264C349.616 440.264 348.128 439.624 347.024 438.344C345.936 437.048 345.392 435.24 345.392 432.92C345.392 429.912 345.84 427.672 346.736 426.2C347.648 424.728 349.128 423.784 351.176 423.368L356.024 422.384V424.376L351.608 425.192C350.264 425.432 349.272 425.936 348.632 426.704C347.992 427.472 347.608 428.552 347.48 429.944C348.408 428.584 349.808 427.904 351.68 427.904ZM351.392 438.392C352.512 438.392 353.408 437.992 354.08 437.192C354.768 436.376 355.112 435.328 355.112 434.048C355.112 432.784 354.768 431.752 354.08 430.952C353.408 430.152 352.52 429.752 351.416 429.752C350.312 429.752 349.392 430.128 348.656 430.88C347.936 431.616 347.576 432.64 347.576 433.952C347.576 435.312 347.92 436.392 348.608 437.192C349.312 437.992 350.24 438.392 351.392 438.392ZM377.86 438.128V443.072H375.868V440H360.58V427.904H362.644V438.128H367.3V427.904H369.364V438.128H374.02V427.904H376.084V438.128H377.86ZM388.089 431.984C388.089 431.168 387.833 430.544 387.321 430.112C386.825 429.68 386.169 429.464 385.353 429.464C383.897 429.464 382.969 430 382.569 431.072H380.577C380.785 430.08 381.305 429.264 382.137 428.624C382.985 427.968 384.073 427.64 385.401 427.64C386.825 427.64 387.969 428.032 388.833 428.816C389.697 429.584 390.129 430.64 390.129 431.984V440H388.185V438.56C387.273 439.696 385.977 440.264 384.297 440.264C383.097 440.264 382.097 439.928 381.297 439.256C380.513 438.568 380.121 437.664 380.121 436.544C380.121 435.376 380.545 434.464 381.393 433.808C382.241 433.136 383.401 432.8 384.873 432.8H388.089V431.984ZM384.561 438.464C385.553 438.464 386.385 438.184 387.057 437.624C387.745 437.064 388.089 436.336 388.089 435.44V434.552H384.993C384.145 434.552 383.465 434.72 382.953 435.056C382.457 435.392 382.209 435.88 382.209 436.52C382.209 437.144 382.425 437.624 382.857 437.96C383.289 438.296 383.857 438.464 384.561 438.464ZM404.343 427.904V440H402.303V431.096L396.135 440H394.095V427.904H396.135V436.832L402.303 427.904H404.343ZM397.263 422.36C397.263 422.968 397.431 423.472 397.767 423.872C398.119 424.272 398.607 424.472 399.231 424.472C399.855 424.472 400.335 424.272 400.671 423.872C401.023 423.472 401.199 422.968 401.199 422.36H403.047C403.015 423.48 402.647 424.384 401.943 425.072C401.255 425.76 400.351 426.104 399.231 426.104C398.111 426.104 397.199 425.76 396.495 425.072C395.807 424.384 395.447 423.48 395.415 422.36H397.263ZM407.394 429.752V427.904H417.594V429.752H413.514V440H411.45V429.752H407.394ZM430.287 434.576H421.479V434.624C421.479 435.712 421.823 436.616 422.511 437.336C423.199 438.056 424.095 438.416 425.199 438.416C425.967 438.416 426.599 438.256 427.095 437.936C427.607 437.6 427.927 437.248 428.055 436.88H430.143C429.951 437.728 429.431 438.504 428.583 439.208C427.735 439.912 426.599 440.264 425.175 440.264C423.415 440.264 421.999 439.696 420.927 438.56C419.855 437.424 419.319 435.888 419.319 433.952C419.319 432.016 419.847 430.48 420.903 429.344C421.959 428.208 423.327 427.64 425.007 427.64C426.623 427.64 427.903 428.176 428.847 429.248C429.807 430.304 430.287 431.728 430.287 433.52V434.576ZM424.959 429.488C423.967 429.488 423.159 429.792 422.535 430.4C421.927 431.008 421.583 431.816 421.503 432.824H428.199C428.151 431.784 427.839 430.968 427.263 430.376C426.703 429.784 425.935 429.488 424.959 429.488ZM440.262 429.416C441.334 428.232 442.742 427.64 444.486 427.64C446.23 427.64 447.63 428.232 448.686 429.416C449.758 430.584 450.294 432.096 450.294 433.952C450.294 435.808 449.758 437.328 448.686 438.512C447.63 439.68 446.23 440.264 444.486 440.264C442.742 440.264 441.334 439.68 440.262 438.512C439.206 437.328 438.678 435.808 438.678 433.952C438.678 432.096 439.206 430.584 440.262 429.416ZM441.774 437.168C442.446 437.984 443.35 438.392 444.486 438.392C445.622 438.392 446.518 437.984 447.174 437.168C447.846 436.352 448.182 435.28 448.182 433.952C448.182 432.624 447.846 431.552 447.174 430.736C446.518 429.92 445.622 429.512 444.486 429.512C443.35 429.512 442.446 429.92 441.774 430.736C441.118 431.552 440.79 432.624 440.79 433.952C440.79 435.28 441.118 436.352 441.774 437.168ZM459.412 427.904H469.444V440H467.38V429.752H461.476V440H459.412V427.904ZM479.485 427.64C480.973 427.64 482.253 428.192 483.325 429.296C484.397 430.4 484.933 431.952 484.933 433.952C484.933 435.968 484.389 437.528 483.301 438.632C482.213 439.72 480.917 440.264 479.413 440.264C478.501 440.264 477.717 440.096 477.061 439.76C476.405 439.424 475.917 439.008 475.597 438.512V444.584H473.533V427.904H475.525V429.632C475.845 429.072 476.341 428.6 477.013 428.216C477.685 427.832 478.509 427.64 479.485 427.64ZM479.221 438.392C480.293 438.392 481.157 437.984 481.813 437.168C482.485 436.352 482.821 435.28 482.821 433.952C482.821 432.624 482.485 431.552 481.813 430.736C481.157 429.92 480.293 429.512 479.221 429.512C478.101 429.512 477.205 429.912 476.533 430.712C475.861 431.496 475.525 432.56 475.525 433.904V434C475.525 435.344 475.861 436.416 476.533 437.216C477.205 438 478.101 438.392 479.221 438.392ZM489.15 429.416C490.222 428.232 491.63 427.64 493.374 427.64C495.118 427.64 496.518 428.232 497.574 429.416C498.646 430.584 499.182 432.096 499.182 433.952C499.182 435.808 498.646 437.328 497.574 438.512C496.518 439.68 495.118 440.264 493.374 440.264C491.63 440.264 490.222 439.68 489.15 438.512C488.094 437.328 487.566 435.808 487.566 433.952C487.566 432.096 488.094 430.584 489.15 429.416ZM490.662 437.168C491.334 437.984 492.238 438.392 493.374 438.392C494.51 438.392 495.406 437.984 496.062 437.168C496.734 436.352 497.07 435.28 497.07 433.952C497.07 432.624 496.734 431.552 496.062 430.736C495.406 429.92 494.51 429.512 493.374 429.512C492.238 429.512 491.334 429.92 490.662 430.736C490.006 431.552 489.678 432.624 489.678 433.952C489.678 435.28 490.006 436.352 490.662 437.168ZM508.283 427.904C509.899 427.904 511.227 428.448 512.267 429.536C513.307 430.624 513.827 432.128 513.827 434.048C513.827 435.824 513.299 437.304 512.243 438.488C511.203 439.672 509.819 440.264 508.091 440.264C506.219 440.264 504.731 439.624 503.627 438.344C502.539 437.048 501.995 435.24 501.995 432.92C501.995 429.912 502.443 427.672 503.339 426.2C504.251 424.728 505.731 423.784 507.779 423.368L512.627 422.384V424.376L508.211 425.192C506.867 425.432 505.875 425.936 505.235 426.704C504.595 427.472 504.211 428.552 504.083 429.944C505.011 428.584 506.411 427.904 508.283 427.904ZM507.995 438.392C509.115 438.392 510.011 437.992 510.683 437.192C511.371 436.376 511.715 435.328 511.715 434.048C511.715 432.784 511.371 431.752 510.683 430.952C510.011 430.152 509.123 429.752 508.019 429.752C506.915 429.752 505.995 430.128 505.259 430.88C504.539 431.616 504.179 432.64 504.179 433.952C504.179 435.312 504.523 436.392 505.211 437.192C505.915 437.992 506.843 438.392 507.995 438.392ZM515.533 440.048V438.176H515.869C516.605 438.176 517.117 437.968 517.405 437.552C517.709 437.136 517.901 436.392 517.981 435.32L518.605 427.904H526.957V440H524.893V429.752H520.453L519.973 435.464C519.845 437.096 519.477 438.272 518.869 438.992C518.277 439.696 517.357 440.048 516.109 440.048H515.533ZM541.295 434.576H532.487V434.624C532.487 435.712 532.831 436.616 533.519 437.336C534.207 438.056 535.103 438.416 536.207 438.416C536.975 438.416 537.607 438.256 538.103 437.936C538.615 437.6 538.935 437.248 539.063 436.88H541.151C540.959 437.728 540.439 438.504 539.591 439.208C538.743 439.912 537.607 440.264 536.183 440.264C534.423 440.264 533.007 439.696 531.935 438.56C530.863 437.424 530.327 435.888 530.327 433.952C530.327 432.016 530.855 430.48 531.911 429.344C532.967 428.208 534.335 427.64 536.015 427.64C537.631 427.64 538.911 428.176 539.855 429.248C540.815 430.304 541.295 431.728 541.295 433.52V434.576ZM535.967 429.488C534.975 429.488 534.167 429.792 533.543 430.4C532.935 431.008 532.591 431.816 532.511 432.824H539.207C539.159 431.784 538.847 430.968 538.271 430.376C537.711 429.784 536.943 429.488 535.967 429.488ZM544.652 427.904H547.172L551.564 437.552L555.956 427.904H558.452V440H556.436V431.216L552.428 440H550.7L546.668 431.216V440H544.652V427.904ZM569.746 431.984C569.746 431.168 569.49 430.544 568.978 430.112C568.482 429.68 567.826 429.464 567.01 429.464C565.554 429.464 564.626 430 564.226 431.072H562.234C562.442 430.08 562.962 429.264 563.794 428.624C564.642 427.968 565.73 427.64 567.058 427.64C568.482 427.64 569.626 428.032 570.49 428.816C571.354 429.584 571.786 430.64 571.786 431.984V440H569.842V438.56C568.93 439.696 567.634 440.264 565.954 440.264C564.754 440.264 563.754 439.928 562.954 439.256C562.17 438.568 561.778 437.664 561.778 436.544C561.778 435.376 562.202 434.464 563.05 433.808C563.898 433.136 565.058 432.8 566.53 432.8H569.746V431.984ZM566.218 438.464C567.21 438.464 568.042 438.184 568.714 437.624C569.402 437.064 569.746 436.336 569.746 435.44V434.552H566.65C565.802 434.552 565.122 434.72 564.61 435.056C564.114 435.392 563.866 435.88 563.866 436.52C563.866 437.144 564.082 437.624 564.514 437.96C564.946 438.296 565.514 438.464 566.218 438.464ZM583.336 440L580.096 435.416L576.928 440H574.552L578.848 433.952L574.6 427.904H577.024L580.216 432.536L583.336 427.904H585.712L581.464 434.024L585.76 440H583.336ZM598.879 427.904V440H596.839V431.096L590.671 440H588.631V427.904H590.671V436.832L596.839 427.904H598.879ZM610.78 440H608.716V427.904H610.78V433.088L616.012 427.904H618.628L612.94 433.544L618.7 440H616.036L610.78 434.168V440ZM621.591 429.416C622.663 428.232 624.071 427.64 625.815 427.64C627.559 427.64 628.959 428.232 630.015 429.416C631.087 430.584 631.623 432.096 631.623 433.952C631.623 435.808 631.087 437.328 630.015 438.512C628.959 439.68 627.559 440.264 625.815 440.264C624.071 440.264 622.663 439.68 621.591 438.512C620.535 437.328 620.007 435.808 620.007 433.952C620.007 432.096 620.535 430.584 621.591 429.416ZM623.103 437.168C623.775 437.984 624.679 438.392 625.815 438.392C626.951 438.392 627.847 437.984 628.503 437.168C629.175 436.352 629.511 435.28 629.511 433.952C629.511 432.624 629.175 431.552 628.503 430.736C627.847 429.92 626.951 429.512 625.815 429.512C624.679 429.512 623.775 429.92 623.103 430.736C622.447 431.552 622.119 432.624 622.119 433.952C622.119 435.28 622.447 436.352 623.103 437.168ZM637.052 440H634.988V427.904H637.052V432.776H643.028V427.904H645.092V440H643.028V434.648H637.052V440ZM648.147 429.752V427.904H658.347V429.752H654.267V440H652.203V429.752H648.147ZM667.353 427.64C668.841 427.64 670.121 428.192 671.193 429.296C672.265 430.4 672.801 431.952 672.801 433.952C672.801 435.968 672.257 437.528 671.169 438.632C670.081 439.72 668.785 440.264 667.281 440.264C666.369 440.264 665.585 440.096 664.929 439.76C664.273 439.424 663.785 439.008 663.465 438.512V444.584H661.401V427.904H663.393V429.632C663.713 429.072 664.209 428.6 664.881 428.216C665.553 427.832 666.377 427.64 667.353 427.64ZM667.089 438.392C668.161 438.392 669.025 437.984 669.681 437.168C670.353 436.352 670.689 435.28 670.689 433.952C670.689 432.624 670.353 431.552 669.681 430.736C669.025 429.92 668.161 429.512 667.089 429.512C665.969 429.512 665.073 429.912 664.401 430.712C663.729 431.496 663.393 432.56 663.393 433.904V434C663.393 435.344 663.729 436.416 664.401 437.216C665.073 438 665.969 438.392 667.089 438.392ZM677.019 429.416C678.091 428.232 679.499 427.64 681.243 427.64C682.987 427.64 684.387 428.232 685.443 429.416C686.515 430.584 687.051 432.096 687.051 433.952C687.051 435.808 686.515 437.328 685.443 438.512C684.387 439.68 682.987 440.264 681.243 440.264C679.499 440.264 678.091 439.68 677.019 438.512C675.963 437.328 675.435 435.808 675.435 433.952C675.435 432.096 675.963 430.584 677.019 429.416ZM678.531 437.168C679.203 437.984 680.107 438.392 681.243 438.392C682.379 438.392 683.275 437.984 683.931 437.168C684.603 436.352 684.939 435.28 684.939 433.952C684.939 432.624 684.603 431.552 683.931 430.736C683.275 429.92 682.379 429.512 681.243 429.512C680.107 429.512 679.203 429.92 678.531 430.736C677.875 431.552 677.547 432.624 677.547 433.952C677.547 435.28 677.875 436.352 678.531 437.168ZM688.765 440.048V438.176H689.101C689.837 438.176 690.349 437.968 690.637 437.552C690.941 437.136 691.133 436.392 691.213 435.32L691.837 427.904H700.189V440H698.125V429.752H693.685L693.205 435.464C693.077 437.096 692.709 438.272 692.101 438.992C691.509 439.696 690.589 440.048 689.341 440.048H688.765ZM714.527 427.904V440H712.487V431.096L706.319 440H704.279V427.904H706.319V436.832L712.487 427.904H714.527ZM724.562 427.64C726.05 427.64 727.33 428.192 728.402 429.296C729.474 430.4 730.01 431.952 730.01 433.952C730.01 435.968 729.466 437.528 728.378 438.632C727.29 439.72 725.994 440.264 724.49 440.264C723.578 440.264 722.794 440.096 722.138 439.76C721.482 439.424 720.994 439.008 720.674 438.512V444.584H718.61V427.904H720.602V429.632C720.922 429.072 721.418 428.6 722.09 428.216C722.762 427.832 723.586 427.64 724.562 427.64ZM724.298 438.392C725.37 438.392 726.234 437.984 726.89 437.168C727.562 436.352 727.898 435.28 727.898 433.952C727.898 432.624 727.562 431.552 726.89 430.736C726.234 429.92 725.37 429.512 724.298 429.512C723.178 429.512 722.282 429.912 721.61 430.712C720.938 431.496 720.602 432.56 720.602 433.904V434C720.602 435.344 720.938 436.416 721.61 437.216C722.282 438 723.178 438.392 724.298 438.392ZM741.193 427.904H743.425L736.801 444.584H734.569L736.441 439.856L731.689 427.904H733.921L737.569 437.336L741.193 427.904ZM756.303 427.904V440H754.263V431.096L748.095 440H746.055V427.904H748.095V436.832L754.263 427.904H756.303ZM749.223 422.36C749.223 422.968 749.391 423.472 749.727 423.872C750.079 424.272 750.567 424.472 751.191 424.472C751.815 424.472 752.295 424.272 752.631 423.872C752.983 423.472 753.159 422.968 753.159 422.36H755.007C754.975 423.48 754.607 424.384 753.903 425.072C753.215 425.76 752.311 426.104 751.191 426.104C750.071 426.104 749.159 425.76 748.455 425.072C747.767 424.384 747.407 423.48 747.375 422.36H749.223ZM759.354 429.752V427.904H769.554V429.752H765.474V440H763.41V429.752H759.354ZM782.247 434.576H773.439V434.624C773.439 435.712 773.783 436.616 774.471 437.336C775.159 438.056 776.055 438.416 777.159 438.416C777.927 438.416 778.559 438.256 779.055 437.936C779.567 437.6 779.887 437.248 780.015 436.88H782.103C781.911 437.728 781.391 438.504 780.543 439.208C779.695 439.912 778.559 440.264 777.135 440.264C775.375 440.264 773.959 439.696 772.887 438.56C771.815 437.424 771.279 435.888 771.279 433.952C771.279 432.016 771.807 430.48 772.863 429.344C773.919 428.208 775.287 427.64 776.967 427.64C778.583 427.64 779.863 428.176 780.807 429.248C781.767 430.304 782.247 431.728 782.247 433.52V434.576ZM776.919 429.488C775.927 429.488 775.119 429.792 774.495 430.4C773.887 431.008 773.543 431.816 773.463 432.824H780.159C780.111 431.784 779.799 430.968 779.223 430.376C778.663 429.784 777.895 429.488 776.919 429.488ZM430.974 469L427.734 464.416L424.566 469H422.19L426.486 462.952L422.238 456.904H424.662L427.854 461.536L430.974 456.904H433.35L429.102 463.024L433.398 469H430.974ZM436.57 458.416C437.642 457.232 439.05 456.64 440.794 456.64C442.538 456.64 443.938 457.232 444.994 458.416C446.066 459.584 446.602 461.096 446.602 462.952C446.602 464.808 446.066 466.328 444.994 467.512C443.938 468.68 442.538 469.264 440.794 469.264C439.05 469.264 437.642 468.68 436.57 467.512C435.514 466.328 434.986 464.808 434.986 462.952C434.986 461.096 435.514 459.584 436.57 458.416ZM438.082 466.168C438.754 466.984 439.658 467.392 440.794 467.392C441.93 467.392 442.826 466.984 443.482 466.168C444.154 465.352 444.49 464.28 444.49 462.952C444.49 461.624 444.154 460.552 443.482 459.736C442.826 458.92 441.93 458.512 440.794 458.512C439.658 458.512 438.754 458.92 438.082 459.736C437.426 460.552 437.098 461.624 437.098 462.952C437.098 464.28 437.426 465.352 438.082 466.168ZM461.732 467.128V472.072H459.74V469H450.308V472.072H448.316V467.128H449.324C450.108 466.68 450.596 465.296 450.788 462.976L451.268 456.904H459.956V467.128H461.732ZM452.78 463.024C452.716 463.744 452.66 464.296 452.612 464.68C452.564 465.064 452.46 465.504 452.3 466C452.14 466.48 451.94 466.856 451.7 467.128H457.892V458.752H453.116L452.78 463.024ZM480.722 456.904V469H478.682V460.096L472.514 469H470.474V456.904H472.514V465.832L478.682 456.904H480.722ZM492.39 469L489.15 464.416L485.982 469H483.606L487.902 462.952L483.654 456.904H486.078L489.27 461.536L492.39 456.904H494.766L490.518 463.024L494.814 469H492.39ZM513.686 456.904V469H511.646V460.096L505.478 469H503.438V456.904H505.478V465.832L511.646 456.904H513.686ZM522.785 467.392C523.697 467.392 524.401 467.168 524.897 466.72C525.393 466.256 525.721 465.712 525.881 465.088H527.945C527.801 466.224 527.257 467.208 526.313 468.04C525.385 468.856 524.201 469.264 522.761 469.264C521.049 469.264 519.665 468.68 518.609 467.512C517.569 466.328 517.049 464.808 517.049 462.952C517.049 461.112 517.569 459.6 518.609 458.416C519.665 457.232 521.049 456.64 522.761 456.64C524.249 456.64 525.441 457.056 526.337 457.888C527.233 458.72 527.769 459.68 527.945 460.768H525.881C525.689 460.16 525.337 459.632 524.825 459.184C524.313 458.736 523.625 458.512 522.761 458.512C521.673 458.512 520.801 458.92 520.145 459.736C519.489 460.552 519.161 461.624 519.161 462.952C519.161 464.28 519.489 465.352 520.145 466.168C520.817 466.984 521.697 467.392 522.785 467.392ZM531.187 456.904H541.219V469H539.155V458.752H533.251V469H531.187V456.904ZM551.259 456.64C552.747 456.64 554.027 457.192 555.099 458.296C556.171 459.4 556.707 460.952 556.707 462.952C556.707 464.968 556.163 466.528 555.075 467.632C553.987 468.72 552.691 469.264 551.187 469.264C550.275 469.264 549.491 469.096 548.835 468.76C548.179 468.424 547.691 468.008 547.371 467.512V473.584H545.307V456.904H547.299V458.632C547.619 458.072 548.115 457.6 548.787 457.216C549.459 456.832 550.283 456.64 551.259 456.64ZM550.995 467.392C552.067 467.392 552.931 466.984 553.587 466.168C554.259 465.352 554.595 464.28 554.595 462.952C554.595 461.624 554.259 460.552 553.587 459.736C552.931 458.92 552.067 458.512 550.995 458.512C549.875 458.512 548.979 458.912 548.307 459.712C547.635 460.496 547.299 461.56 547.299 462.904V463C547.299 464.344 547.635 465.416 548.307 466.216C548.979 467 549.875 467.392 550.995 467.392ZM567.285 460.984C567.285 460.168 567.029 459.544 566.517 459.112C566.021 458.68 565.365 458.464 564.549 458.464C563.093 458.464 562.165 459 561.765 460.072H559.773C559.981 459.08 560.501 458.264 561.333 457.624C562.181 456.968 563.269 456.64 564.597 456.64C566.021 456.64 567.165 457.032 568.029 457.816C568.893 458.584 569.325 459.64 569.325 460.984V469H567.381V467.56C566.469 468.696 565.173 469.264 563.493 469.264C562.293 469.264 561.293 468.928 560.493 468.256C559.709 467.568 559.317 466.664 559.317 465.544C559.317 464.376 559.741 463.464 560.589 462.808C561.437 462.136 562.597 461.8 564.069 461.8H567.285V460.984ZM563.757 467.464C564.749 467.464 565.581 467.184 566.253 466.624C566.941 466.064 567.285 465.336 567.285 464.44V463.552H564.189C563.341 463.552 562.661 463.72 562.149 464.056C561.653 464.392 561.405 464.88 561.405 465.52C561.405 466.144 561.621 466.624 562.053 466.96C562.485 467.296 563.053 467.464 563.757 467.464ZM573.291 469V456.904H578.427C579.659 456.904 580.595 457.2 581.235 457.792C581.891 458.368 582.219 459.112 582.219 460.024C582.219 460.68 582.067 461.232 581.763 461.68C581.459 462.128 581.083 462.44 580.635 462.616C581.227 462.776 581.723 463.112 582.123 463.624C582.539 464.136 582.747 464.784 582.747 465.568C582.747 466.576 582.387 467.4 581.667 468.04C580.963 468.68 579.979 469 578.715 469H573.291ZM578.475 463.672H575.331V467.224H578.475C579.947 467.224 580.683 466.616 580.683 465.4C580.683 464.248 579.947 463.672 578.475 463.672ZM578.235 458.68H575.331V461.92H578.235C578.859 461.92 579.339 461.776 579.675 461.488C580.011 461.184 580.179 460.776 580.179 460.264C580.179 459.208 579.531 458.68 578.235 458.68ZM584.659 469.048V467.176H584.995C585.731 467.176 586.243 466.968 586.531 466.552C586.835 466.136 587.027 465.392 587.107 464.32L587.731 456.904H596.083V469H594.019V458.752H589.579L589.099 464.464C588.971 466.096 588.603 467.272 587.995 467.992C587.403 468.696 586.483 469.048 585.235 469.048H584.659ZM610.421 463.576H601.613V463.624C601.613 464.712 601.957 465.616 602.645 466.336C603.333 467.056 604.229 467.416 605.333 467.416C606.101 467.416 606.733 467.256 607.229 466.936C607.741 466.6 608.061 466.248 608.189 465.88H610.277C610.085 466.728 609.565 467.504 608.717 468.208C607.869 468.912 606.733 469.264 605.309 469.264C603.549 469.264 602.133 468.696 601.061 467.56C599.989 466.424 599.453 464.888 599.453 462.952C599.453 461.016 599.981 459.48 601.037 458.344C602.093 457.208 603.461 456.64 605.141 456.64C606.757 456.64 608.037 457.176 608.981 458.248C609.941 459.304 610.421 460.728 610.421 462.52V463.576ZM605.093 458.488C604.101 458.488 603.293 458.792 602.669 459.4C602.061 460.008 601.717 460.816 601.637 461.824H608.333C608.285 460.784 607.973 459.968 607.397 459.376C606.837 458.784 606.069 458.488 605.093 458.488ZM615.842 469H613.778V456.904H615.842V461.776H621.818V456.904H623.882V469H621.818V463.648H615.842V469ZM638.217 456.904V469H636.177V460.096L630.009 469H627.969V456.904H630.009V465.832L636.177 456.904H638.217ZM650.844 469H648.78V464.896H646.62L643.5 469H641.1L644.412 464.656C643.596 464.368 642.948 463.888 642.468 463.216C642.004 462.528 641.772 461.752 641.772 460.888C641.772 459.736 642.148 458.784 642.9 458.032C643.668 457.28 644.716 456.904 646.044 456.904H650.844V469ZM643.836 460.888C643.836 461.544 644.052 462.08 644.484 462.496C644.932 462.896 645.532 463.096 646.284 463.096H648.78V458.704H646.284C645.532 458.704 644.932 458.912 644.484 459.328C644.052 459.728 643.836 460.248 643.836 460.888ZM655.785 463.96L655.641 452.104H657.873L657.729 463.96H655.785ZM655.713 466.768C656.001 466.48 656.353 466.336 656.769 466.336C657.185 466.336 657.537 466.48 657.825 466.768C658.113 467.04 658.257 467.384 658.257 467.8C658.257 468.216 658.113 468.568 657.825 468.856C657.537 469.128 657.185 469.264 656.769 469.264C656.353 469.264 656.001 469.128 655.713 468.856C655.425 468.568 655.281 468.216 655.281 467.8C655.281 467.384 655.425 467.04 655.713 466.768Z" fill="black"/>
</svg>
