<svg width="24" height="24" viewBox="0 0 24 24" fill="none" xmlns="http://www.w3.org/2000/svg">
<rect width="24" height="24" rx="12" fill="#0DC143"/>
<path d="M17.4421 7.32973C16.1219 5.98176 14.297 5.25 12.4332 5.25C8.47275 5.25 5.28883 8.44662 5.32766 12.3365C5.32766 13.5689 5.67711 14.7628 6.25954 15.8412L5.25 19.5L9.01635 18.5372C10.0647 19.1149 11.2296 19.3845 12.3944 19.3845C16.3161 19.3845 19.5 16.1878 19.5 12.298C19.5 10.4108 18.7623 8.63919 17.4421 7.32973ZM12.4332 18.1905C11.3849 18.1905 10.3365 17.9209 9.44346 17.3818L9.21049 17.2662L6.95845 17.8439L7.54087 15.6486L7.38556 15.4176C5.67711 12.6831 6.49251 9.06284 9.28815 7.36824C12.0838 5.67365 15.6948 6.48243 17.4033 9.25541C19.1117 12.0284 18.2963 15.6101 15.5007 17.3047C14.6076 17.8824 13.5204 18.1905 12.4332 18.1905ZM15.8501 13.9155L15.423 13.723C15.423 13.723 14.8018 13.4534 14.4135 13.2608C14.3747 13.2608 14.3358 13.2223 14.297 13.2223C14.1805 13.2223 14.1029 13.2608 14.0252 13.2993C14.0252 13.2993 13.9864 13.3378 13.4428 13.9541C13.404 14.0311 13.3263 14.0696 13.2486 14.0696H13.2098C13.171 14.0696 13.0933 14.0311 13.0545 13.9926L12.8604 13.9155C12.4332 13.723 12.045 13.4919 11.7343 13.1838C11.6567 13.1068 11.5402 13.0297 11.4625 12.9527C11.1907 12.6831 10.9189 12.375 10.7248 12.0284L10.686 11.9514C10.6471 11.9128 10.6471 11.8743 10.6083 11.7973C10.6083 11.7203 10.6083 11.6432 10.6471 11.6047C10.6471 11.6047 10.8025 11.4122 10.9189 11.2966C10.9966 11.2196 11.0354 11.1041 11.1131 11.027C11.1907 10.9115 11.2296 10.7574 11.1907 10.6419C11.1519 10.4493 10.686 9.40946 10.5695 9.17838C10.4918 9.06284 10.4142 9.02432 10.2977 8.98581H10.1812C10.1035 8.98581 9.98706 8.98581 9.87057 8.98581C9.79292 8.98581 9.71526 9.02432 9.6376 9.02432L9.59877 9.06284C9.52112 9.10135 9.44346 9.17838 9.3658 9.21689C9.28815 9.29392 9.24932 9.37095 9.17166 9.44797C8.89986 9.79459 8.74455 10.2182 8.74455 10.6419C8.74455 10.95 8.82221 11.2581 8.93869 11.5277L8.97752 11.6432C9.32698 12.375 9.79292 13.0297 10.4142 13.6074L10.5695 13.7615C10.686 13.877 10.8025 13.9541 10.8801 14.0696C11.6955 14.7628 12.6274 15.2635 13.6757 15.5331C13.7922 15.5716 13.9475 15.5716 14.064 15.6101C14.1805 15.6101 14.3358 15.6101 14.4523 15.6101C14.6465 15.6101 14.8794 15.5331 15.0347 15.4561C15.1512 15.3791 15.2289 15.3791 15.3065 15.302L15.3842 15.225C15.4619 15.148 15.5395 15.1095 15.6172 15.0324C15.6948 14.9554 15.7725 14.8784 15.8113 14.8014C15.889 14.6473 15.9278 14.4547 15.9666 14.2622C15.9666 14.1851 15.9666 14.0696 15.9666 13.9926C15.9666 13.9926 15.9278 13.9541 15.8501 13.9155Z" fill="white"/>
</svg>
